<svg width="492" height="491" viewBox="0 0 492 491" fill="none" xmlns="http://www.w3.org/2000/svg">
<path d="M246.2 0.159912C110.75 0.159912 0.950195 109.96 0.950195 245.41C0.950195 380.86 110.75 490.66 246.2 490.66C381.65 490.66 491.45 380.86 491.45 245.41C491.45 109.96 381.65 0.159912 246.2 0.159912ZM377.08 289.46C371.43 305.27 351.36 356.87 316.4 376.48C290.96 390.75 280.76 383.25 250.97 383.25C220.9 383.25 212 391.83 186.5 377.22C152.09 357.51 128.45 308.98 120.85 287.98C107.13 250.05 97.6102 183.24 128.46 160.43C156.54 139.67 202.01 158.56 239.62 161.03C239.38 153.11 238.61 143.48 236.72 133.73C236.17 130.76 235.47 127.79 234.72 124.85C233.95 121.92 233.05 119.02 232.08 116.23C230.1 110.64 227.67 105.43 225.03 101.08C223.74 98.8999 222.35 96.9499 221.07 95.2499C220.39 94.4099 219.76 93.6299 219.17 92.8999C218.56 92.1899 217.93 91.5599 217.4 90.9799C216.37 89.7999 215.36 88.9899 214.75 88.3999C214.12 87.8199 213.79 87.5099 213.79 87.5099L213.49 87.2299C211.83 85.6899 211.89 83.8599 213.64 83.1399C215.38 82.4199 218.15 83.0899 219.81 84.6399C219.84 84.6699 219.88 84.7099 219.91 84.7399C219.91 84.7399 220.31 85.1299 221.05 85.8599C221.77 86.5899 222.96 87.6399 224.11 89.0399C224.7 89.7299 225.41 90.4999 226.08 91.3399C226.71 92.1799 227.4 93.0899 228.13 94.0599C229.48 96.0099 230.92 98.2099 232.21 100.6C234.84 105.38 237.11 110.91 238.85 116.72C239.7 119.62 240.46 122.6 241.08 125.61C241.69 128.61 242.22 131.64 242.61 134.64C243.92 144.22 244.14 153.52 243.93 161.26C244.99 161.29 246.05 161.31 247.09 161.31C248.29 161.31 249.5 161.28 250.73 161.22C255.64 154.71 261.35 146.28 266.18 136.97C267.59 134.3 268.89 131.54 270.12 128.77C271.33 125.99 272.43 123.17 273.4 120.37C275.32 114.76 276.64 109.16 277.28 104.11C277.62 101.6 277.74 99.2099 277.8 97.0799C277.79 95.9999 277.78 94.9899 277.77 94.0599C277.73 93.1199 277.63 92.2399 277.57 91.4599C277.49 89.8999 277.2 88.6399 277.1 87.7899C276.97 86.9399 276.9 86.4899 276.9 86.4899L276.84 86.0799C276.49 83.8399 277.68 82.4499 279.49 82.9699C281.3 83.4899 283.05 85.7299 283.4 87.9699C283.41 88.0099 283.41 88.0699 283.42 88.1099C283.42 88.1099 283.49 88.6599 283.62 89.6899C283.73 90.7099 284.01 92.2699 284.05 94.0799C284.09 94.9899 284.16 96.0299 284.17 97.0999C284.14 98.1499 284.12 99.2899 284.09 100.51C283.94 102.88 283.7 105.49 283.23 108.17C282.33 113.55 280.67 119.29 278.43 124.93C277.3 127.74 276.04 130.54 274.66 133.28C273.27 136.01 271.81 138.72 270.25 141.31C265.94 148.6 261.11 155.2 256.65 160.72C293.15 156.65 339.02 133.37 376.5 171.34C397.21 192.35 389.58 254.5 377.08 289.46Z" fill="white"/>
<path d="M245.01 173.8C244.4 173.79 243.79 173.78 243.18 173.76C242.28 173.74 241.38 173.71 240.48 173.66C240.18 173.65 239.88 173.63 239.59 173.61C230.75 173.14 221.65 171.81 212.73 169.05C172.53 156.66 191.18 187.88 212.28 191.56C239.31 196.27 290.38 191.45 303.03 174.68C313.67 160.56 282.59 174.34 245.01 173.8Z" fill="white"/>
<path d="M179.09 197.99C182.33 186.21 155.55 167.74 143.66 171.58C126.88 177 111.11 206.53 117.4 217.07C120.16 221.7 136.05 215.75 151.75 210.4C164.48 206.08 177.64 203.26 179.09 197.99Z" fill="white"/>
<path d="M128.89 260.67C128.89 260.67 157.14 349.2 209.1 365.34C209.1 365.35 168.49 331.55 128.89 260.67Z" fill="white"/>
</svg>
