<svg width="491" height="492" viewBox="0 0 491 492" fill="none" xmlns="http://www.w3.org/2000/svg">
<path d="M245.64 0.560059C110.19 0.560059 0.389648 110.36 0.389648 245.81C0.389648 381.26 110.19 491.06 245.64 491.06C381.09 491.06 490.89 381.26 490.89 245.81C490.89 110.36 381.09 0.560059 245.64 0.560059ZM80.9998 347H74.9998V155H80.9998V347ZM121 347H107V155H121V347ZM142 347H136V155H142V347ZM163 347H158V155H163V347ZM193 347H178V155H193V347ZM203 347H198V155H203V347ZM223 347H218V155H223V347ZM243 347H229V155H243V347ZM265 347H260V155H265V347ZM285 347H280V155H285V347ZM316 347H311V155H316V347ZM346 347H332V155H346V347ZM357 347H352V155H357V347ZM397 347H383V155H397V347ZM414 347V155H420V347H414Z" fill="white"/>
</svg>
