<svg width="491" height="491" viewBox="0 0 491 491" fill="none" xmlns="http://www.w3.org/2000/svg">
<path d="M352 110H143V171H352V110Z" fill="white"/>
<path d="M245.52 0.159912C110.07 0.159912 0.27002 109.96 0.27002 245.41C0.27002 380.86 110.07 490.66 245.52 490.66C380.97 490.66 490.77 380.86 490.77 245.41C490.77 109.96 380.97 0.159912 245.52 0.159912ZM369 381.6C369 384.23 368.35 386.74 367.21 388.98C364.52 393.87 359.09 397 352.95 397H140.47C131.74 397 125 390.69 125 381.96V191H369V381.6ZM369 182H125V109.68C125 106.23 125.8 102.95 127.63 100.23C125.54 102.94 124 106.31 124 109.97C124 106.31 125.48 102.83 127.57 100.12C130.38 95.9499 135.19 92.9999 140.47 92.9999H352.96C358.56 92.9999 363.45 96.2999 366.23 100.9C367.97 103.46 369.01 106.66 369.01 109.97V182H369Z" fill="white"/>
<path d="M179 209.83C179 207.16 176.84 205 174.17 205H146.82C144.15 205 141.99 207.16 141.99 209.83V226.18C141.99 228.85 144.15 231.01 146.82 231.01H174.17C176.84 231.01 179 228.85 179 226.18V209.83Z" fill="white"/>
<path d="M237 209.83C237 207.16 234.84 205 232.17 205H204.82C202.15 205 199.99 207.16 199.99 209.83V226.18C199.99 228.85 202.15 231.01 204.82 231.01H232.17C234.84 231.01 237 228.85 237 226.18V209.83Z" fill="white"/>
<path d="M294 209.83C294 207.16 291.84 205 289.17 205H261.82C259.15 205 256.99 207.16 256.99 209.83V226.18C256.99 228.85 259.15 231.01 261.82 231.01H289.17C291.84 231.01 294 228.85 294 226.18V209.83Z" fill="white"/>
<path d="M353 209.83C353 207.16 350.84 205 348.17 205H320.82C318.15 205 315.99 207.16 315.99 209.83V226.18C315.99 228.85 318.15 231.01 320.82 231.01H348.17C350.84 231.01 353 228.85 353 226.18V209.83ZM325 216H332V209H336V216H343V221H336V227H332V221H325V216Z" fill="white"/>
<path d="M178 259.83C178 257.16 175.84 255 173.17 255H145.82C143.15 255 140.99 257.16 140.99 259.83V276.18C140.99 278.85 143.15 281.01 145.82 281.01H173.17C175.84 281.01 178 278.85 178 276.18V259.83Z" fill="white"/>
<path d="M236 259.83C236 257.16 233.84 255 231.17 255H203.82C201.15 255 198.99 257.16 198.99 259.83V276.18C198.99 278.85 201.15 281.01 203.82 281.01H231.17C233.84 281.01 236 278.85 236 276.18V259.83Z" fill="white"/>
<path d="M294 259.83C294 257.16 291.84 255 289.17 255H261.82C259.15 255 256.99 257.16 256.99 259.83V276.18C256.99 278.85 259.15 281.01 261.82 281.01H289.17C291.84 281.01 294 278.85 294 276.18V259.83Z" fill="white"/>
<path d="M352 259.83C352 257.16 349.84 255 347.17 255H319.82C317.15 255 314.99 257.16 314.99 259.83V276.18C314.99 278.85 317.15 281.01 319.82 281.01H347.17C349.84 281.01 352 278.85 352 276.18V259.83ZM325 266H343V271H325V266Z" fill="white"/>
<path d="M179 309.83C179 307.16 176.84 305 174.17 305H146.82C144.15 305 141.99 307.16 141.99 309.83V326.18C141.99 328.85 144.15 331.01 146.82 331.01H174.17C176.84 331.01 179 328.85 179 326.18V309.83Z" fill="white"/>
<path d="M237 309.83C237 307.16 234.84 305 232.17 305H204.82C202.15 305 199.99 307.16 199.99 309.83V326.18C199.99 328.85 202.15 331.01 204.82 331.01H232.17C234.84 331.01 237 328.85 237 326.18V309.83Z" fill="white"/>
<path d="M295 309.83C295 307.16 292.84 305 290.17 305H262.82C260.15 305 257.99 307.16 257.99 309.83V326.18C257.99 328.85 260.15 331.01 262.82 331.01H290.17C292.84 331.01 295 328.85 295 326.18V309.83Z" fill="white"/>
<path d="M178 360.83C178 358.16 175.84 356 173.17 356H145.82C143.15 356 140.99 358.16 140.99 360.83V377.18C140.99 379.85 143.15 382.01 145.82 382.01H173.17C175.84 382.01 178 379.85 178 377.18V360.83Z" fill="white"/>
<path d="M236 360.83C236 358.16 233.84 356 231.17 356H203.82C201.15 356 198.99 358.16 198.99 360.83V377.18C198.99 379.85 201.15 382.01 203.82 382.01H231.17C233.84 382.01 236 379.85 236 377.18V360.83Z" fill="white"/>
<path d="M294 360.83C294 358.16 291.84 356 289.17 356H261.82C259.15 356 256.99 358.16 256.99 360.83V377.18C256.99 379.85 259.15 382.01 261.82 382.01H289.17C291.84 382.01 294 379.85 294 377.18V360.83Z" fill="white"/>
<path d="M352 309.83C352 307.16 349.84 305 347.17 305H319.82C317.15 305 314.99 307.16 314.99 309.83V376.18C314.99 378.85 317.15 381.01 319.82 381.01H347.17C349.84 381.01 352 378.85 352 376.18V309.83ZM325 339H344V343H325V339ZM325 345H344V349H325V345Z" fill="white"/>
</svg>
