<svg width="491" height="492" viewBox="0 0 491 492" fill="none" xmlns="http://www.w3.org/2000/svg">
<path d="M402.26 368.2C400.91 367.53 399.55 366.84 398.18 366.16C395.39 364.76 392.51 363.32 389.68 361.93C376.35 355.41 365.17 350.4 354.5 346.14C354.45 346.12 354.41 346.11 354.38 346.09C343.37 350.02 331.34 352.15 318.62 352.43C309.88 352.62 301.2 351.87 292.82 350.19C278.69 347.36 266.65 342.46 256.02 335.2C248.36 329.97 242.38 324.06 237.74 317.14C233.77 311.23 231.18 304.96 229.95 298.46C227.66 298.49 225.37 298.5 223.07 298.45C204.53 298.05 186.41 295.12 168.91 288.87C166.03 287.84 163.71 288.02 160.97 289.11C141.47 296.89 122.42 305.65 103.57 314.87C96.7701 318.2 90.01 321.62 83.23 325C83.11 325.06 82.97 325.1 82.78 325.17C87.49 321.88 92.2 318.75 96.73 315.39C106.02 308.5 114.63 300.87 121.63 291.56C126.45 285.16 129.63 278.03 131.35 270.22C131.53 269.38 131.2 268.98 130.62 268.53C122.96 262.59 116.18 255.8 110.62 247.83C103.6 237.76 99.09 226.71 97.98 214.41C96.72 200.37 99.97 187.32 107 175.17C114.17 162.79 124.12 153.03 135.81 144.96C150.68 134.69 167.11 127.99 184.6 123.75C201 119.78 217.64 118.34 234.48 119C250.39 119.63 265.96 122.25 281.13 127.16C295.73 131.89 309.38 138.49 321.67 147.75C332.33 155.78 341.33 165.32 347.72 177.15C353.73 188.28 356.57 200.16 355.75 212.82C355.3 219.72 353.78 226.25 351.33 232.46C360.72 235.4 369.04 239.39 376.58 244.6C385.32 250.64 391.84 257.5 396.51 265.57C401.71 274.55 403.9 284.12 403.01 293.99C402.25 302.43 399.2 310.53 393.96 318.05C390.94 322.38 387.37 326.3 383.11 329.96C384.03 332.58 385.3 334.96 386.97 337.17C390.44 341.77 394.91 346.04 401.04 350.59C402.88 351.95 404.77 353.25 406.77 354.63C407.69 355.27 408.62 355.91 409.55 356.56L448.49 383.78C475.19 344.52 490.79 297.11 490.79 246.05C490.79 110.6 380.99 0.799805 245.54 0.799805C110.09 0.799805 0.290039 110.6 0.290039 246.05C0.290039 381.5 110.09 491.3 245.54 491.3C329.11 491.3 402.9 449.49 447.18 385.66L403.14 368.57C402.91 368.5 402.61 368.38 402.26 368.2Z" fill="white"/>
<path d="M188.755 221.561C195.939 219.855 200.379 212.648 198.673 205.464C196.966 198.28 189.759 193.839 182.575 195.546C175.391 197.252 170.951 204.459 172.657 211.643C174.364 218.827 181.571 223.268 188.755 221.561Z" fill="white"/>
<path d="M228.963 221.56C236.147 219.853 240.588 212.646 238.881 205.462C237.175 198.278 229.968 193.838 222.784 195.544C215.6 197.251 211.159 204.458 212.866 211.642C214.572 218.826 221.779 223.266 228.963 221.56Z" fill="white"/>
<path d="M275.479 218.082C280.7 212.861 280.7 204.396 275.479 199.174C270.257 193.953 261.792 193.953 256.571 199.174C251.35 204.396 251.35 212.861 256.571 218.082C261.792 223.304 270.257 223.304 275.479 218.082Z" fill="white"/>
<path d="M409.53 356.56C408.6 355.91 407.67 355.27 406.75 354.63C404.75 353.25 402.86 351.95 401.02 350.59C394.88 346.04 390.41 341.78 386.95 337.17C385.28 334.96 384.01 332.58 383.09 329.96C387.35 326.3 390.92 322.38 393.94 318.05C399.19 310.52 402.23 302.43 402.99 293.99C403.88 284.11 401.69 274.55 396.49 265.57C391.82 257.49 385.3 250.64 376.56 244.6C369.02 239.39 360.7 235.4 351.31 232.46C350.47 234.6 349.51 236.69 348.45 238.75C357.05 241.37 365.18 245.07 372.66 250.24C379.92 255.25 386.1 261.31 390.55 269C394.92 276.54 396.94 284.65 396.15 293.37C395.46 301.01 392.66 307.87 388.3 314.13C384.85 319.08 380.64 323.3 375.88 326.99C375.52 327.27 375.31 327.52 375.42 328.04C376.49 332.89 378.46 337.32 381.46 341.3C385.81 347.08 391.15 351.82 396.93 356.1C399.74 358.19 402.67 360.13 405.59 362.18C405.47 362.13 405.39 362.11 405.31 362.07C401.1 359.97 396.9 357.84 392.67 355.78C380.96 350.06 369.13 344.61 357.01 339.78C355.31 339.1 353.87 338.99 352.08 339.63C341.22 343.51 329.96 345.33 318.44 345.58C310.27 345.76 302.15 345.08 294.14 343.47C281.83 341 270.28 336.65 259.85 329.54C253.39 325.13 247.77 319.84 243.4 313.32C240.26 308.63 238.01 303.62 236.85 298.23C234.54 298.35 232.23 298.43 229.92 298.46C231.15 304.96 233.74 311.23 237.71 317.14C242.36 324.07 248.34 329.98 255.99 335.2C266.62 342.46 278.66 347.36 292.79 350.19C301.17 351.87 309.85 352.63 318.59 352.43C331.31 352.15 343.34 350.02 354.35 346.09C354.38 346.1 354.42 346.12 354.47 346.14C365.15 350.4 376.33 355.42 389.65 361.93C392.48 363.32 395.37 364.76 398.15 366.16C399.51 366.84 400.87 367.52 402.23 368.2C402.59 368.38 402.88 368.49 403.09 368.57L447.13 385.66C447.57 385.03 448.01 384.41 448.44 383.78L409.53 356.56ZM408.36 355.93C408.37 355.93 408.37 355.94 408.38 355.94C408.37 355.93 408.37 355.93 408.36 355.93Z" fill="white"/>
<path d="M311.1 227.27C300.41 227.69 290.04 229.51 280.28 232.67C269.86 236.04 260.97 240.57 253.09 246.51C245.12 252.52 239.2 259.21 235 266.99C230.57 275.19 228.62 283.89 229.2 292.85C229.32 294.74 229.58 296.62 229.93 298.47C232.24 298.43 234.55 298.36 236.86 298.24C236.45 296.34 236.17 294.4 236.04 292.41C235.53 284.55 237.29 277.17 241.03 270.25C245 262.9 250.59 256.98 257.21 251.99C264.84 246.24 273.32 242.14 282.39 239.2C291.81 236.15 301.48 234.52 311.37 234.13C321.83 233.72 332.17 234.61 342.35 237.08C344.41 237.58 346.44 238.15 348.45 238.77C349.51 236.71 350.46 234.61 351.31 232.48C348.93 231.73 346.49 231.04 343.97 230.42C333.53 227.87 322.47 226.82 311.1 227.27Z" fill="white"/>
</svg>
