<svg width="492" height="492" viewBox="0 0 492 492" fill="none" xmlns="http://www.w3.org/2000/svg">
<path d="M246.08 0.799805C110.63 0.799805 0.830078 110.6 0.830078 246.05C0.830078 381.5 110.63 491.3 246.08 491.3C381.53 491.3 491.33 381.5 491.33 246.05C491.33 110.6 381.53 0.799805 246.08 0.799805ZM448.28 372.49L279.73 412.08L78.0001 235.94V135.35L125.8 124.16C126.5 108.9 125 84.0097 109.99 73.4397L218.76 48.9797C218.76 48.9797 234 58.0199 231.97 99.3599L249.34 95.3098L456.32 346.17L453.73 370.37L448.28 372.49Z" fill="white"/>
<path d="M249.32 95.2998L231.94 99.3499C231.79 102.4 231.54 105.63 231.19 109.05L235.29 108.1L240.93 113.49L118.42 141.57L112.98 136.38L124.83 133.64C125.1 131.4 125.42 128.09 125.6 124.15L77.6001 135.34L267.92 372.42L279.53 386.89L426.37 352.11L449.75 346.57L249.32 95.2998ZM376.45 270.24L389.14 286.3C390.35 287.83 389.59 290.1 387.7 290.59L371.18 294.88C370.13 295.15 369.01 294.77 368.35 293.9L356.25 278.03C355.09 276.51 355.83 274.31 357.67 273.79L373.6 269.31C374.65 269.02 375.77 269.38 376.45 270.24ZM258.48 257.41L274.41 252.93C275.46 252.64 276.58 253 277.26 253.86L289.95 269.92C291.16 271.45 290.4 273.72 288.51 274.21L271.99 278.5C270.94 278.77 269.82 278.39 269.16 277.52L257.06 261.65C255.91 260.13 256.65 257.92 258.48 257.41ZM246.69 245.61C245.64 245.88 244.52 245.5 243.86 244.63L231.76 228.76C230.6 227.24 231.34 225.04 233.18 224.52L249.11 220.04C250.16 219.74 251.28 220.11 251.96 220.97L264.65 237.03C265.86 238.56 265.1 240.83 263.21 241.32L246.69 245.61ZM285.56 292.81L301.49 288.33C302.54 288.04 303.66 288.4 304.34 289.26L317.03 305.32C318.24 306.85 317.48 309.12 315.59 309.61L299.07 313.9C298.02 314.17 296.9 313.79 296.24 312.92L284.14 297.05C282.99 295.53 283.73 293.32 285.56 292.81ZM351.84 300.26L335.32 304.55C334.27 304.82 333.15 304.44 332.49 303.57L320.39 287.7C319.23 286.18 319.97 283.98 321.81 283.46L337.74 278.98C338.79 278.68 339.91 279.05 340.59 279.91L353.28 295.97C354.49 297.51 353.73 299.77 351.84 300.26ZM326.2 260.57C327.41 262.1 326.65 264.37 324.76 264.86L308.24 269.15C307.19 269.42 306.07 269.04 305.41 268.17L293.31 252.3C292.15 250.78 292.89 248.58 294.73 248.06L309.9 243.8L310.66 243.59C311.71 243.29 312.83 243.66 313.51 244.52L321.37 254.47L326.2 260.57ZM349.36 234.83L362.05 250.89C363.26 252.42 362.5 254.69 360.61 255.18L344.09 259.47C343.04 259.74 341.92 259.36 341.26 258.49L329.16 242.62C328 241.1 328.74 238.9 330.58 238.38L346.51 233.9C347.57 233.61 348.69 233.98 349.36 234.83ZM305.29 205.51L321.22 201.03C322.27 200.74 323.39 201.1 324.07 201.96L336.76 218.02C337.97 219.55 337.21 221.82 335.32 222.31L318.8 226.6C317.75 226.87 316.63 226.49 315.97 225.62L303.87 209.75C302.71 208.23 303.45 206.02 305.29 205.51ZM173.33 212C173.19 212 173.04 211.93 172.9 211.95C172.85 211.96 172.81 211.9 172.76 211.9C172.66 211.91 172.56 211.89 172.46 211.9C172.41 211.91 172.36 211.89 172.3 211.9C172.2 211.91 172.1 211.9 172 211.91C171.95 211.91 171.9 211.96 171.86 211.96C171.73 211.96 171.59 212 171.46 212C171.45 212 171.44 212 171.43 212C171.29 212 171.14 211.93 171 211.91C170.96 211.9 170.91 211.87 170.87 211.87C170.77 211.86 170.67 211.83 170.57 211.81C170.52 211.8 170.47 211.78 170.42 211.77C170.32 211.75 170.23 211.72 170.13 211.7C170.09 211.69 170.04 211.68 170 211.66C169.87 211.62 169.74 211.58 169.61 211.54C169.6 211.54 169.6 211.54 169.59 211.53C169.46 211.48 169.32 211.43 169.19 211.37C169.15 211.35 169.11 211.33 169.07 211.32C168.98 211.28 168.89 211.23 168.8 211.19C168.76 211.17 168.71 211.14 168.67 211.12C168.58 211.07 168.49 211.02 168.41 210.97C168.37 210.95 168.33 210.92 168.29 210.9C168.17 210.83 168.05 210.75 167.94 210.67C167.94 210.67 167.93 210.67 167.93 210.66C167.81 210.58 167.7 210.49 167.59 210.39C167.56 210.36 167.52 210.33 167.49 210.3C167.41 210.23 167.34 210.16 167.26 210.09C167.22 210.05 167.19 210.02 167.15 209.98C167.08 209.91 167.01 209.83 166.94 209.76C166.91 209.73 166.88 209.69 166.85 209.66C166.75 209.55 166.66 209.44 166.57 209.32L129.77 161.24C127.58 158.38 128.16 154.55 130.55 152.35C130.65 152.26 130.76 152.16 130.87 152.07C130.98 151.98 131.09 151.89 131.2 151.82C131.42 151.66 131.66 151.5 131.91 151.37C132.41 151.11 132.95 150.87 133.53 150.74L206.9 133.94L241.7 126C241.84 126 241.99 125.83 242.13 125.81C242.17 125.8 242.22 125.8 242.26 125.79C242.36 125.78 242.46 125.71 242.57 125.7C242.62 125.7 242.67 125.66 242.72 125.66C242.83 125.65 242.94 125.63 243.04 125.63C243.08 125.63 243.11 125.62 243.15 125.62C243.3 125.62 243.44 125.62 243.58 125.63C243.61 125.63 243.63 125.63 243.66 125.63C243.78 125.64 243.9 125.65 244.01 125.66C244.06 125.67 244.1 125.67 244.15 125.68C244.25 125.69 244.35 125.71 244.44 125.73C244.49 125.74 244.53 125.75 244.58 125.76C244.68 125.78 244.79 125.81 244.89 125.83C244.93 125.84 244.97 125.85 245 125.86C245.14 125.9 245.27 125.94 245.41 125.99C245.43 126 245.44 126 245.46 126.01C245.58 126.05 245.69 126.1 245.81 126.15C245.85 126.17 245.89 126.19 245.93 126.21C246.02 126.25 246.11 126.29 246.2 126.34C246.24 126.36 246.29 126.39 246.33 126.41C246.42 126.46 246.51 126.51 246.6 126.56C246.64 126.58 246.67 126.6 246.71 126.62C246.83 126.7 246.95 126.78 247.07 126.86C247.08 126.87 247.09 126.87 247.1 126.88C247.21 126.96 247.31 127.04 247.41 127.13C247.45 127.16 247.48 127.19 247.51 127.22C247.59 127.29 247.66 127.35 247.73 127.42C247.77 127.46 247.8 127.49 247.84 127.53C247.91 127.6 247.98 127.68 248.05 127.75C248.08 127.78 248.11 127.82 248.14 127.85C248.24 127.96 248.33 128.07 248.42 128.19L250.25 130.59L284.56 175.59C287 178.79 285.98 183.22 282.82 185.19C282.23 185.56 281.57 185.84 280.85 186.01L254.56 192.29L276.9 213.06L285.38 210.68C286.43 210.39 287.55 210.75 288.23 211.61L300.92 227.67C302.13 229.2 301.37 231.47 299.48 231.96L297.71 232.42L282.96 236.25C281.91 236.52 280.79 236.14 280.13 235.27L268.03 219.4C266.87 217.88 267.61 215.68 269.45 215.16L276.9 213.07L254.56 192.43L173.33 212C173.34 212 173.34 212 173.33 212ZM204.65 255.1L192.55 239.23C191.39 237.71 192.13 235.51 193.97 234.99L209.9 230.51C210.95 230.21 212.07 230.58 212.75 231.44L225.44 247.5C226.65 249.03 225.89 251.3 224 251.79L207.48 256.08C206.43 256.35 205.31 255.97 204.65 255.1ZM229.95 287.98L217.85 272.11C216.69 270.59 217.43 268.39 219.27 267.87L235.2 263.39C236.25 263.09 237.37 263.46 238.05 264.32L250.74 280.38C251.95 281.91 251.19 284.18 249.3 284.67L232.78 288.96C231.73 289.23 230.61 288.85 229.95 287.98ZM259.86 324.36C258.81 324.63 257.69 324.25 257.03 323.38L244.93 307.51C243.77 305.99 244.51 303.79 246.35 303.27L262.28 298.79C263.33 298.5 264.45 298.86 265.13 299.72L277.82 315.78C279.03 317.31 278.27 319.58 276.38 320.07L259.86 324.36Z" fill="white"/>
<path d="M132.71 83.0501C132.9 83.8501 133.71 84.3501 134.51 84.1601L212.79 65.6801C213.59 65.4901 214.09 64.68 213.9 63.88L213.89 63.83C213.7 63.03 212.89 62.53 212.09 62.72L133.81 81.2C133.01 81.39 132.51 82.2 132.7 83L132.71 83.0501Z" fill="white"/>
<path d="M136.35 94.1899L136.36 94.2399C136.55 95.0399 137.36 95.54 138.16 95.35L216.44 76.8699C217.24 76.6799 217.74 75.8699 217.55 75.0699L217.54 75.0199C217.35 74.2199 216.54 73.72 215.74 73.91L137.46 92.3899C136.67 92.5799 136.16 93.3899 136.35 94.1899Z" fill="white"/>
<path d="M138.87 104.86L138.88 104.91C139.07 105.71 139.88 106.21 140.68 106.02L218.96 87.54C219.76 87.35 220.26 86.5399 220.07 85.7399L220.06 85.6899C219.87 84.8899 219.06 84.3899 218.26 84.5799L139.98 103.06C139.18 103.24 138.68 104.06 138.87 104.86Z" fill="white"/>
<path d="M141.59 114.13C140.79 114.32 140.29 115.13 140.48 115.93L140.49 115.98C140.68 116.78 141.49 117.28 142.29 117.09L220.57 98.6099C221.37 98.4199 221.87 97.6098 221.68 96.8098L221.67 96.7598C221.48 95.9598 220.67 95.4597 219.87 95.6497L141.59 114.13Z" fill="white"/>
</svg>
