<svg width="492" height="491" viewBox="0 0 492 491" fill="none" xmlns="http://www.w3.org/2000/svg">
<path d="M214 151.67C205.94 145.69 197.55 146.16 190.7 151.79C183.85 157.42 181.63 165.09 184.43 171.68C189.39 183.3 201.81 197.23 215.25 216.45L255.75 207.78C254.85 206.46 221.95 157.56 214 151.67Z" fill="white"/>
<path d="M246.2 0.0400391C110.75 0.0400391 0.950195 109.84 0.950195 245.29C0.950195 380.74 110.75 490.54 246.2 490.54C381.65 490.54 491.45 380.74 491.45 245.29C491.45 109.84 381.65 0.0400391 246.2 0.0400391ZM423.34 319.11L112.1 385.74C106.28 386.99 100.54 383.28 99.3003 377.45L73.6902 257.79C72.4402 251.97 76.1502 246.23 81.9802 244.99L208.14 217.98C206.39 215.41 204.67 212.89 203.01 210.42C190.74 192.22 179.25 176.02 177.71 171.15C175.05 162.74 179.38 151.51 187.39 145.84C194.85 140.56 206.44 138.25 216.74 145.88C224.99 151.99 261.17 204.57 262.41 206.37L264.85 205.85C259.78 198.69 255.62 192.85 253.18 189.41C239.87 170.63 226.27 152.69 214.47 137.51C203.52 123.42 194.19 111.59 186.06 106.63C179.33 102.54 171.25 98.5501 156.96 109.78C147.48 117.24 145.72 135.17 150.7 142.88C155.79 150.76 184.55 187.84 197.98 206.94C202.32 213.11 205.77 217.58 205.46 218.4C205.44 218.46 205.34 218.45 205.27 218.48C205.02 218.55 204.21 218.7 203.09 218.94C202.36 219.09 201.47 219.28 200.68 219.46C200.18 219.57 199.73 218.54 199.23 217.85C187.73 202.2 146.17 148.61 146.11 148.18C146.03 147.68 140.77 143.34 140.7 129C140.62 114.66 158.18 89.7701 181.88 97.5201C185.99 98.8701 191.42 100.79 197.63 106.96C222.65 131.86 259.36 187.97 259.36 187.97C259.36 187.97 264.16 194.69 271.14 204.5L393.22 178.37C399.04 177.12 404.78 180.83 406.02 186.66L431.64 306.32C432.88 312.13 429.16 317.86 423.34 319.11Z" fill="white"/>
<path d="M277.25 313.66C282.58 317.45 297.16 323.51 314.02 312.8C330.87 302.09 325.51 284.63 323.22 279.93C320.31 273.93 288.78 229.3 271.14 204.49L264.84 205.84C284.02 232.9 316.31 278.86 318.75 285.97C321.07 292.75 318.07 305.54 305.9 309.91C293.75 314.28 284.24 310.68 280.37 307.04C278.11 304.92 244.35 258.6 216.44 218.16C216.04 217.58 215.65 217.02 215.25 216.46L208.13 217.98C236.29 259.29 274.53 311.73 277.25 313.66Z" fill="white"/>
</svg>
