<svg width="491" height="491" viewBox="0 0 491 491" fill="none" xmlns="http://www.w3.org/2000/svg">
<path d="M239.12 107.98C236.42 107.98 233.86 107.5 231.5 106.56L150.12 188H327.32L246.15 106.77C243.95 107.58 241.59 107.98 239.12 107.98Z" fill="white"/>
<path d="M245.36 0.159912C109.91 0.159912 0.109863 109.96 0.109863 245.41C0.109863 380.86 109.91 490.66 245.36 490.66C380.81 490.66 490.61 380.86 490.61 245.41C490.61 109.96 380.81 0.159912 245.36 0.159912ZM64.9999 344V188H123.76L219.23 92.4699C218.83 90.8799 218.6 89.1999 218.6 87.4799C218.6 76.1499 227.79 66.9499 239.12 66.9499C250.45 66.9499 259.64 76.1299 259.64 87.4599C259.64 89.4099 259.35 91.3399 258.85 93.1199L353.67 188H428V344H64.9999Z" fill="white"/>
<path d="M117.77 244.51C122.83 244.51 126.85 245.63 129.75 246.85L132.65 235.52C130.12 234.21 124.5 232.71 117.11 232.71C98.01 232.71 82.6499 244.69 82.6499 266.23C82.6499 284.21 93.8898 297.78 115.7 297.78C123.38 297.78 129.28 296.38 131.9 295.07L129.75 283.93C126.94 285.05 122.17 285.99 117.86 285.99C105.13 285.99 97.6398 278.03 97.6398 265.39C97.6398 251.34 106.44 244.51 117.77 244.51Z" fill="white"/>
<path d="M156 234H141V297H181V285H156V234Z" fill="white"/>
<path d="M213.36 232.71C194.73 232.71 182.65 246.85 182.65 265.76C182.65 283.74 193.6 297.87 212.33 297.87C230.77 297.87 243.32 285.32 243.32 264.63C243.32 247.22 232.74 232.71 213.36 232.71ZM213.08 286.55C203.53 286.55 197.73 277.84 197.73 265.48C197.73 253.21 203.35 244.04 212.99 244.04C222.82 244.04 228.25 253.78 228.25 265.11C228.24 277.37 222.72 286.55 213.08 286.55Z" fill="white"/>
<path d="M277.21 259.4C269.06 256.31 265.51 254.53 265.51 250.51C265.51 247.23 268.51 244.42 274.69 244.42C280.87 244.42 285.36 246.2 287.89 247.42L291.07 235.9C287.32 234.21 282.08 232.72 274.97 232.72C260.08 232.72 251.09 240.96 251.09 251.73C251.09 260.91 257.92 266.71 268.41 270.36C275.99 273.07 278.99 275.32 278.99 279.25C278.99 283.37 275.53 286.08 268.97 286.08C262.88 286.08 256.99 284.11 253.15 282.15L250.25 293.95C253.81 295.92 260.92 297.79 268.13 297.79C285.45 297.79 293.6 288.8 293.6 278.22C293.59 269.32 288.35 263.52 277.21 259.4Z" fill="white"/>
<path d="M318 270H341V259H318V245H342V234H303V297H343V285H318V270Z" fill="white"/>
<path d="M398.35 240.01C392.26 235.42 384.38 233.27 372.4 233.27C365.19 233.27 358 233.74 353 234.58V296.56C357 297.03 361.91 297.5 369.31 297.5C381.67 297.5 391.84 294.88 398.48 289.35C404.57 284.2 408.99 275.87 408.99 263.79C409 252.65 404.91 244.88 398.35 240.01ZM372.74 286.36C370.96 286.36 369 286.36 368 286.08V244.79C369 244.51 371.05 244.23 374.23 244.23C386.5 244.23 394.17 251.16 394.08 264.27C394.08 279.34 385.66 286.45 372.74 286.36Z" fill="white"/>
</svg>
