<svg width="491" height="491" viewBox="0 0 491 491" fill="none" xmlns="http://www.w3.org/2000/svg">
<path d="M294.63 250.35C292.76 250.35 291 250.53 291 250.71V262.7C291 262.88 292.58 262.94 293.9 262.94C298.78 262.94 301.79 260.47 301.79 256.31C301.79 252.58 299.2 250.35 294.63 250.35Z" fill="white"/>
<path d="M245.57 0.0400391C110.12 0.0400391 0.320068 109.84 0.320068 245.29C0.320068 380.74 110.12 490.54 245.57 490.54C381.02 490.54 490.82 380.74 490.82 245.29C490.82 109.84 381.02 0.0400391 245.57 0.0400391ZM416 173H429V192H416V173ZM364 173H377V192H364V173ZM338 173H351V192H338V173ZM312 173H325V192H312V173ZM287 173H300V192H287V173ZM261 173H274V192H261V173ZM78.3601 252.91C65.7101 254.8 53.9201 246.07 52.0301 233.42C50.1401 220.77 58.8701 208.98 71.5201 207.09L113.58 200.82L113.64 200.87L130.24 197.9L131.95 195.23L130.19 192.38L113.13 189L71.1401 182.27C58.5001 180.26 49.8901 168.39 51.8901 155.76C53.9001 143.12 65.7701 134.51 78.4001 136.51C91.0401 138.52 99.6501 150.39 97.6501 163.02C97.4801 164.1 97.2401 165.14 96.9301 166.15L126.92 176.18L148.98 181.62L236.37 175.5C236.48 175.49 236.59 175.48 236.7 175.47C239.99 175.32 242.94 177.68 243.44 181.02C243.94 184.36 241.81 187.48 238.62 188.29C238.51 188.32 238.39 188.35 238.28 188.37L206.27 195.74L238.07 203.58C238.18 203.61 238.29 203.63 238.4 203.67C241.58 204.53 243.66 207.68 243.11 211.01C242.56 214.34 239.58 216.65 236.29 216.45C236.19 216.44 236.07 216.43 235.96 216.42L148.81 208.97L127.51 213.88L97.1601 223.46C97.4601 224.47 97.6901 225.52 97.8501 226.6C99.7501 239.23 91.0201 251.02 78.3601 252.91ZM117 282V269H136V282H117ZM136 295V308H117V295H136ZM117 321H136V334H117V321ZM140 354H127V336H140V354ZM166 354H153V336H166V354ZM192 354H179V336H192V354ZM184.03 277.34C186.8 277.34 189.87 276.74 191.68 276.01L193.07 283.18C191.38 284.02 187.59 284.93 182.65 284.93C168.61 284.93 161.38 276.19 161.38 264.63C161.38 250.77 171.26 243.06 183.55 243.06C188.31 243.06 191.92 244.02 193.55 244.87L191.68 252.16C189.81 251.38 187.22 250.65 183.97 250.65C176.68 250.65 171.02 255.05 171.02 264.08C171.02 272.22 175.84 277.34 184.03 277.34ZM218 354H205V336H218V354ZM214.52 284.99C202.47 284.99 195.42 275.89 195.42 264.33C195.42 252.16 203.19 243.06 215.18 243.06C227.65 243.06 234.46 252.4 234.46 263.6C234.46 276.92 226.39 284.99 214.52 284.99ZM244 354H231V336H244V354ZM269 354H256V336H269V354ZM274 266.5C274 279.03 267.27 284.99 256.67 284.99C246.43 284.99 240 279.33 240 266.38V244H250V267.1C250 274.09 252.24 277.64 256.94 277.64C261.76 277.64 264 274.27 264 267.1V244H274V266.5ZM295 354H282V336H295V354ZM293.96 269.99C292.76 269.99 292 269.93 291 269.81V284H282V244.27C284 243.79 288.59 243.43 294.19 243.43C299.85 243.43 303.78 244.51 306.49 246.68C309.08 248.73 310.77 252.1 310.77 256.08C310.77 260.06 309.5 263.43 307.09 265.72C303.97 268.67 299.39 269.99 293.96 269.99ZM321 354H308V336H321V354ZM347 354H334V336H347V354ZM333.79 284.99C321.74 284.99 314.69 275.89 314.69 264.33C314.69 252.16 322.46 243.06 334.45 243.06C346.92 243.06 353.73 252.4 353.73 263.6C353.73 276.92 345.66 284.99 333.79 284.99ZM373 354H360V336H373V354ZM375.06 268.5C372.65 264.16 370 259 368.01 254.25L367.73 254.35C367.97 259.71 368 265.48 368 272.1V284H360V244H370.48L378.91 258.98C381.32 263.26 383.73 268 385.54 273H385.72C385.12 267 385 261.68 385 255.59V244H393V284H383.73L375.06 268.5ZM399 354H386V336H399V354ZM403 192H390V173H403V192ZM440 337H425V354H412V336H421V324H440V337ZM440 311H421V298H440V311ZM440 285H421V272H440V285ZM440 259H421V247H440V259ZM440 234H421V221H440V234ZM421 208V195H440V208H421Z" fill="white"/>
<path d="M214.94 250.35C208.74 250.35 205.12 256.25 205.12 264.15C205.12 272.1 208.85 277.7 215 277.7C221.2 277.7 224.76 271.8 224.76 263.9C224.76 256.62 221.26 250.35 214.94 250.35Z" fill="white"/>
<path d="M334.22 250.35C328.01 250.35 324.4 256.25 324.4 264.15C324.4 272.1 328.13 277.7 334.28 277.7C340.48 277.7 344.04 271.8 344.04 263.9C344.04 256.62 340.54 250.35 334.22 250.35Z" fill="white"/>
<path d="M87.5401 226.28C85.7201 220.08 79.5701 216.02 73.0001 217C65.8201 218.07 60.8701 224.76 61.9401 231.93C63.0101 239.11 69.7001 244.06 76.8801 242.99C84.0601 241.92 89.0001 235.23 87.9301 228.05C87.8501 227.45 87.7101 226.86 87.5401 226.28Z" fill="white"/>
<path d="M76.8399 146.39C69.6699 145.25 62.94 150.15 61.8 157.31C60.66 164.48 65.56 171.21 72.72 172.34C79.28 173.38 85.4699 169.38 87.3399 163.2C87.5199 162.62 87.65 162.03 87.75 161.43C88.89 154.26 84.0099 147.53 76.8399 146.39Z" fill="white"/>
<path d="M148.64 201.46C152.12 200.94 154.51 197.7 153.99 194.23C153.47 190.75 150.23 188.36 146.76 188.88C143.28 189.4 140.89 192.64 141.4 196.11C141.93 199.58 145.17 201.97 148.64 201.46Z" fill="white"/>
</svg>
