<svg width="492" height="491" viewBox="0 0 492 491" fill="none" xmlns="http://www.w3.org/2000/svg">
<path d="M244.25 98.2402C163.01 98.2402 96.9199 164.33 96.9199 245.57C96.9199 326.81 163.01 392.9 244.25 392.9C325.49 392.9 391.58 326.81 391.58 245.57C391.57 164.33 325.48 98.2402 244.25 98.2402ZM253 323.63V353H234V324.47C218 324.19 201.34 319.15 191.55 312.16L198.61 293.42C208.68 300.13 223.18 305.45 238.84 305.45C258.7 305.45 272.02 293.98 272.02 278.03C272.02 262.64 260.89 253.13 240.19 244.74C211.65 233.55 193.6 220.68 193.6 196.34C193.6 173.12 210.99 155.49 234.99 151.3V124H254.99V150.18C271.99 150.74 282.77 155.22 290.89 159.97L283.42 178.43C277.54 175.07 266.07 168.92 248.17 168.92C226.63 168.92 218.52 181.79 218.52 192.98C218.52 207.53 228.87 214.8 253.21 224.87C282.03 236.62 296.88 251.17 296.88 276.07C296.89 298.17 280 318.88 253 323.63Z" fill="white"/>
<path d="M245.8 0.319824C110.35 0.319824 0.549805 110.12 0.549805 245.57C0.549805 381.02 110.35 490.82 245.8 490.82C381.25 490.82 491.05 381.02 491.05 245.57C491.05 110.12 381.25 0.319824 245.8 0.319824ZM364.15 365.47C332.12 397.5 289.54 415.14 244.25 415.14C198.96 415.14 156.38 397.5 124.35 365.47C92.3198 333.44 74.6898 290.86 74.6898 245.57C74.6898 200.28 92.3298 157.69 124.35 125.67C156.38 93.6399 198.96 76 244.25 76C289.54 76 332.12 93.6399 364.15 125.67C396.18 157.7 413.81 200.28 413.81 245.57C413.81 290.86 396.18 333.44 364.15 365.47Z" fill="white"/>
</svg>
