<svg width="492" height="492" viewBox="0 0 492 492" fill="none" xmlns="http://www.w3.org/2000/svg">
<path d="M246.2 0.799805C110.75 0.799805 0.950195 110.6 0.950195 246.05C0.950195 381.5 110.75 491.3 246.2 491.3C381.65 491.3 491.45 381.5 491.45 246.05C491.45 110.6 381.65 0.799805 246.2 0.799805ZM431 186.74C431 186.76 431 186.79 431 186.81C431 186.87 430.99 186.92 430.99 186.98C430.99 187.01 430.99 187.04 430.98 187.08C430.97 187.19 430.96 187.31 430.96 187.42C430.95 187.53 430.94 187.65 430.93 187.76C430.92 187.87 430.9 187.99 430.89 188.1C430.89 188.12 430.88 188.14 430.88 188.16C430.87 188.21 430.86 188.27 430.86 188.32C430.85 188.36 430.85 188.4 430.84 188.44C430.82 188.55 430.8 188.67 430.78 188.78C430.76 188.89 430.74 189.01 430.71 189.12C430.69 189.23 430.66 189.34 430.64 189.45C430.64 189.47 430.63 189.48 430.63 189.5C430.62 189.55 430.61 189.6 430.59 189.65C430.58 189.7 430.57 189.74 430.56 189.79C430.53 189.9 430.5 190.01 430.48 190.12C430.45 190.23 430.41 190.35 430.38 190.46C430.35 190.57 430.32 190.67 430.28 190.78C430.28 190.79 430.27 190.81 430.27 190.82C430.25 190.87 430.24 190.91 430.22 190.96C430.2 191.01 430.18 191.07 430.17 191.12C430.13 191.23 430.1 191.33 430.06 191.44C430.02 191.55 429.97 191.66 429.92 191.78C429.88 191.88 429.84 191.99 429.79 192.09C429.79 192.1 429.78 192.11 429.78 192.12C429.76 192.16 429.74 192.21 429.72 192.25C429.69 192.31 429.67 192.37 429.64 192.43C429.59 192.53 429.55 192.63 429.5 192.73C429.44 192.84 429.39 192.95 429.33 193.06C429.28 193.16 429.23 193.25 429.18 193.35C429.18 193.36 429.17 193.36 429.17 193.37C429.15 193.4 429.13 193.44 429.11 193.47C429.07 193.54 429.03 193.61 428.99 193.68C428.94 193.77 428.88 193.86 428.83 193.96C428.76 194.07 428.69 194.18 428.62 194.29C428.56 194.38 428.51 194.47 428.45 194.56L428.44 194.57C428.42 194.59 428.4 194.62 428.39 194.64C428.33 194.72 428.27 194.8 428.21 194.89C428.15 194.97 428.09 195.06 428.03 195.14C427.94 195.25 427.85 195.36 427.76 195.48C427.7 195.56 427.64 195.63 427.58 195.71C427.57 195.73 427.55 195.74 427.54 195.75C427.45 195.86 427.35 195.96 427.26 196.07C427.21 196.13 427.16 196.19 427.1 196.25C426.93 196.43 426.76 196.6 426.59 196.78L392.03 230.45L236.11 382.38L201.55 416.05C201.37 416.22 201.2 416.39 201.01 416.55C200.95 416.6 200.88 416.66 200.82 416.71C200.71 416.8 200.6 416.9 200.49 416.99C200.48 417 200.47 417.01 200.46 417.02C200.46 417.02 200.46 417.02 200.45 417.03C200.37 417.09 200.29 417.15 200.21 417.21C200.1 417.3 199.99 417.38 199.87 417.47C199.78 417.53 199.7 417.59 199.61 417.65C199.53 417.71 199.45 417.76 199.36 417.82C199.34 417.83 199.32 417.85 199.29 417.87L199.28 417.88C199.19 417.94 199.1 417.99 199 418.05C198.89 418.12 198.78 418.19 198.67 418.25C198.57 418.31 198.48 418.36 198.38 418.41C198.31 418.45 198.24 418.49 198.17 418.52C198.14 418.54 198.1 418.56 198.07 418.57C198.06 418.57 198.06 418.58 198.05 418.58C197.95 418.63 197.85 418.68 197.75 418.73C197.64 418.78 197.53 418.84 197.42 418.89C197.32 418.94 197.21 418.98 197.11 419.03C197.05 419.06 196.99 419.08 196.94 419.1C196.9 419.12 196.85 419.14 196.81 419.16C196.8 419.16 196.79 419.17 196.79 419.17C196.68 419.21 196.58 419.25 196.47 419.29C196.36 419.33 196.25 419.37 196.14 419.41C196.03 419.45 195.92 419.48 195.81 419.52C195.76 419.54 195.71 419.55 195.66 419.57C195.61 419.59 195.56 419.6 195.52 419.62C195.51 419.62 195.5 419.63 195.48 419.63C195.37 419.66 195.26 419.69 195.14 419.72C195.03 419.75 194.92 419.78 194.81 419.81C194.7 419.84 194.58 419.86 194.47 419.89C194.43 419.9 194.38 419.91 194.34 419.92C194.29 419.93 194.24 419.94 194.19 419.95C194.17 419.95 194.16 419.96 194.14 419.96C194.02 419.98 193.91 420 193.79 420.02C193.68 420.04 193.57 420.06 193.46 420.08C193.34 420.1 193.22 420.11 193.11 420.13C193.07 420.13 193.04 420.14 193 420.14C192.95 420.15 192.9 420.15 192.84 420.16C192.82 420.16 192.8 420.16 192.78 420.17C192.66 420.18 192.54 420.19 192.42 420.2C192.31 420.21 192.2 420.22 192.1 420.22C191.98 420.23 191.86 420.23 191.74 420.24C191.71 420.24 191.68 420.24 191.64 420.24C191.59 420.24 191.54 420.24 191.48 420.24C191.46 420.24 191.43 420.24 191.41 420.24C191.29 420.24 191.17 420.24 191.05 420.24C190.94 420.24 190.83 420.24 190.73 420.23C190.61 420.23 190.49 420.22 190.37 420.21C190.34 420.21 190.32 420.21 190.29 420.2C190.24 420.2 190.18 420.19 190.13 420.19C190.1 420.19 190.07 420.19 190.05 420.18C189.93 420.17 189.81 420.16 189.69 420.15C189.58 420.14 189.48 420.13 189.37 420.11C189.25 420.1 189.13 420.08 189.01 420.06C188.99 420.06 188.97 420.05 188.95 420.05C188.9 420.04 188.84 420.03 188.79 420.02C188.76 420.01 188.73 420.01 188.69 420C188.57 419.98 188.45 419.96 188.34 419.94C188.23 419.92 188.13 419.9 188.02 419.87C187.9 419.84 187.79 419.82 187.67 419.79C187.65 419.79 187.64 419.78 187.62 419.78C187.57 419.77 187.52 419.75 187.47 419.74C187.43 419.73 187.39 419.72 187.35 419.71C187.24 419.68 187.12 419.65 187.01 419.61C186.9 419.58 186.79 419.54 186.69 419.51C186.58 419.47 186.47 419.44 186.36 419.4C186.35 419.39 186.33 419.39 186.32 419.38C186.27 419.36 186.22 419.34 186.17 419.33C186.12 419.31 186.08 419.3 186.03 419.28C185.92 419.24 185.82 419.2 185.71 419.16C185.6 419.12 185.49 419.07 185.38 419.02C185.28 418.98 185.17 418.93 185.07 418.89C185.06 418.88 185.05 418.88 185.04 418.87C184.99 418.85 184.95 418.83 184.9 418.8C184.84 418.77 184.79 418.75 184.73 418.72C184.63 418.67 184.54 418.63 184.44 418.58C184.32 418.52 184.21 418.46 184.09 418.39C184 418.34 183.91 418.29 183.82 418.24C183.81 418.23 183.8 418.23 183.79 418.22C183.75 418.2 183.71 418.17 183.67 418.14C183.6 418.1 183.53 418.06 183.46 418.01C183.38 417.96 183.3 417.91 183.22 417.86C183.09 417.78 182.96 417.69 182.84 417.6C182.77 417.55 182.71 417.51 182.64 417.46C182.63 417.46 182.63 417.45 182.62 417.45C182.58 417.42 182.54 417.39 182.51 417.36C182.42 417.29 182.32 417.22 182.23 417.15C182.18 417.11 182.13 417.07 182.08 417.03C181.92 416.91 181.77 416.77 181.61 416.64C181.58 416.62 181.55 416.59 181.53 416.57C181.52 416.56 181.5 416.55 181.49 416.53C181.33 416.38 181.16 416.24 181 416.08C181 416.08 180.99 416.08 180.99 416.07C180.87 415.95 180.75 415.84 180.63 415.72L152.97 387.33L130.23 363.99L79.8303 312.26C79.7103 312.14 79.6002 312.02 79.4902 311.89C74.1402 306.03 74.3803 296.93 80.1003 291.35L305.13 72.0797C310.86 66.4997 319.96 66.4998 325.68 71.9998C325.8 72.1198 325.92 72.2297 326.04 72.3497L426.84 175.8C426.96 175.92 427.07 176.04 427.18 176.17C427.18 176.17 427.18 176.17 427.19 176.18C427.34 176.34 427.48 176.51 427.63 176.68C427.64 176.69 427.65 176.71 427.67 176.73C427.69 176.76 427.71 176.79 427.74 176.82C427.87 176.98 427.99 177.14 428.12 177.3C428.16 177.35 428.19 177.4 428.23 177.45C428.3 177.55 428.37 177.65 428.44 177.74C428.47 177.78 428.49 177.82 428.52 177.85C428.52 177.86 428.53 177.86 428.54 177.87C428.58 177.94 428.63 178 428.67 178.07C428.76 178.2 428.84 178.33 428.92 178.47C428.97 178.55 429.01 178.62 429.05 178.7C429.09 178.77 429.13 178.85 429.18 178.92C429.2 178.96 429.23 179.01 429.25 179.05C429.26 179.06 429.26 179.07 429.27 179.08C429.32 179.17 429.36 179.25 429.4 179.34C429.46 179.46 429.52 179.58 429.58 179.7C429.62 179.79 429.67 179.89 429.71 179.98C429.74 180.04 429.76 180.1 429.79 180.16C429.81 180.21 429.83 180.25 429.85 180.3C429.85 180.31 429.86 180.32 429.87 180.34C429.91 180.44 429.95 180.54 429.99 180.64C430.04 180.76 430.08 180.87 430.13 180.99C430.17 181.09 430.2 181.2 430.24 181.3C430.26 181.35 430.27 181.4 430.29 181.45C430.31 181.5 430.32 181.55 430.34 181.6C430.35 181.62 430.35 181.63 430.36 181.65C430.39 181.76 430.42 181.86 430.46 181.97C430.49 182.08 430.53 182.2 430.56 182.31C430.59 182.42 430.62 182.53 430.64 182.64C430.65 182.68 430.66 182.72 430.67 182.76C430.68 182.82 430.7 182.87 430.71 182.93C430.71 182.95 430.72 182.97 430.72 182.98C430.74 183.09 430.77 183.2 430.79 183.31C430.81 183.42 430.83 183.54 430.85 183.65C430.87 183.76 430.89 183.88 430.9 183.99C430.9 184.02 430.91 184.06 430.91 184.09C430.92 184.15 430.93 184.2 430.93 184.26C430.93 184.28 430.94 184.3 430.94 184.33C430.95 184.44 430.97 184.56 430.98 184.67C430.99 184.78 431 184.9 431.01 185.01C431.02 185.12 431.03 185.24 431.03 185.35C431.03 185.38 431.03 185.41 431.03 185.44C431.03 185.5 431.03 185.55 431.04 185.61C431.04 185.64 431.04 185.66 431.04 185.69C431.04 185.81 431.05 185.92 431.05 186.04C431.05 186.15 431.05 186.27 431.05 186.38C431.01 186.51 431 186.63 431 186.74Z" fill="white"/>
<path d="M390.58 160.77L340.14 109.01C334.55 111.62 328.44 113.62 321.93 114.87C308.43 117.46 295.3 116.41 284.11 112.52L121.01 271.44C124.6 282.73 125.31 295.88 122.38 309.31C120.68 317.08 117.91 324.25 114.33 330.62L163.19 380.76C169.64 377.35 176.89 374.76 184.7 373.27C198.17 370.69 211.27 371.73 222.45 375.59L385.59 216.62C382.02 205.35 381.32 192.23 384.25 178.82C385.66 172.35 387.83 166.3 390.58 160.77ZM294.93 288.87C282.68 300.81 266.57 307.35 249.5 307.35C249.21 307.35 248.92 307.35 248.63 307.34C231.23 307.11 214.97 300.13 202.83 287.67C190.69 275.21 184.13 258.77 184.35 241.37C184.58 223.97 191.56 207.71 204.02 195.57C216.48 183.43 232.91 176.86 250.32 177.09C267.72 177.32 283.98 184.3 296.12 196.76C308.26 209.22 314.82 225.66 314.6 243.06C314.38 260.46 307.39 276.72 294.93 288.87Z" fill="white"/>
<path d="M250.19 187C249.95 187 249.7 187 249.45 187C234.97 187 221.32 192.55 210.93 202.67C200.37 212.96 194.44 226.75 194.25 241.5C194.06 256.25 199.62 270.19 209.92 280.75C220.21 291.31 234 297.24 248.75 297.43C263.52 297.64 277.44 292.06 288 281.76C298.56 271.47 304.49 257.68 304.68 242.93C304.87 228.18 299.31 214.24 289.01 203.68C278.73 193.12 264.94 187.2 250.19 187ZM283.73 277.37C264.32 296.29 233.24 295.88 214.33 276.47C195.42 257.06 195.82 225.98 215.23 207.07C234.64 188.15 265.72 188.56 284.63 207.97C303.54 227.38 303.14 258.45 283.73 277.37Z" fill="white"/>
<path d="M283.01 246.72C283.11 241.6 281.16 236.99 277.15 232.87C273.59 229.22 269.57 227.32 265.09 227.18C260.6 227.04 254.92 228.55 248.03 231.73C244.67 233.33 241.96 234.5 239.91 235.24C237.86 235.98 236.29 236.36 235.2 236.39C234.11 236.42 233.17 236.04 232.38 235.23C231.47 234.3 231.18 233.21 231.52 231.95C231.85 230.7 233 229.12 234.96 227.2C239.08 223.19 244.82 219.84 252.18 217.15L246.35 202.41C239.32 205.1 233.24 208.69 228.1 213.17L220.22 205.09L212.61 212.5L220.56 220.66C215.89 226.26 213.37 231.47 212.99 236.27C212.61 241.08 214.39 245.51 218.33 249.55C220.91 252.2 223.5 253.98 226.1 254.91C228.7 255.84 231.66 256.09 234.96 255.66C238.27 255.23 242.04 254.08 246.27 252.2C250.02 250.51 253.05 249.22 255.37 248.34C257.69 247.46 259.48 246.97 260.72 246.85C261.97 246.73 262.98 247.08 263.77 247.89C264.92 249.07 265.25 250.38 264.77 251.82C264.29 253.27 263.01 255 260.93 257.03C258.41 259.49 255.01 261.86 250.73 264.14C246.45 266.42 242.19 268.22 237.94 269.54L249.83 281.74C256.91 279.05 263.25 275.21 268.85 270.23L278.22 279.84L285.83 272.43L276.25 262.6C280.66 257.14 282.91 251.84 283.01 246.72Z" fill="white"/>
</svg>
