<svg width="492" height="491" viewBox="0 0 492 491" fill="none" xmlns="http://www.w3.org/2000/svg">
<path d="M245.92 0.0400391C110.47 0.0400391 0.669922 109.84 0.669922 245.29C0.669922 380.74 110.47 490.54 245.92 490.54C381.37 490.54 491.17 380.74 491.17 245.29C491.17 109.84 381.37 0.0400391 245.92 0.0400391ZM412.7 314.68C411.14 320.43 405.23 323.86 399.48 322.3L373.89 315.15C366.47 328.64 359.33 339.34 346.37 350.71L346.43 350.82L359.78 374.07C362.75 379.24 360.14 385.67 354.97 388.64L314.54 411.86C309.37 414.83 305.32 412.22 302.35 407.05L289 383.8C272.54 389.06 257.93 390.56 242.96 390.04L242.36 390.48L235.08 416.52C233.52 422.27 227.46 425.76 221.71 424.2L176.63 412.07C170.88 410.52 167.44 404.61 169 398.86L175.64 372.39C162.15 364.97 150.94 356.95 139.57 344L139.46 344.06L116.21 357.41C111.04 360.38 106.46 359.04 103.49 353.87L80.27 313.44C77.3 308.27 78.06 302.95 83.22 299.98L106.47 286.63C101.21 270.17 100.21 256.44 100.73 241.47L100.54 241.31L74.6201 234.25C68.8701 232.69 65.45 226.74 67 220.98L79.1599 175.96C80.7199 170.21 86.6299 166.8 92.3899 168.35L119.29 174.76C126.71 161.27 135.16 149.83 148.11 138.46L148.05 138.35L134.7 115.1C131.73 109.93 131.22 104.08 136.39 101.11L176.82 77.8901C181.99 74.9201 189.17 76.95 192.13 82.11L205.48 105.36C221.94 100.1 235.25 99.35 250.21 99.86L250.16 99.79L257.12 73.9401C258.67 68.1901 264.58 64.79 270.33 66.35L315.32 78.5301C321.07 80.0901 324.47 86.0101 322.91 91.7701L315.99 117.8C329.48 125.22 342.09 135.72 351.78 145.75L351.88 145.69L375.13 132.34C380.3 129.37 388 130.13 390.97 135.3L414.19 175.73C417.16 180.9 413.28 186.81 408.11 189.78L384.86 203.13C390.12 219.59 391.38 233.78 390.86 248.74L391.18 249.13L417.16 256.31C422.91 257.86 426.37 263.88 424.81 269.63L412.7 314.68Z" fill="white"/>
<path d="M304.12 211.58C301.23 206.56 297.8 202.05 293.93 198.08C293.16 197.29 292.37 196.52 291.56 195.77C290.35 194.65 289.1 193.57 287.82 192.55C286.97 191.87 286.1 191.21 285.22 190.57C284.63 190.15 284.04 189.74 283.44 189.33C282.24 188.52 281.02 187.75 279.77 187.02C278.84 186.48 277.89 185.95 276.93 185.46C276.17 185.06 275.4 184.69 274.62 184.32C273.93 184 273.24 183.68 272.55 183.38C272.06 183.17 271.56 182.96 271.06 182.76C270.06 182.36 269.06 181.98 268.04 181.63C267.53 181.45 267.02 181.28 266.51 181.12C265.49 180.79 264.46 180.48 263.42 180.2C262.9 180.06 262.38 179.93 261.86 179.8C259.77 179.29 257.66 178.88 255.54 178.57C255.01 178.49 254.47 178.42 253.94 178.36C252.87 178.23 251.8 178.13 250.73 178.05C249.66 177.97 248.58 177.92 247.5 177.89C246.96 177.88 246.42 177.87 245.88 177.87C244.8 177.87 243.72 177.89 242.63 177.95C232.34 178.44 222.01 181.32 212.47 186.8C204.79 191.21 198.31 196.91 193.15 203.47C192.68 204.07 192.21 204.68 191.76 205.3C191.34 205.87 190.93 206.45 190.53 207.03C189.3 208.82 188.17 210.67 187.12 212.56C186.6 213.51 186.1 214.46 185.63 215.43C185.16 216.4 184.71 217.38 184.28 218.36C184.07 218.85 183.86 219.35 183.66 219.85C182.5 222.73 181.54 225.69 180.78 228.7C180.03 231.71 179.48 234.77 179.14 237.87C179.01 239.11 178.91 240.35 178.84 241.59C178.65 245.33 178.76 249.09 179.2 252.85C180.23 261.61 183 270.31 187.67 278.44C197.48 295.52 213.66 306.66 231.49 310.58C233.06 310.93 234.65 311.22 236.25 311.45C236.78 311.53 237.32 311.6 237.85 311.66C238.92 311.79 239.99 311.89 241.07 311.97C244.29 312.21 247.54 312.21 250.79 311.97C251.87 311.89 252.96 311.79 254.04 311.65C262.7 310.6 271.29 307.83 279.33 303.21C288.88 297.73 296.57 290.26 302.18 281.62C302.77 280.71 303.34 279.79 303.88 278.85C304.7 277.45 305.46 276.02 306.17 274.57C306.64 273.6 307.09 272.62 307.52 271.64C307.73 271.15 307.94 270.65 308.14 270.15C308.54 269.15 308.92 268.15 309.27 267.13C309.8 265.61 310.28 264.07 310.7 262.51C310.98 261.47 311.24 260.43 311.47 259.38C312.05 256.76 312.47 254.1 312.73 251.42C312.83 250.35 312.91 249.27 312.97 248.2C313.02 247.12 313.05 246.04 313.05 244.96C313.05 243.34 312.99 241.71 312.88 240.09C312.16 230.37 309.31 220.63 304.12 211.58Z" fill="white"/>
</svg>
