<svg width="492" height="491" viewBox="0 0 492 491" fill="none" xmlns="http://www.w3.org/2000/svg">
<path d="M246.08 0.0400391C110.63 0.0400391 0.830078 109.84 0.830078 245.29C0.830078 380.74 110.63 490.54 246.08 490.54C381.53 490.54 491.33 380.74 491.33 245.29C491.33 109.84 381.53 0.0400391 246.08 0.0400391ZM382 203.67C382 211.4 377.15 217.99 370.27 220.47C369.78 220.65 369.07 220.81 368.56 220.95C368.44 220.98 369 221 368 221.03V259H368.52L369 259.16V288H368V378.1C368 387.7 360.94 396 351.34 396H145.59C135.99 396 127 387.7 127 378.1V288V259.15V220.37C120 217.82 115 211.3 115 203.66V168.8C115 158.93 123 151 132.88 151H148.71C144.83 125 154.32 108.86 154.32 108.86C158.6 92.32 170.26 93.5701 179.15 97.4301L208.38 63.36L235.84 126.52C236.54 126.13 237.33 126 238.19 126H261.88C263.34 126 264.64 126.55 265.52 127.58L293.44 63.41L322.67 97.4401C331.56 93.5801 343.23 92.3301 347.5 108.88C347.5 108.88 357 125 353.11 151H364.24C374.1 151 382 158.93 382 168.8V203.67Z" fill="white"/>
<path d="M368 259H264V288H368V259Z" fill="white"/>
<path d="M235 259H127V288H235V259Z" fill="white"/>
<path d="M264 259H235V288H264V259Z" fill="white"/>
<path d="M264 259V222V176V150.97C263 151.22 262.55 151 261.88 151H238.19C237.49 151 236.83 151 236.23 151H235V176V222V259H127V288H235V394V396H264V394V288H368V259H264Z" fill="white"/>
<path d="M214.41 151C214.37 150 213.46 149 212.33 149H209.86H209.03H186.55C185.34 149 184.34 150 184.12 151C184.09 151 184.07 151.18 184.07 151.33L180.69 176L176.78 204.73C176.78 206.09 177.8 206.8 179.05 206.26L188.12 202.37C189.37 201.83 191.43 201.81 192.69 202.32L202.74 206.36C204 206.87 205.04 206.09 205.04 204.73L208.93 176L212.33 151H214.41C214.41 151 214.41 150.99 214.41 150.98C214.41 150.98 214.41 150.99 214.41 151Z" fill="white"/>
<path d="M317.66 176L311.75 151.33C311.75 151.18 311.73 151 311.7 151C311.49 150 310.48 149 309.27 149H286.79H285.97H283.49C282.36 149 281.45 150 281.41 151C281.41 151 281.41 150.99 281.41 150.98C281.41 150.99 281.41 151 281.41 151H281.42H283.49L289.41 176L292.6 189.54C292.6 190.9 293.63 191.64 294.9 191.13L304.95 187.12C306.21 186.61 308.27 186.65 309.52 187.19L318.59 191.11C319.84 191.65 320.86 190.9 320.86 189.54L317.66 176Z" fill="white"/>
</svg>
