<svg width="492" height="491" viewBox="0 0 492 491" fill="none" xmlns="http://www.w3.org/2000/svg">
<path d="M181.19 321.03C192.04 316.01 203.42 312.43 215.18 309.93C216.42 309.66 217.53 309.44 218.55 309.25C225.58 307.91 232 307.04 240 306.64V251H171.09C171.58 276 175.06 299.91 181.19 321.03Z" fill="white"/>
<path d="M316.41 157.94C317.81 157.24 319.19 156.53 320.57 155.79C321.47 155.31 322.41 154.79 323.45 154.2C331.74 149.5 339.57 144 346.84 137.83C329.46 121.48 308.79 109.73 286.17 103.33C293.3 110.87 299.89 120.48 305.73 132.01C309.78 140 313.35 148.7 316.41 157.94Z" fill="white"/>
<path d="M227.48 98.8701C214.78 105.39 203.06 118.69 193.42 137.86C190.08 144.5 187.1 151.67 184.48 159.24C194.88 164.18 205.79 167.91 217.05 170.35C218.08 170.57 219.13 170.79 220.25 171.01C226.74 172.27 233 173.09 240 173.49V97.8601C239 97.8801 239.24 97.8801 238.87 97.9001C235.07 98.0601 231.25 98.4001 227.48 98.8701Z" fill="white"/>
<path d="M217.05 320.48C205.78 322.92 194.87 326.65 184.47 331.59C187.1 339.16 190.08 346.33 193.42 352.97C203.06 372.14 214.79 385.44 227.49 391.96C231.26 392.43 235.06 392.76 238.85 392.94C239.23 392.96 239 392.97 240 392.98V317.34C233 317.74 226.74 318.56 220.25 319.82C219.13 320.04 218.08 320.26 217.05 320.48Z" fill="white"/>
<path d="M215.16 180.9C203.4 178.41 192.03 174.62 181.18 169.59C175 190.87 171.52 215 171.08 240H240V184.18C232 183.78 225.57 182.91 218.53 181.57C217.52 181.38 216.41 181.16 215.16 180.9Z" fill="white"/>
<path d="M172.84 165.43C170.99 164.44 169.16 163.41 167.35 162.34C166.39 161.78 165.42 161.2 164.38 160.55C155.81 155.27 147.71 149.13 140.19 142.27C114.33 168.73 99.54 203 98.21 240H162.06C162.5 213 166.23 188 172.84 165.43Z" fill="white"/>
<path d="M176.19 335.85C174.92 336.55 173.66 337.27 172.41 338.01C171.47 338.57 170.52 339.14 169.59 339.72C161.88 344.51 154.6 350.01 147.85 356.11C164.12 370.5 183.67 381.38 205.44 387.52C198.31 379.97 191.72 370.36 185.87 358.83C182.25 351.68 179.02 343.99 176.19 335.85Z" fill="white"/>
<path d="M167.37 328.37C169.18 327.31 171 326.18 172.85 325.19C166.28 302.79 162.57 278 162.07 251H98.2402C99.7402 289 115.24 323.04 140.04 348.44C147.6 341.53 155.76 335.53 164.39 330.21C165.41 329.58 166.41 328.92 167.37 328.37Z" fill="white"/>
<path d="M172.41 152.82C173.66 153.56 174.92 154.27 176.19 154.97C179.02 146.83 182.25 139.14 185.87 131.99C191.7 120.48 198.28 110.88 205.4 103.33C184.23 109.34 164.68 120.05 147.99 134.84C154.69 140.88 161.93 146.34 169.58 151.09C170.52 151.69 171.46 152.26 172.41 152.82Z" fill="white"/>
<path d="M319.6 322.23C321.52 323.16 323.43 324.35 325.31 325.35C326.4 325.93 327.39 326.48 328.34 327.02C337.63 332.25 346.43 338.24 354.58 345.26C377.61 320.22 391.91 287.99 393.36 250.99H329.53C329.06 277 325.64 300.58 319.6 322.23Z" fill="white"/>
<path d="M274.81 171.58C286.26 169.61 297.37 166.34 308.01 161.82C305.18 153.29 301.89 145.25 298.18 137.86C288.54 118.69 276.72 105.4 264.02 98.8701C260.25 98.4001 256.34 98.0701 252.55 97.8901C252.11 97.8701 251 97.8601 251 97.8401V173.72C258 173.62 264.79 173.09 271.42 172.09C272.56 171.93 273.81 171.76 274.81 171.58Z" fill="white"/>
<path d="M320.58 335.04C319.2 334.3 317.81 333.58 316.41 332.89C313.34 342.13 309.78 350.82 305.72 358.83C299.88 370.36 293.29 379.98 286.15 387.52C309.4 380.97 330.11 369.01 347 353.15C339.68 346.91 331.79 341.37 323.44 336.63C322.41 336.04 321.47 335.52 320.58 335.04Z" fill="white"/>
<path d="M245.8 0.159912C110.35 0.159912 0.549805 109.96 0.549805 245.41C0.549805 380.86 110.35 490.66 245.8 490.66C381.25 490.66 491.05 380.86 491.05 245.41C491.05 109.96 381.25 0.159912 245.8 0.159912ZM362.7 362.31C331.47 393.54 289.96 410.73 245.8 410.73C201.65 410.73 160.13 393.53 128.91 362.31C97.6798 331.09 80.4898 289.57 80.4898 245.41C80.4898 201.25 97.6898 159.74 128.91 128.52C129.34 128.09 129.78 127.66 130.22 127.23C131.08 126.39 131.94 125.57 132.81 124.76C163.48 95.9699 203.62 80.0999 245.81 80.0999C289.78 80.0999 331.16 97.1699 362.33 128.15C362.46 128.27 362.58 128.4 362.7 128.52C363.43 129.25 364.14 129.98 364.85 130.72C394.69 161.66 411.12 202.39 411.12 245.42C411.12 289.57 393.92 331.08 362.7 362.31Z" fill="white"/>
<path d="M328.34 163.81C327.38 164.35 326.39 164.9 325.31 165.47C323.42 166.48 321.52 167.45 319.6 168.38C325.69 190.2 329.11 214.99 329.54 239.99H393.39C392.11 204.99 378.39 171.48 354.44 145.47C346.33 152.45 337.58 158.61 328.34 163.81Z" fill="white"/>
<path d="M311.1 172.18C299.96 176.8 288.27 180.15 276.29 182.17C275.32 182.34 274.14 182.51 272.82 182.7C265.73 183.75 258 184.3 251 184.4V240H320.51C320.09 216 316.81 192.81 311.1 172.18Z" fill="white"/>
<path d="M276.41 308.56C288.37 310.58 300.01 313.82 311.15 318.44C316.82 297.97 320.04 275 320.5 251H251V306.42C258 306.52 265.73 307.02 272.82 308.07C274.14 308.27 275.42 308.38 276.41 308.56Z" fill="white"/>
<path d="M307.96 329.01C297.32 324.49 286.16 321.21 274.73 319.25C273.7 319.07 272.56 318.9 271.43 318.73C264.79 317.73 258 317.2 251 317.1V392.99C251 392.97 252.1 392.96 252.53 392.94C256.33 392.77 260.23 392.43 264 391.96C276.7 385.44 288.51 372.14 298.15 352.97C301.87 345.58 305.12 337.54 307.96 329.01Z" fill="white"/>
</svg>
