<svg width="491" height="492" viewBox="0 0 491 492" fill="none" xmlns="http://www.w3.org/2000/svg">
<path d="M245.48 0.799805C110.03 0.799805 0.22998 110.6 0.22998 246.05C0.22998 381.5 110.03 491.3 245.48 491.3C380.93 491.3 490.73 381.5 490.73 246.05C490.73 110.6 380.93 0.799805 245.48 0.799805ZM336.42 111.01C360.27 111.01 379.61 129.41 379.61 152.1C379.61 165.05 373.31 176.61 363.47 184.14C356.07 189.8 346.66 193.19 336.43 193.19C328.22 193.19 320.54 191.01 314.01 187.22C313.26 184.7 312.34 182.21 311.26 179.77C307.88 172.17 303.05 165.35 296.9 159.49C295.8 158.44 294.66 157.43 293.5 156.47C293.34 155.03 293.26 153.57 293.26 152.09C293.23 129.41 312.57 111.01 336.42 111.01ZM249.47 152.07C274.7 152.07 295.99 168.18 302.58 190.17C303.96 194.76 304.69 199.61 304.69 204.61C304.69 221.17 296.63 235.95 284.05 245.58C276.52 251.34 267.37 255.26 257.36 256.62C254.78 256.97 252.15 257.15 249.47 257.15C246.79 257.15 244.16 256.97 241.58 256.62C231.56 255.26 222.41 251.34 214.89 245.58C202.3 235.95 194.25 221.17 194.25 204.61C194.25 199.6 194.99 194.75 196.36 190.17C202.95 168.18 224.23 152.07 249.47 152.07ZM162.51 111.01C186.36 111.01 205.7 129.41 205.7 152.1C205.7 153.58 205.62 155.04 205.46 156.48C204.29 157.45 203.16 158.45 202.06 159.5C195.91 165.36 191.07 172.18 187.7 179.78C186.62 182.22 185.7 184.7 184.95 187.23C178.41 191.02 170.74 193.2 162.53 193.2C152.29 193.2 142.89 189.81 135.49 184.15C125.65 176.62 119.35 165.06 119.35 152.11C119.33 129.41 138.66 111.01 162.51 111.01ZM86.1201 241.26C89.9801 215.21 104.06 195.17 125.54 187.6C130.33 192.14 135.91 195.63 142.11 198.13C148.58 200.73 155.44 202.01 162.51 202.01C169.53 202.01 176.34 200.69 182.76 198.13C182.53 200.28 182.42 202.45 182.42 204.63C182.42 209.56 183.01 214.47 184.19 219.23C185.33 223.86 187.03 228.38 189.23 232.66C190.83 235.76 192.7 238.74 194.81 241.57C186.23 245.06 178.38 250 171.42 256.28C163.85 263.11 157.45 271.76 152.4 281.36C151.66 282.77 150.94 284.01 150.26 286.01H78.5698L86.1201 241.26ZM142.12 378L151.78 320.53C153.57 308.4 157.1 297 162.19 287.34C162.25 287.23 162.31 287.12 162.37 287.01C171.25 270.31 184.82 257.76 202.16 251.63C202.17 251.63 202.18 251.54 202.2 251.54C203.4 252.68 204.63 253.76 205.91 254.8C206.06 254.92 206.21 255.04 206.36 255.16C206.54 255.3 206.71 255.44 206.89 255.58C207.08 255.73 207.27 255.88 207.47 256.03C207.67 256.19 207.88 256.34 208.08 256.49C208.29 256.65 208.49 256.8 208.7 256.95C213.14 260.19 217.99 262.87 223.19 264.98C223.26 265.01 223.32 265.04 223.39 265.06C225.83 266.04 228.33 266.88 230.85 267.57C231.04 267.62 231.24 267.68 231.43 267.73C231.62 267.78 231.82 267.83 232.01 267.88C232.12 267.91 232.22 267.93 232.32 267.96C232.42 267.99 232.53 268.01 232.63 268.04C232.85 268.09 233.08 268.15 233.3 268.2C233.35 268.21 233.41 268.32 233.46 268.33C236.76 269.09 240.12 270 243.52 270C245.48 270 247.46 270.14 249.45 270.14C251.44 270.14 253.42 270.01 255.38 269.84C255.38 269.84 255.4 269.82 255.41 269.82C258.23 269.58 261.01 269.17 263.75 268.6C263.76 268.6 263.77 268.59 263.77 268.59C264.4 268.46 265.02 268.32 265.65 268.17C266.29 268.02 266.92 267.86 267.55 267.69C267.91 267.59 268.27 267.49 268.63 267.39C268.72 267.37 268.81 267.34 268.9 267.31C269.9 267.02 270.89 266.71 271.87 266.38C272.48 266.17 273.1 265.95 273.71 265.73C274.32 265.5 274.93 265.27 275.53 265.03C283.47 261.84 290.59 257.27 296.72 251.47C296.73 251.47 296.74 251.48 296.76 251.48C314.22 257.65 327.84 270.17 336.72 287.03C341.81 296.69 345.33 308.41 347.13 320.54L356.79 378.01H142.12V378ZM348.83 286C348.1 284 347.34 282.52 346.54 281.01C336.85 262.6 322.28 248.94 304.23 241.58C306.3 238.8 308.13 235.78 309.71 232.73C311.91 228.45 313.61 223.89 314.75 219.26C315.92 214.5 316.52 209.57 316.52 204.64C316.52 202.45 316.41 200.27 316.18 198.12C322.6 200.68 329.41 201.98 336.43 201.98C343.5 201.98 350.36 200.66 356.83 198.06C363.03 195.56 368.61 191.99 373.4 187.45C394.89 195.03 408.97 215.22 412.82 241.27L420.38 286.01H348.83V286Z" fill="white"/>
</svg>
