<svg width="492" height="491" viewBox="0 0 492 491" fill="none" xmlns="http://www.w3.org/2000/svg">
<path d="M245.8 0.439941C110.35 0.439941 0.549805 110.24 0.549805 245.69C0.549805 381.14 110.35 490.94 245.8 490.94C381.25 490.94 491.05 381.14 491.05 245.69C491.05 110.24 381.25 0.439941 245.8 0.439941ZM373 323.7C373 323.7 372.6 378 318.26 378H282V296.18C282 296.18 282.22 259.95 246 259.95C209.77 259.95 210 296.18 210 296.18V378C188 378 173.34 378 173.34 378C173.34 378 119 378.04 119 323.7C119 269.35 119 254.18 119 254.18L143.15 235.65L245.81 156.76L348.65 235.65L373 254.18V323.7V323.7ZM398.38 245.98L245.8 125.05L93.2098 245.98C85.9298 251.76 75.3598 250.53 69.5898 243.25C63.8198 235.97 65.0298 225.39 72.3198 219.61L235.36 90.3999C241.47 85.5399 250.14 85.5399 256.25 90.3999L285.5 113.33C285.97 106.03 291.97 99.99 299.39 99.99H335.31C343.02 99.99 349.01 106.72 349.01 114.44V164.11L419.15 219.59C426.44 225.36 427.72 235.94 421.96 243.23C416.17 250.54 405.66 251.76 398.38 245.98Z" fill="white"/>
</svg>
