<svg width="492" height="492" viewBox="0 0 492 492" fill="none" xmlns="http://www.w3.org/2000/svg">
<path d="M246.08 0.679688C110.63 0.679688 0.830078 110.48 0.830078 245.93C0.830078 381.38 110.63 491.18 246.08 491.18C381.53 491.18 491.33 381.38 491.33 245.93C491.33 110.48 381.53 0.679688 246.08 0.679688ZM343 403.5C343 420.13 328.6 434 310.96 434H181.19C163.55 434 149 420.13 149 403.5V88.3599C149 71.7299 163.56 57.9998 181.19 57.9998H310.96C328.6 57.9998 343 71.7299 343 88.3599V403.5Z" fill="white"/>
<path d="M218.21 85H272.8C275.85 85 278.34 81.97 278.34 78.5C278.34 75.03 275.86 72 272.8 72H218.21C215.15 72 212.67 75.04 212.67 78.5C212.67 81.97 215.15 85 218.21 85Z" fill="white"/>
<path d="M312.11 87.6597C317.2 87.6597 321.33 83.6197 321.33 78.6497C321.33 73.6697 317.2 69.6396 312.11 69.6396C307.01 69.6396 302.88 73.6697 302.88 78.6497C302.88 83.6197 307.01 87.6597 312.11 87.6597Z" fill="white"/>
<path d="M157 391H335V96H157V391ZM246.08 176.28C282.39 176.28 311.83 205.72 311.83 242.03C311.83 278.34 282.39 307.78 246.08 307.78C209.77 307.78 180.33 278.34 180.33 242.03C180.33 205.71 209.77 176.28 246.08 176.28Z" fill="white"/>
<path d="M281 407.66C281 403.43 277.57 400 273.34 400H218.67C214.44 400 211.01 403.43 211.01 407.66V415.33C211.01 419.56 214.44 422.99 218.67 422.99H273.34C277.57 422.99 281 419.56 281 415.33V407.66Z" fill="white"/>
<path d="M254.22 217.16C256.66 217.16 258.75 216.3 260.49 214.58C262.23 212.86 263.1 210.78 263.1 208.34C263.1 205.9 262.24 203.81 260.52 202.07C258.8 200.33 256.7 199.46 254.21 199.46C251.77 199.46 249.7 200.33 248.01 202.07C246.32 203.81 245.47 205.9 245.47 208.34C245.47 210.78 246.33 212.86 248.05 214.58C249.78 216.3 251.83 217.16 254.22 217.16Z" fill="white"/>
<path d="M237.57 284.59C244.39 284.59 250.84 279.31 256.91 268.76L254.82 267.56C252.33 271.44 250.16 274.13 248.32 275.62C247.67 276.22 247 276.52 246.3 276.52C245.9 276.52 245.53 276.32 245.18 275.92C244.83 275.52 244.66 275.12 244.66 274.73C244.66 273.93 244.98 272.23 245.63 269.79L257.95 226.99H254.37L233.98 230.36L233.23 232.79C234.03 232.74 234.75 232.74 235.4 232.74C236.69 232.74 237.73 233.1 238.5 233.8C239.27 234.5 239.66 235.3 239.66 236.19C239.66 237.58 239.26 239.65 238.47 242.39L230.11 271.14C229.41 273.43 229.06 275.32 229.06 276.82C229.06 279.06 229.83 280.92 231.37 282.38C232.91 283.85 234.98 284.59 237.57 284.59Z" fill="white"/>
</svg>
