<svg width="492" height="492" viewBox="0 0 492 492" fill="none" xmlns="http://www.w3.org/2000/svg">
<path d="M280.83 356.92H228.16C225.81 356.92 223.88 354.99 223.88 352.64V351.06C223.88 348.71 225.81 346.78 228.16 346.78H280.83C283.18 346.78 285.11 348.71 285.11 351.06V352.64C285.11 354.99 283.18 356.92 280.83 356.92Z" fill="white"/>
<path d="M391 161.98C391 153.15 383.85 146 375.02 146H132.98C124.15 146 117 153.15 117 161.98V304.02C117 312.85 124.15 320 132.98 320H375.02C383.85 320 391 312.85 391 304.02V161.98ZM146 313H132V257H146V313ZM132 252V199H189V252H132ZM168 313H154V257H168V313ZM190 313H176V257H190V313ZM212 313H198V257H212V313ZM234 313H220V257H234V313ZM256 313H242V257H256V313ZM256 252H199V199H256V252ZM267 155H381V207H267V155ZM267 221H381V231H267V221ZM267 237H381V247H267V237ZM267 254H381V263H267V254ZM267 271H381V313H267V271ZM132 159H256V173H132V159ZM132 179H256V193H132V179Z" fill="white"/>
<path d="M246.08 0.919922C110.63 0.919922 0.830078 110.72 0.830078 246.17C0.830078 381.62 110.63 491.42 246.08 491.42C381.53 491.42 491.33 381.62 491.33 246.17C491.33 110.72 381.53 0.919922 246.08 0.919922ZM407 317.02C407 325.85 399.85 333 391.02 333H116.98C108.15 333 101 325.85 101 317.02V149.98C101 141.15 108.15 134 116.98 134H391.02C399.85 134 407 141.15 407 149.98V317.02ZM396.73 367C383.91 367 262.69 367 251.99 367C251.99 367 251.73 367 251.23 367C240.53 367 119.39 367 106.57 367C93.1601 367 81.3901 337 83.7201 337C85.9601 337 239.15 337 251.23 337C251.73 337 251.99 337 251.99 337C264.08 337 417.35 337 419.58 337C421.91 337 410.14 367 396.73 367Z" fill="white"/>
</svg>
