<svg width="491" height="492" viewBox="0 0 491 492" fill="none" xmlns="http://www.w3.org/2000/svg">
<path d="M245.93 127.92C207.85 127.92 176.98 158.79 176.98 196.88C176.98 234.96 207.85 265.84 245.93 265.84C284.01 265.84 314.89 234.97 314.89 196.88C314.89 158.79 284.01 127.92 245.93 127.92Z" fill="white"/>
<path d="M245.64 0.679688C110.19 0.679688 0.389648 110.48 0.389648 245.93C0.389648 381.38 110.19 491.18 245.64 491.18C381.09 491.18 490.89 381.38 490.89 245.93C490.89 110.48 381.09 0.679688 245.64 0.679688ZM370.2 258.06C347.09 309.96 319.13 343.87 319.13 343.87C301.89 370.58 245.97 436.87 245.97 436.87C245.97 436.87 190 370.57 172.76 343.87C172.76 343.87 144.78 309.96 121.67 258.06C121.67 258.06 100.86 220.93 112.03 176.61C123.2 132.29 155.13 102.93 156.08 104.44C156.08 104.44 193.69 70.5297 245.97 70.9097C298.25 70.5297 335.81 104.44 335.81 104.44C336.76 102.92 368.64 132.28 379.82 176.61C391 220.93 370.2 258.06 370.2 258.06Z" fill="white"/>
</svg>
