<svg width="492" height="491" viewBox="0 0 492 491" fill="none" xmlns="http://www.w3.org/2000/svg">
<path d="M245.92 0.159912C110.47 0.159912 0.669922 109.96 0.669922 245.41C0.669922 380.86 110.47 490.66 245.92 490.66C381.37 490.66 491.17 380.86 491.17 245.41C491.17 109.96 381.37 0.159912 245.92 0.159912ZM416.6 286.38C412.08 288.05 407.05 285.73 405.38 281.2L403.23 275.37C402.5 275.23 401.76 275.09 401.02 274.95C400.96 274.94 400.78 274.93 400.73 274.92C390.85 273.15 380 272.03 369 271.42C321 268.81 265.14 275.85 225.71 282.38L227.89 288.46C226.69 288.55 225.34 288.73 223.79 288.98C216.07 290.23 204.3 293.32 191.91 296.93L198.66 320.98L198.68 321.05L208.57 356.3L208.58 356.33L215.73 381.82C218.88 392.7 212.81 397.36 209.44 398.61L188.08 407.24C181.35 409.73 171.34 413.14 167.6 397.25L162.16 373.5L162.15 373.47L159.5 361.9L153.93 337.6L153.91 337.53L147.78 310.78C144.06 312.02 141.19 312.98 139.54 313.54C139.06 313.7 138.68 313.83 138.41 313.92C138.36 313.93 138.32 313.94 138.28 313.96C138.07 314.02 137.96 314.06 137.96 314.06L136.17 308.96C134.83 309.31 133.48 309.58 132.14 309.76C114.24 312.35 96.3501 302.2 89.8501 284.55L86.71 276.01C80.24 258.45 87.16 239.23 102.29 229.53C103.44 228.8 104.62 228.12 105.86 227.51L103.35 221.16C103.35 221.16 164.24 196.61 184.7 184C186.03 183.17 187.2 182.4 188.16 181.69L190.41 187.36C223.83 167.37 269.89 137.36 304.53 105.27C304.61 105.2 304.69 105.12 304.76 105.05C305.73 104.15 306.69 103.25 307.64 102.35C307.97 102.04 308.29 101.73 308.61 101.42C309.36 100.7 310.1 99.9899 310.84 99.2699C311.14 98.9699 311.45 98.6799 311.75 98.3799C313.76 96.3999 315.73 94.4099 317.64 92.4199C317.91 92.1399 318.17 91.8599 318.44 91.5799C319.16 90.8199 319.87 90.0699 320.57 89.3099C320.83 89.0299 321.08 88.7599 321.34 88.4799C323.19 86.4699 324.97 84.4599 326.69 82.4499C326.92 82.1799 327.15 81.9099 327.38 81.6299C328.03 80.8599 328.67 80.0999 329.3 79.3299C329.52 79.0599 329.75 78.7799 329.97 78.5099C330.13 78.3099 330.29 78.1099 330.45 77.9099L327.89 70.9499C326.22 66.4199 328.54 61.3999 333.07 59.7299C337.6 58.0599 342.62 60.3799 344.29 64.9099L370.02 134.74L387.53 128.26C388.55 127.88 389.69 128.41 390.07 129.43L394.72 164.24L413.85 193.7C414.23 194.72 413.7 195.86 412.68 196.24L395.07 202.75L421.73 275.12C423.45 279.69 421.12 284.71 416.6 286.38Z" fill="white"/>
</svg>
