<svg width="492" height="491" viewBox="0 0 492 491" fill="none" xmlns="http://www.w3.org/2000/svg">
<path d="M246.2 0.439941C110.75 0.439941 0.950195 110.24 0.950195 245.69C0.950195 381.14 110.75 490.94 246.2 490.94C381.65 490.94 491.45 381.14 491.45 245.69C491.45 110.24 381.65 0.439941 246.2 0.439941ZM174 225.3C174 190.51 201.66 162 236.45 162H239.2C239.62 161 249.1 141.53 246.17 126.07L243.01 114.32C242.52 112.49 241.94 110.71 241.26 108.94L236.86 97.3701C236.56 96.4501 236.24 95.5399 235.86 94.6499C233.79 89.7099 233.42 82.1699 234.89 76.1399C236.05 71.3799 238.87 66.44 243.26 62.78C243.71 62.41 244.78 61.4801 245.22 61.0901C247.03 59.4601 252.14 55.3499 259.71 54.1699L265 62.4199C265 62.4199 248.24 64.8 246.01 80.23C245.38 84.6 246.01 89.0199 247.73 93.1899C250.9 100.89 258.25 119.36 259.26 128.67C259.26 128.67 261.75 143.99 252.12 161.99H255.96C290.75 161.99 319.01 190.49 319.01 225.29V272.99H249.01V253.65C255.01 252.25 261.01 246.15 261.01 238.87V195.98C261.01 188.7 255.01 182.6 249.01 181.2V162H243.01V181.08C235.01 182.17 230.01 188.45 230.01 196V199.61V238.89C230.01 246.44 235.01 252.71 243.01 253.81V273H174.01V225.3H174ZM245.93 249.62C245.15 249.62 244.31 249.54 243.58 249.38C238.73 248.34 235 244.03 235 238.87V195.98C235 190.82 238.73 186.51 243.58 185.47C244.31 185.31 245.11 185.23 245.89 185.23C246.94 185.23 247.97 185.38 248.93 185.66C250.85 186.22 252.57 187.31 253.88 188.75C253.99 188.88 254.11 189.01 254.22 189.14C254.44 189.41 254.65 189.68 254.84 189.97C255.08 190.33 255.3 190.7 255.5 191.08C255.58 191.23 255.66 191.39 255.73 191.55C255.77 191.63 255.8 191.71 255.84 191.79C255.91 191.95 255.97 192.11 256.03 192.28C256.06 192.36 256.09 192.44 256.12 192.53C256.18 192.7 256.23 192.87 256.28 193.04C256.33 193.21 256.53 193.38 256.57 193.56C256.75 194.34 257 195.15 257 195.99V238.88C257 239.71 256.75 240.53 256.57 241.31C256.53 241.48 256.41 241.66 256.36 241.82C256.31 241.99 256.22 242.16 256.16 242.33C256.13 242.41 256.08 242.5 256.05 242.58C255.99 242.74 255.92 242.91 255.85 243.07C255.82 243.15 255.78 243.23 255.74 243.31C255.67 243.47 255.59 243.63 255.51 243.78C255.31 244.16 255.09 244.54 254.85 244.89C254.66 245.18 254.45 245.45 254.23 245.72C254.12 245.85 254.01 245.98 253.89 246.11C252.57 247.55 250.87 248.64 248.95 249.2C247.99 249.47 246.98 249.62 245.93 249.62ZM319 346.65C319 382.32 290.02 412 254.35 412H238.05C202.38 412 173 382.32 173 346.65V277H319V346.65V346.65Z" fill="white"/>
</svg>
