<svg width="492" height="491" viewBox="0 0 492 491" fill="none" xmlns="http://www.w3.org/2000/svg">
<path d="M246.08 0.159912C110.63 0.159912 0.830078 109.96 0.830078 245.41C0.830078 380.86 110.63 490.66 246.08 490.66C381.53 490.66 491.33 380.86 491.33 245.41C491.33 109.96 381.53 0.159912 246.08 0.159912ZM429 344H66.0001V188H124.76L220.23 92.4699C219.83 90.8799 219.6 89.1999 219.6 87.4799C219.6 76.1499 228.79 66.9499 240.12 66.9499C251.45 66.9499 260.64 76.1299 260.64 87.4599C260.64 89.4099 260.35 91.3399 259.85 93.1199L354.67 188H429V344Z" fill="white"/>
<path d="M240.12 107.98C237.43 107.98 234.86 107.5 232.5 106.56L151.12 188H328.32L247.15 106.77C244.95 107.58 242.59 107.98 240.12 107.98Z" fill="white"/>
<path d="M156.55 229.24C137.92 229.24 125.84 243.38 125.84 262.29C125.84 280.27 136.79 294.4 155.52 294.4C173.96 294.4 186.51 281.85 186.51 261.16C186.51 243.75 175.93 229.24 156.55 229.24ZM156.27 283.08C146.72 283.08 140.92 274.37 140.92 262.01C140.92 249.74 146.54 240.57 156.18 240.57C166.01 240.57 171.44 250.31 171.44 261.64C171.44 273.9 165.91 283.08 156.27 283.08Z" fill="white"/>
<path d="M234.44 234.86C230.23 231.49 224.02 229.8 215.22 229.8C206.51 229.8 200 230.36 196 231.11V293H210V270.81C211 271 213 271.09 214.87 271.09C223.3 271.09 230.51 269.03 235.38 264.44C239.13 260.88 241.19 255.64 241.19 249.46C241.19 243.28 238.47 238.04 234.44 234.86ZM214.78 260.14C212.72 260.14 211 260.05 210 259.77V241.14C211 240.86 213 240.58 215.9 240.58C223.02 240.58 227.04 244.04 227.04 249.85C227.04 256.3 222.36 260.14 214.78 260.14Z" fill="white"/>
<path d="M265 267H288V255H265V242H289V230H250V293H291V282H265V267Z" fill="white"/>
<path d="M339 248.71C339 258.17 339.67 267 340.61 275H340.33C337.52 268 333.78 259.9 330.03 253.25L316.92 230H300V293H313V274.37C313 264.07 313 255.18 312.62 246.84L312.99 246.75C316.08 254.15 320.25 262.1 323.99 268.85L337.52 293.01H353V230.01H339V248.71Z" fill="white"/>
</svg>
