<svg width="491" height="492" viewBox="0 0 491 492" fill="none" xmlns="http://www.w3.org/2000/svg">
<path d="M245.48 0.919922C110.03 0.919922 0.22998 110.72 0.22998 246.17C0.22998 381.62 110.03 491.42 245.48 491.42C380.93 491.42 490.73 381.62 490.73 246.17C490.73 110.72 380.93 0.919922 245.48 0.919922ZM369.59 365.72L350.71 378.06L343.33 382.88L342.64 383.33L340.89 384.47L303.24 409.07C296.38 413.56 290.24 416.34 289.55 415.28L176.79 242.76C176.69 242.61 162.5 184.22 153.78 144.23C151.21 133.12 143.23 97.4699 145.8 95.2999C148.25 93.2299 190.08 124.52 190.08 124.52L190.03 124.55C222.68 148.34 267.91 182.99 268 183.14L380.76 355.66C381.47 356.73 376.45 361.23 369.59 365.72Z" fill="white"/>
<path d="M349.19 368.51L240.56 200.89L209.01 221.67L317.64 389.29L349.19 368.51Z" fill="white"/>
<path d="M254.38 180.75C254.38 180.75 216.22 150.76 189.55 129.34L160.55 149.97C160.55 149.97 178.98 228.37 180.28 234.09L254.38 180.75Z" fill="white"/>
</svg>
