<svg width="491" height="491" viewBox="0 0 491 491" fill="none" xmlns="http://www.w3.org/2000/svg">
<path d="M245.36 0.319824C109.91 0.319824 0.109863 110.12 0.109863 245.57C0.109863 381.02 109.91 490.82 245.36 490.82C380.81 490.82 490.61 381.02 490.61 245.57C490.61 110.12 380.81 0.319824 245.36 0.319824ZM427 217.63V269.85V269.93V270.01C427 270.06 427.17 270.11 427.17 270.17C427.08 273.14 425.8 275.49 424.12 275.49C423.81 275.49 423.56 275.59 423.28 275.44C422.57 275.68 421.86 276 421.05 276H404.62C404.62 276 404.7 275.83 404.69 275.84C395.69 301.28 376 318.68 351 331.02V342H350.76C350.22 347 346.54 351.41 341.49 353.27L341.48 357H341H341.41C341.35 368 331.37 376.88 319.06 376.88C306.75 376.88 296.76 368 296.71 357H296.7L296.62 344.35C295.36 344.4 248.59 344.36 221.07 344.16C220.94 345.95 220.77 347.82 220.62 348.24C218.72 353.71 213.19 357.7 206.43 357.7C204.82 357.7 203 357.48 202 357.06V357.13V357H201.63C201.57 368 191.59 376.88 179.28 376.88C166.97 376.88 156.99 368 156.93 357L157.15 330.56C105.78 312.78 96.6898 257.39 96.6898 257.39C96.3098 253.58 96.1099 250.06 96.0299 246.75C90.7399 245.4 85.0999 242.3 80.3599 238.61C71.2999 246.15 66.1898 246.25 64.4498 245.96C63.8898 245.87 63.4499 245.42 63.3899 244.86C63.3899 244.84 63.3899 244.83 63.3799 244.81C63.2299 243.29 64.2999 241.91 65.7699 241.52C70.5299 240.27 74.7399 237.86 77.1099 235.83C76.7299 235.49 76.2999 235.1 75.7599 234.62L75.1599 234.08C64.9499 225.07 59.3899 204.77 74.7399 205.25C79.6499 205.67 85.0698 208.53 88.5698 212.1C92.5898 216.21 94.7699 222 92.0499 228H92.0399C89.8599 232 86.3499 234.26 83.5299 235.89C88.2899 238.84 92.4699 240.17 96.0399 240.54C96.3799 228.57 98.43 220.6 99.58 216.69C112.72 171.96 157.76 138.79 211.65 137.7C207.86 132.12 205.64 125.38 205.64 118.13C205.64 98.8799 221.25 83.2598 240.5 83.2598C259.76 83.2598 275.37 98.8701 275.37 118.12C275.37 125.14 273.29 131.66 269.72 137.13L290.48 136.94C290.48 127.1 301.15 119.12 314.4 118.98C314.48 118.97 314.58 118.99 314.67 118.99H315V138.62C316 138.79 316.99 138.96 318.03 139.16C352.94 145.54 392.36 176.73 404.72 211.74C404.73 211.74 404.71 211.77 404.71 211.77C404.72 211.83 404.72 211.99 404.74 211.99H421.05C421.76 211.99 422.44 212.06 423.07 212.25C423.42 212.01 423.8 211.85 424.2 211.85C425.07 211.85 425.68 212.47 426.25 213.49C426.82 214.51 426.99 215.9 426.99 217.47V217.55V217.63H427Z" fill="white"/>
<path d="M259.26 200.78C259.26 203.6 259.55 206.36 260.11 209.03C266.12 212.02 273.04 213.56 280.42 213.74C302.34 214.25 307.78 201.37 308.32 203.8L308.33 155.35C281.07 156.2 259.26 176.21 259.26 200.78Z" fill="white"/>
<path d="M353.33 200C345.17 200 338.55 205.91 338.55 213.21C338.55 220.5 345.17 226.42 353.33 226.42C361.5 226.42 368.12 220.5 368.12 213.21C368.12 205.91 361.5 200 353.33 200ZM357.05 212.49C355.16 212.49 353.62 211.12 353.62 209.43C353.62 207.74 355.15 206.37 357.05 206.37C358.94 206.37 360.48 207.74 360.48 209.43C360.47 211.12 358.94 212.49 357.05 212.49Z" fill="white"/>
<path d="M281.69 149H256.89C252 151 246.43 153.09 240.5 153.09C234.58 153.09 229 151 224.11 149H206.09C204.85 149 203.73 149.53 202.91 150.47C202.45 151.01 202.09 151.68 201.86 152.41C202.47 153.91 204.12 155 206.08 155H281.67C283.63 155 285.28 153.95 285.89 152.45C285.29 150.43 283.64 149 281.69 149Z" fill="white"/>
<path d="M240.5 89.8901C224.91 89.8901 212.28 102.53 212.28 118.11C212.28 128.55 217.96 137.67 226.39 142.55C230.54 144.95 235.36 146.33 240.5 146.33C245.83 146.33 250.81 144.85 255.06 142.29C263.25 137.35 268.72 128.37 268.72 118.11C268.72 102.53 256.09 89.8901 240.5 89.8901ZM230.96 104.96C232.65 103.48 235 102.56 239 102.21V97H244V102.17C246 102.35 249.9 103.13 253.11 104.51L250.03 111.32C246.7 109.82 243.58 109.07 240.9 109.07C239.63 109.07 238.67 109.23 238.15 109.54C237.63 109.85 237.34 110.31 237.34 110.92C237.34 111.45 237.51 111.88 237.89 112.22C238.26 112.56 238.91 112.94 239.83 113.37C240.75 113.79 242.03 114.28 243.67 114.84C247 116.02 249.39 117.36 250.84 118.87C252.29 120.38 253.01 122.32 253.01 124.69C253.01 127.37 252.63 129.54 250.93 131.21C249.23 132.88 245.98 133.92 243.98 134.32V141.01H238.98V134.47C234.98 134.31 230.98 133.53 228.98 132.13V124.19C229.98 125.13 232.35 125.92 234.52 126.54C236.69 127.17 238.35 127.48 239.99 127.48C241.34 127.48 242.21 127.32 242.84 126.99C243.47 126.66 243.72 126.12 243.72 125.35C243.72 124.82 243.46 124.38 243.01 124.01C242.56 123.64 241.78 123.23 240.72 122.77C239.66 122.31 238.22 121.75 236.42 121.1C234.4 120.35 232.76 119.51 231.52 118.58C230.28 117.65 229.37 116.6 228.81 115.45C228.24 114.3 228.06 112.86 228.06 111.14C228.08 108.5 229.27 106.45 230.96 104.96Z" fill="white"/>
</svg>
