<svg width="491" height="492" viewBox="0 0 491 492" fill="none" xmlns="http://www.w3.org/2000/svg">
<path d="M245.64 0.799805C110.19 0.799805 0.389648 110.6 0.389648 246.05C0.389648 381.5 110.19 491.3 245.64 491.3C381.09 491.3 490.89 381.5 490.89 246.05C490.89 110.6 381.09 0.799805 245.64 0.799805ZM430.76 154H412V147H371.53L330.5 187.96C331.59 188.93 332.26 190.15 332.26 191.57C332.26 194.63 329.2 197 325.44 197H324.48C324.5 198 324.48 198.33 324.38 198.97L308.85 307.77C308.74 308.51 308.53 309.22 308.23 309.91C319.51 315.21 327.29 326.3 327.29 339.1C327.29 347.9 323.61 355.9 317.64 361.76C321.69 366.26 324.15 372.1 324.15 378.49C324.15 392.68 312.06 404.19 297.15 404.19C282.24 404.19 270.15 392.68 270.15 378.49C270.15 376.68 270.35 374.92 270.72 373.22L154.74 381.44C153.32 390.35 145.27 397.18 135.51 397.18C124.76 397.18 116.04 388.88 116.04 378.65C116.04 368.42 124.76 360.12 135.51 360.12C145 360.12 152.89 366.58 154.62 375.13L273.14 366.73C277.63 358.46 286.69 352.79 297.15 352.79C303.02 352.79 308.45 354.58 312.88 357.61C317.88 352.87 320.98 346.32 320.98 339.11C320.98 328.17 313.86 318.78 303.77 314.86C301.59 316.2 298.92 317.01 296.13 317.01H85.7798C79.4898 317.01 73.7998 312.89 73.0598 307.7L57.5298 199.03C57.4398 198.39 57.4197 198.01 57.4297 197.01H56.4497C52.6797 197.01 49.6296 194.57 49.6296 191.51C49.6296 188.45 52.6897 186.01 56.4497 186.01H322.54L368.65 140.01H412V132.01H430.76C437.09 132.01 442.23 136.98 442.23 143.01C442.23 149.04 437.09 154 430.76 154Z" fill="white"/>
<path d="M98.6499 218.57C98.0999 213.07 92.7099 208.57 86.6299 208.57C80.5499 208.57 76.1902 213.07 76.8702 218.57L86.7701 297.93C87.3401 302.46 92.1999 306.1 97.6299 306.1C103.06 306.1 107.11 302.46 106.65 297.93L98.6499 218.57Z" fill="white"/>
<path d="M138.91 208.57C132.83 208.57 128.21 213.07 128.59 218.57L134 297.93C134.31 302.46 138.97 306.1 144.4 306.1C149.84 306.1 154.08 302.46 153.88 297.93L150.36 218.57C150.12 213.07 144.99 208.57 138.91 208.57Z" fill="white"/>
<path d="M191.18 208.57C185.1 208.57 180.23 213.07 180.29 218.57L181.21 297.93C181.26 302.46 185.71 306.1 191.15 306.1C196.59 306.1 201.04 302.46 201.1 297.93L202.06 218.57C202.13 213.07 197.26 208.57 191.18 208.57Z" fill="white"/>
<path d="M243.46 208.57C237.38 208.57 232.25 213.07 232 218.57L228.44 297.93C228.24 302.46 232.48 306.1 237.92 306.1C243.36 306.1 248.02 302.46 248.33 297.93L253.78 218.57C254.15 213.07 249.53 208.57 243.46 208.57Z" fill="white"/>
<path d="M295.73 208.57C289.65 208.57 284.27 213.07 283.71 218.57L275.66 297.93C275.2 302.46 279.24 306.1 284.68 306.1C290.12 306.1 294.98 302.46 295.55 297.93L305.49 218.57C306.17 213.07 301.81 208.57 295.73 208.57Z" fill="white"/>
</svg>
