<svg width="491" height="491" viewBox="0 0 491 491" fill="none" xmlns="http://www.w3.org/2000/svg">
<path d="M251.14 127.68L225.79 166.95L247.15 187.57L230.16 190.35L226.19 191C224.95 191.19 224.92 191.19 224.35 191.3L157.94 202.17L153.61 202.98L153.77 203.08L189.89 225.25L149.44 303.98L196.12 306.28L203.29 277.46L214.2 290.77L216.75 293.88C217.53 294.86 217.55 294.89 217.93 295.32L260.57 347.38L261.6 307.94L350.01 303.53L328.62 261.97L300.09 270.2L306.15 254.09L307.57 250.32C308.02 249.15 308.04 249.12 308.23 248.58L331.94 185.6L332.51 183.98L299.08 202.08L251.14 127.68Z" fill="white"/>
<path d="M245.64 0.319824C110.19 0.319824 0.389648 110.12 0.389648 245.57C0.389648 381.02 110.19 490.82 245.64 490.82C381.09 490.82 490.89 381.02 490.89 245.57C490.89 110.12 381.09 0.319824 245.64 0.319824ZM431.15 269.08L412.19 300.46L405.06 313.06C404.08 314.89 401.67 319.18 400.76 320.66L371.52 372.33C370.62 373.85 369.43 375.96 368.77 377.19L364.06 385.51C364.06 385.51 359.27 394.81 346.95 398.36C344.95 398.91 344.05 399.1 342.75 399.27C341.32 399.49 339.85 399.66 338.26 399.71C319.41 400.31 259.19 400.85 259.19 400.85L260.05 367.81L260.04 367.82L203.99 431.34L199.99 404.56C199.99 404.56 182.57 404.92 166.09 403.86C149.6 402.79 138.66 391.48 138.66 391.48L121 359.35L113.66 346.87C112.57 345.11 110.06 340.87 109.23 339.34L79.1497 288.16C78.2897 286.62 77.0498 284.54 76.3198 283.34L71.4797 275.1C71.4797 275.1 65.8197 266.3 68.9197 253.85C69.4397 251.85 69.7297 250.97 70.2297 249.76C70.7497 248.41 71.3399 247.05 72.0999 245.65C81.0199 229.04 110.71 176.63 110.71 176.63L141.9 195.77L142.15 195.93L140.55 191.47L113.6 111.15L138.79 121.09C138.79 121.09 147.19 105.83 156.36 92.0898C165.54 78.3498 180.8 74.54 180.8 74.54L217.45 75.3198L231.92 75.21C233.99 75.14 238.91 75.1001 240.65 75.1401L300.02 74.71C301.78 74.73 304.2 74.7099 305.61 74.6699L315.17 74.6001C315.17 74.6001 325.62 74.11 334.85 83.02C336.32 84.48 336.94 85.1602 337.73 86.2002C338.64 87.3302 339.52 88.5199 340.35 89.8799C350.27 105.92 380.78 157.84 380.78 157.84L348.6 175.27L348.11 175.53L349.89 175.85L432.94 192.56L411.76 209.43C411.76 209.43 420.8 224.33 428.13 239.13C435.46 253.95 431.15 269.08 431.15 269.08Z" fill="white"/>
</svg>
