<svg width="491" height="492" viewBox="0 0 491 492" fill="none" xmlns="http://www.w3.org/2000/svg">
<path d="M331.23 128.59C329.2 130.33 327.67 132.6 327 135.1C326.61 136.56 326.37 138.05 326.22 139.34C326.15 139.97 326.14 140.6 326.2 141.21L344.11 139.01C346.23 128.62 341.49 119.79 331.23 128.59Z" fill="white"/>
<path d="M368.04 112.97C367.27 113.9 366.68 114.96 366.28 116.07C364.81 120.16 364.04 124.67 369.97 127.06L369.96 127.07C375.56 129.26 380.19 130.15 384.05 130.09C393.45 117.39 381.26 97.0697 368.04 112.97Z" fill="white"/>
<path d="M245.36 0.560059C109.91 0.560059 0.109863 110.36 0.109863 245.81C0.109863 381.26 109.91 491.06 245.36 491.06C380.81 491.06 490.61 381.26 490.61 245.81C490.61 110.36 380.81 0.560059 245.36 0.560059ZM414.99 96.0801C415.33 108.45 403.29 130.38 384.44 138.51C377.33 149.99 372.16 153.62 361.21 158.86C359.58 159.64 358.02 160.27 356.51 160.77L328.3 260.95C328.18 261.37 328.06 261.8 327.87 262.16C327.37 263.41 326.67 264.63 325.61 265.53L153.81 412.48C149.76 415.95 142.97 414.78 138.92 410.05L58.7499 316.33C54.6999 311.59 54.9299 305.09 58.9799 301.62L230.78 154.67C231.95 153.67 233.24 152.96 234.71 152.69C235.08 152.55 235.4 152.36 235.82 152.31L316.93 142.36C316.93 139.06 317.86 135.69 319.43 132.52C319.69 131.99 319.97 131.47 320.26 130.96C323.72 124.94 329.94 119.07 336.24 116.4C350.71 111.09 354.15 124.43 350.9 138.19L353.05 137.93C354.95 137.7 356.79 138.41 358.18 139.64C359.63 140.93 360.62 142.78 360.71 144.72C360.74 145.37 360.67 146.02 360.49 146.66L358.79 152.71C365.32 150.34 372.83 145.52 380.05 136.65C374.83 137.18 369.46 137 362.84 135H362.83C354.5 132 355.23 120.91 357.77 114.45C359.98 108.84 364.88 103.77 371.49 99.95C392.78 88.76 399.56 112.11 392.01 127.25C404.5 116.38 407.11 103.5 407.79 100L415.01 95.99L414.98 96.0901L414.99 96.0801Z" fill="white"/>
<path d="M143.39 321.27C135.5 324.65 131.33 325.32 128.42 321.92C126.3 319.44 126.1 314.46 132.26 309.2C136.34 305.71 140.28 304.21 142.31 303.6L140.64 298.39C137.85 299.19 133.76 301.19 129.14 305.14C120.37 312.64 118.15 321.83 122.99 327.5C127.38 332.63 134.56 331.81 143.72 327.62C151.43 324.3 155.5 324.18 158.41 327.58C161.55 331.25 160.24 336.76 154.28 341.86C150.26 345.29 145.52 347.48 141.81 348.42L143.71 353.62C147.23 352.85 152.86 349.82 157.21 346.09C167.85 336.99 168.85 327.72 164.05 322.11C159.48 316.77 153.06 317.12 143.39 321.27Z" fill="white"/>
<path d="M161.31 278.66L177.09 328.15L183.12 323L178.02 307.55L194.02 293.87L208.63 301.19L214.86 295.87L168.35 272.65L161.31 278.66ZM189.68 291.23L176.09 302.85L171.51 288.55C170.49 285.59 169.33 282.75 168.15 280.02L168.28 279.91C170.75 281.44 173.27 283.03 176.3 284.55L189.68 291.23Z" fill="white"/>
<path d="M223.94 281.28L196.19 248.83L190.37 253.81L221.48 290.2L246.59 268.73L243.22 264.79L223.94 281.28Z" fill="white"/>
<path d="M255.53 254.26L244.32 241.14L261.86 226.14L258.53 222.25L240.99 237.25L231.16 225.75L249.71 209.9L246.34 205.96L221.97 226.79L253.08 263.18L278.45 241.48L275.08 237.54L255.53 254.26Z" fill="white"/>
<path d="M322.94 176.83C322.83 176.62 322.73 176.4 322.61 176.19C322.1 175.3 321.5 174.45 320.81 173.64C320.28 173.02 319.71 172.44 319.11 171.92C318.98 171.81 318.84 171.71 318.71 171.6C313.47 167.27 306.14 166.52 300.16 169.62C300.15 169.6 300.14 169.59 300.14 169.58C297 171.2 294.35 173.8 292.71 177.13C292.72 177.14 292.73 177.15 292.74 177.16C289.83 183.06 290.52 190.37 295.06 195.68C301.15 202.79 311.84 203.62 318.96 197.54C325.06 192.31 326.51 183.67 322.94 176.83Z" fill="white"/>
</svg>
