<svg width="492" height="491" viewBox="0 0 492 491" fill="none" xmlns="http://www.w3.org/2000/svg">
<path d="M246.15 0.0400391C110.7 0.0400391 0.899902 109.84 0.899902 245.29C0.899902 380.74 110.7 490.54 246.15 490.54C381.6 490.54 491.4 380.74 491.4 245.29C491.4 109.84 381.6 0.0400391 246.15 0.0400391ZM355.73 375.16C353.67 382.54 346.71 388 338.76 388H153.55C145.6 388 138.64 382.54 136.58 375.16L89.3799 206H137.96L241.9 97.0101C243.78 95.0301 246.75 95.27 248.48 97.41C250.22 99.55 250.1 102.77 248.22 104.75L151.7 206H352.96L268.84 71.67C267.35 69.29 267.85 66.0701 269.94 64.3801C272.03 62.6901 274.95 63.1 276.44 65.48L364.39 206H402.91L355.73 375.16Z" fill="white"/>
<path d="M264.66 254L260.86 354H284.11L293.92 254H264.66Z" fill="white"/>
<path d="M144.86 254L165.66 354H188.91L174.11 254H144.86Z" fill="white"/>
<path d="M204.76 254L213.26 354H236.51L234.02 254H204.76Z" fill="white"/>
<path d="M324.57 254L308.46 354H331.71L353.82 254H324.57Z" fill="white"/>
</svg>
