<svg width="492" height="492" viewBox="0 0 492 492" fill="none" xmlns="http://www.w3.org/2000/svg">
<path d="M246.08 0.560059C110.63 0.560059 0.830078 110.36 0.830078 245.81C0.830078 381.26 110.63 491.06 246.08 491.06C381.53 491.06 491.33 381.26 491.33 245.81C491.33 110.36 381.53 0.560059 246.08 0.560059ZM79.0001 280.91V114.09C79.0001 112.38 80.3801 111 82.0901 111H279.91C281.62 111 283 112.38 283 114.09V280.91C283 282.62 281.62 284 279.91 284H82.0901C80.3801 284 79.0001 282.62 79.0001 280.91ZM119.75 341.72C119.75 341.1 119.77 340.51 119.8 339.93C119.77 340.53 119.75 341.13 119.75 341.72C119.75 341.73 119.75 341.73 119.75 341.72ZM181.08 341.73C181.08 353.92 171.11 363.8 158.82 363.8C146.53 363.8 136.56 353.92 136.56 341.73C136.56 339.01 137.06 336.41 137.96 334.01C141.12 325.63 149.26 319.67 158.82 319.67C168.37 319.67 176.52 325.64 179.68 334.01C180.58 336.41 181.08 339.01 181.08 341.73ZM197.88 341.73C197.88 341.13 197.86 340.53 197.83 339.94C197.87 340.52 197.88 341.1 197.88 341.73ZM320.91 341.72C320.91 341.1 320.93 340.51 320.96 339.93C320.92 340.53 320.91 341.13 320.91 341.72C320.91 341.73 320.91 341.73 320.91 341.72ZM382.24 341.73C382.24 353.92 372.27 363.8 359.98 363.8C347.68 363.8 337.72 353.92 337.72 341.73C337.72 339.01 338.22 336.41 339.12 334.01C342.28 325.63 350.42 319.67 359.98 319.67C369.53 319.67 377.68 325.64 380.84 334.01C381.74 336.41 382.24 339.01 382.24 341.73ZM399.04 341.73C399.04 341.13 399.02 340.53 398.99 339.94C399.02 340.52 399.04 341.1 399.04 341.73ZM428.37 330.69C428.37 332.51 426.87 334 425.03 334H398.26C398.27 334.04 398.27 334.08 398.28 334.12C398.27 334.08 398.27 334.05 398.26 334.01C394.65 316.33 378.88 303.01 359.97 303.01C341.06 303.01 325.29 316.32 321.68 334.01C321.67 334.05 321.67 334.08 321.66 334.12C321.67 334.08 321.67 334.04 321.68 334H197.1C197.11 334.04 197.11 334.08 197.12 334.12C197.11 334.08 197.11 334.05 197.1 334.01C193.49 316.33 177.72 303.01 158.81 303.01C139.9 303.01 124.13 316.32 120.52 334.01C120.51 334.05 120.51 334.08 120.5 334.12C120.51 334.08 120.51 334.04 120.52 334H84.8701C83.0301 334 81.9901 332.52 81.9901 330.7V298.97C81.9901 297.15 83.0301 296.01 84.8701 296.01H293C292.7 295.01 292.99 295.19 292.99 294.58V249.89C292.99 249.78 293 249.68 293.01 249.58C293 249.49 292.99 249.38 292.99 249.27V220.58C292.99 220.39 293.01 220.24 293.04 220.1C293.01 219.96 292.99 219.81 292.99 219.62V151.2C292.99 149.38 294.26 147.83 296.09 147.75C296.09 147.75 331.36 146.26 343.85 150.1C350.06 152.01 378.17 164.19 383.81 220.08C384.87 220.42 385.86 220.88 386.59 221.38L425.64 248.48C425.82 248.6 426.01 248.73 426.14 248.84C427.61 249.06 427.99 250.42 427.99 252.07V252.61C432.99 253.61 436.21 258.32 436.21 263.99C436.21 269.66 432.62 274.37 427.91 275.37L428.37 330.69ZM398.95 339.22C398.94 339.07 398.93 338.92 398.92 338.76C398.93 338.92 398.94 339.07 398.95 339.22ZM321 339.23C321.01 339.07 321.02 338.92 321.04 338.76C321.02 338.92 321.01 339.07 321 339.23ZM197.79 339.22C197.78 339.07 197.77 338.92 197.76 338.76C197.77 338.92 197.78 339.07 197.79 339.22ZM119.84 339.23C119.85 339.07 119.86 338.92 119.88 338.76C119.86 338.92 119.85 339.07 119.84 339.23Z" fill="white"/>
<path d="M341.61 157.82C331.36 155.01 300 155.61 300 155.61V213H375C368.75 173 347.74 159.5 341.61 157.82Z" fill="white"/>
</svg>
