<svg width="491" height="492" viewBox="0 0 491 492" fill="none" xmlns="http://www.w3.org/2000/svg">
<path d="M245.36 0.919922C109.91 0.919922 0.109863 110.72 0.109863 246.17C0.109863 381.62 109.91 491.42 245.36 491.42C380.81 491.42 490.61 381.62 490.61 246.17C490.61 110.72 380.81 0.919922 245.36 0.919922ZM406 288.55C406 298.28 399 306.47 390 308.37V313.29V358.78C390 367.36 382.59 374 374.01 374H120.5C111.92 374 104.99 367.35 104.99 358.78V313.29V165.18V134.74C104.99 126.43 111.7 120 120.01 120H374.49C382.8 120 389.99 126.43 389.99 134.74V180.71V231.19C398.99 233.09 405.99 241.27 405.99 251.01V288.55H406Z" fill="white"/>
<path d="M385.47 231H310.28C299.15 231 290.01 239.88 290.01 251.01V288.55C290.01 299.68 299.16 309 310.28 309H385.47C386.87 309 388 308.64 390 308.37V231.2C388 230.92 386.86 231 385.47 231ZM329.91 292.49C317.37 292.49 307.2 282.32 307.2 269.78C307.2 257.24 317.37 247.07 329.91 247.07C342.45 247.07 352.62 257.24 352.62 269.78C352.62 282.32 342.45 292.49 329.91 292.49Z" fill="white"/>
<path d="M351.24 343H345.87C344.22 343 342.88 344.35 342.88 346C342.88 347.65 344.22 349 345.87 349H351.29C352.94 349 354.25 347.65 354.25 346C354.25 344.35 352.89 343 351.24 343Z" fill="white"/>
<path d="M329.78 343H324.41C322.76 343 321.42 344.35 321.42 346C321.42 347.65 322.76 349 324.41 349H329.78C331.43 349 332.77 347.65 332.77 346C332.76 344.35 331.43 343 329.78 343Z" fill="white"/>
<path d="M308.31 343H302.94C301.29 343 299.95 344.35 299.95 346C299.95 347.65 301.29 349 302.94 349H308.31C309.96 349 311.3 347.65 311.3 346C311.3 344.35 309.96 343 308.31 343Z" fill="white"/>
<path d="M286.85 343H281.48C279.83 343 278.49 344.35 278.49 346C278.49 347.65 279.83 349 281.48 349H286.85C288.5 349 289.84 347.65 289.84 346C289.84 344.35 288.5 343 286.85 343Z" fill="white"/>
<path d="M265.39 343H260.02C258.37 343 257.03 344.35 257.03 346C257.03 347.65 258.37 349 260.02 349H265.39C267.04 349 268.38 347.65 268.38 346C268.37 344.35 267.03 343 265.39 343Z" fill="white"/>
<path d="M243.92 343H238.55C236.9 343 235.56 344.35 235.56 346C235.56 347.65 236.9 349 238.55 349H243.92C245.57 349 246.91 347.65 246.91 346C246.91 344.35 245.57 343 243.92 343Z" fill="white"/>
<path d="M222.46 343H217.09C215.44 343 214.1 344.35 214.1 346C214.1 347.65 215.44 349 217.09 349H222.46C224.11 349 225.45 347.65 225.45 346C225.44 344.35 224.11 343 222.46 343Z" fill="white"/>
<path d="M200.99 343H195.62C193.97 343 192.63 344.35 192.63 346C192.63 347.65 193.97 349 195.62 349H200.99C202.64 349 203.98 347.65 203.98 346C203.98 344.35 202.64 343 200.99 343Z" fill="white"/>
<path d="M179.53 343H174.16C172.51 343 171.17 344.35 171.17 346C171.17 347.65 172.51 349 174.16 349H179.53C181.18 349 182.52 347.65 182.52 346C182.52 344.35 181.18 343 179.53 343Z" fill="white"/>
<path d="M158.07 343H152.7C151.05 343 149.71 344.35 149.71 346C149.71 347.65 151.05 349 152.7 349H158.07C159.72 349 161.06 347.65 161.06 346C161.05 344.35 159.71 343 158.07 343Z" fill="white"/>
<path d="M138.45 341.79C137.29 341.1 136.26 340.14 135.49 339.02C134.55 337.66 132.69 337.32 131.33 338.26C129.97 339.2 129.63 341.06 130.57 342.42C131.83 344.24 133.49 345.8 135.39 346.93C135.87 347.22 136.4 347.35 136.92 347.35C137.94 347.35 138.93 346.83 139.49 345.89C140.33 344.47 139.86 342.63 138.45 341.79Z" fill="white"/>
<path d="M131 316.72C129.35 316.72 128 318.06 128 319.71V325.08C128 326.73 129.35 328.07 131 328.07C132.65 328.07 134 326.73 134 325.08V319.71C134 318.06 132.65 316.72 131 316.72Z" fill="white"/>
<path d="M131 295.25C129.35 295.25 128 296.59 128 298.24V303.61C128 305.26 129.35 306.6 131 306.6C132.65 306.6 134 305.26 134 303.61V298.24C134 296.59 132.65 295.25 131 295.25Z" fill="white"/>
<path d="M131 273.79C129.35 273.79 128 275.13 128 276.78V282.15C128 283.8 129.35 285.14 131 285.14C132.65 285.14 134 283.8 134 282.15V276.78C134 275.13 132.65 273.79 131 273.79Z" fill="white"/>
<path d="M131 252.33C129.35 252.33 128 253.67 128 255.32V260.69C128 262.34 129.35 263.68 131 263.68C132.65 263.68 134 262.34 134 260.69V255.32C134 253.66 132.65 252.33 131 252.33Z" fill="white"/>
<path d="M131 230.86C129.35 230.86 128 232.2 128 233.85V239.22C128 240.87 129.35 242.21 131 242.21C132.65 242.21 134 240.87 134 239.22V233.85C134 232.2 132.65 230.86 131 230.86Z" fill="white"/>
<path d="M131 209.4C129.35 209.4 128 210.74 128 212.39V217.76C128 219.41 129.35 220.75 131 220.75C132.65 220.75 134 219.41 134 217.76V212.39C134 210.74 132.65 209.4 131 209.4Z" fill="white"/>
<path d="M132.72 186.98C131.19 186.35 129.45 187.08 128.82 188.61C128.32 189.84 127.98 191.14 127.81 192.47L127.54 194.61C127.34 196.25 128.5 197.74 130.14 197.94C131.78 198.14 133.27 196.98 133.47 195.34L133.74 193.2C133.84 192.4 134.05 191.61 134.35 190.87C134.97 189.35 134.24 187.6 132.72 186.98Z" fill="white"/>
<path d="M339.52 185H344.89C346.54 185 347.88 183.65 347.88 182C347.88 180.35 346.54 179 344.89 179H339.52C337.87 179 336.53 180.35 336.53 182C336.53 183.65 337.87 185 339.52 185Z" fill="white"/>
<path d="M318.05 185H323.42C325.07 185 326.41 183.65 326.41 182C326.41 180.35 325.07 179 323.42 179H318.05C316.4 179 315.06 180.35 315.06 182C315.07 183.65 316.4 185 318.05 185Z" fill="white"/>
<path d="M296.59 185H301.96C303.61 185 304.95 183.65 304.95 182C304.95 180.35 303.61 179 301.96 179H296.59C294.94 179 293.6 180.35 293.6 182C293.6 183.65 294.94 185 296.59 185Z" fill="white"/>
<path d="M280.49 179H275.12C273.47 179 272.13 180.35 272.13 182C272.13 183.65 273.47 185 275.12 185H280.49C282.14 185 283.48 183.65 283.48 182C283.48 180.35 282.14 179 280.49 179Z" fill="white"/>
<path d="M259.03 179H253.66C252.01 179 250.67 180.35 250.67 182C250.67 183.65 252.01 185 253.66 185H259.03C260.68 185 262.02 183.65 262.02 182C262.02 180.35 260.68 179 259.03 179Z" fill="white"/>
<path d="M237.56 179H232.19C230.54 179 229.2 180.35 229.2 182C229.2 183.65 230.54 185 232.19 185H237.56C239.21 185 240.55 183.65 240.55 182C240.55 180.35 239.21 179 237.56 179Z" fill="white"/>
<path d="M216.1 179H210.73C209.08 179 207.74 180.35 207.74 182C207.74 183.65 209.08 185 210.73 185H216.1C217.75 185 219.09 183.65 219.09 182C219.09 180.35 217.75 179 216.1 179Z" fill="white"/>
<path d="M194.64 179H189.27C187.62 179 186.28 180.35 186.28 182C186.28 183.65 187.62 185 189.27 185H194.64C196.29 185 197.63 183.65 197.63 182C197.62 180.35 196.29 179 194.64 179Z" fill="white"/>
<path d="M173.17 179H167.8C166.15 179 164.81 180.35 164.81 182C164.81 183.65 166.15 185 167.8 185H173.17C174.82 185 176.16 183.65 176.16 182C176.16 180.35 174.82 179 173.17 179Z" fill="white"/>
<path d="M151.71 179H146.34C144.69 179 143.35 180.35 143.35 182C143.35 183.65 144.69 185 146.34 185H151.71C153.36 185 154.7 183.65 154.7 182C154.7 180.35 153.36 179 151.71 179Z" fill="white"/>
</svg>
