<svg width="492" height="492" viewBox="0 0 492 492" fill="none" xmlns="http://www.w3.org/2000/svg">
<path d="M245.8 0.799805C110.35 0.799805 0.549805 110.6 0.549805 246.05C0.549805 381.5 110.35 491.3 245.8 491.3C381.25 491.3 491.05 381.5 491.05 246.05C491.05 110.6 381.25 0.799805 245.8 0.799805ZM86.0098 180.88L86.0898 180.79C86.2998 180.55 86.5698 180.37 86.8598 180.25L89.3898 179.25C89.5498 179.19 89.7098 179.15 89.8798 179.12L93.0398 178.7L95.3798 179.71C95.6298 179.82 95.8498 179.97 96.0298 180.16L98.6898 182.89C98.8798 183.09 99.0398 183.33 99.1398 183.59L101.1 188.7L103.9 195.81L106.64 202.72C106.69 202.83 106.72 202.95 106.74 203.08L108.12 210.03L109.46 217.77L110.29 224.34C110.32 224.56 110.31 224.77 110.27 224.99L109.46 229.12C109.34 229.73 108.95 230.26 108.39 230.55L105.56 232.02C105.26 232.17 104.94 232.25 104.6 232.25L101.9 232.23C101.11 232.23 100.4 231.77 100.06 231.06C99.9198 230.76 99.8498 230.43 99.8598 230.1L99.9498 227.51C99.9498 227.41 99.9498 227.31 99.9398 227.21L99.4398 222.62L98.6498 217.14C98.6398 217.08 98.6298 217.01 98.6098 216.95L97.2198 211.19L95.8198 205.4C95.8098 205.36 95.7998 205.33 95.7898 205.29L94.2498 200.16C94.2298 200.1 94.2098 200.03 94.1798 199.97L92.3298 195.44C92.3098 195.39 92.2898 195.34 92.2598 195.3L90.2198 191.24C90.1898 191.18 90.1598 191.12 90.1398 191.05L88.7898 187.53C88.7098 187.31 88.5898 187.11 88.4298 186.93L86.2598 184.39C86.1098 184.22 85.9898 184.02 85.9098 183.81L85.5798 182.98C85.3498 182.28 85.4898 181.46 86.0098 180.88ZM131.15 357.29L130.52 358.28C129.94 359.18 129.04 359.82 128 360.07L119.23 362.15C118.93 362.22 118.61 362.26 118.3 362.26L106.14 362.52C105.66 362.52 102.77 362.42 100.4 361.86L97.0398 360.76C96.1198 360.5 95.2398 360.11 94.4298 359.61C93.7298 359.18 92.8898 358.72 91.0098 357.11C90.9298 357.04 90.8498 356.97 90.7798 356.89L85.3198 351.32C85.0798 351.09 83.7898 349.5 83.6198 349.22L74.1798 334.59C74.0698 334.42 73.9798 334.25 73.8998 334.06L64.4798 312.81C64.4298 312.69 64.3798 312.57 64.3398 312.44L56.5498 289.1C56.5098 288.97 56.4698 288.84 56.4398 288.7L51.6198 267.29C51.5998 267.18 51.5798 267.07 51.5598 266.96L48.8898 248.08C48.8598 247.86 48.8498 247.64 48.8498 247.42L49.1898 230.48C49.1898 230.28 49.2098 230.08 49.2498 229.88L51.6098 215.8C51.6298 215.67 51.6598 215.54 51.6898 215.42L54.6498 204.34C54.7198 204.06 54.8298 203.79 54.9598 203.54L58.8598 195.86C59.0398 195.51 59.2598 195.19 59.5298 194.9L63.4498 190.72C63.7498 190.4 64.0898 190.14 64.4798 189.93L72.7498 185.41C73.1098 185.22 73.4898 185.07 73.8898 184.99L80.4598 183.62L82.4198 185.03C82.7898 185.3 83.1198 185.63 83.3798 186L85.9898 189.72C86.1398 189.93 86.2698 190.16 86.3798 190.4L89.3898 197.11C89.4598 197.26 89.5198 197.41 89.5598 197.57L92.7898 207.95L95.5298 218.02C95.5698 218.17 95.5998 218.32 95.6298 218.48L96.6698 225.28C96.7398 225.72 96.7298 226.16 96.6598 226.6L96.0998 229.89C95.9898 230.55 95.7198 231.17 95.3098 231.7C94.7498 232.43 93.9598 232.95 93.0698 233.18L88.0698 234.47C87.9798 234.49 87.8898 234.51 87.7998 234.53L81.0398 235.8C79.9498 236 78.9898 236.64 78.3698 237.56L76.1598 240.87C75.8398 241.35 75.6198 241.9 75.5198 242.47L74.1298 250.74C74.0598 251.15 74.0498 251.57 74.1098 251.98L75.8998 265.07C75.9098 265.17 75.9298 265.28 75.9498 265.38L79.7798 283.11C79.8098 283.27 79.8598 283.42 79.9098 283.57L85.4998 299.89C85.5598 300.07 85.6398 300.25 85.7298 300.43L91.2998 311.36C91.4998 311.76 91.7698 312.12 92.0898 312.43L96.4798 316.74C97.1198 317.37 97.9598 317.77 98.8498 317.89L102.69 318.37C103.39 318.46 104.1 318.36 104.75 318.1L111.33 315.44C111.54 315.35 111.76 315.29 111.99 315.24L112.64 315.1C113.87 314.83 115.16 315.14 116.14 315.94L117.52 317.07C117.78 317.29 118.02 317.53 118.22 317.81L121.8 322.66C121.99 322.91 122.15 323.19 122.27 323.48L126.19 332.62C126.23 332.71 126.26 332.8 126.29 332.88L129.69 342.61C129.74 342.76 129.78 342.91 129.82 343.06L131.5 350.45C131.55 350.67 131.58 350.89 131.59 351.11L131.82 354.81C131.84 355.69 131.62 356.55 131.15 357.29ZM132.25 338.67C132.23 338.61 132.21 338.56 132.19 338.5L130.37 333.93L128.45 329.24L126.66 324.57C126.62 324.46 126.56 324.35 126.5 324.25L124.04 320.16C124 320.09 123.95 320.03 123.91 319.97L120.98 316.18L119.12 313.6C119.02 313.46 118.94 313.32 118.88 313.16L118.59 312.42C118.27 311.61 118.49 310.69 119.15 310.12L120.82 308.66C121.04 308.46 121.31 308.32 121.59 308.24L124.74 307.31C125.27 307.15 125.85 307.22 126.33 307.49L130.08 309.62C130.27 309.73 130.44 309.86 130.58 310.02L135.08 314.94C135.18 315.05 135.27 315.17 135.34 315.3L139.29 322.12C139.32 322.17 139.34 322.22 139.37 322.27L142.35 328.55C142.39 328.63 142.42 328.71 142.45 328.8L144.65 335.61L146.3 340.74C146.32 340.81 146.34 340.88 146.36 340.96L147.31 345.6C147.35 345.79 147.36 345.98 147.35 346.16L147.1 349.54C147.09 349.65 147.07 349.77 147.05 349.88L146.23 353.19L143.97 355.76C143.8 355.96 143.59 356.12 143.35 356.24L139.87 357.98C139.61 358.11 139.33 358.18 139.05 358.19L137.24 358.27C136.21 358.32 135.31 357.6 135.13 356.59L135.12 356.54C135.09 356.36 135.08 356.17 135.1 355.98L135.41 352.76C135.43 352.57 135.42 352.38 135.38 352.19L134.63 348.17L133.88 344.1C133.87 344.03 133.85 343.96 133.83 343.88L132.25 338.67ZM391.09 363.72C383.44 372.72 374.86 381.03 365.59 388.41C363.3 390.23 360.97 392 358.6 393.71L381.28 409.32L380.6 410.16L330.9 412.44C327.76 413.1 324.63 413.76 321.49 414.42C315.58 416.88 309.54 419.04 303.43 420.86C292.08 424.25 280.36 426.54 268.59 427.67C244.11 430.02 219.71 427.45 196.07 420.02C173.11 412.81 152.19 401.44 133.84 386.21L136.56 386.15C136.97 386.15 137.38 386.1 137.78 386L147.07 383.8C162.36 395.25 179.82 404.34 199.09 410.39C231.81 420.67 265.3 420.75 296.13 412.44C304.8 405.98 313.47 399.51 322.14 393.05L356.73 357.29L357.88 357.48L354.6 384.13C383.01 363.06 405.26 333.15 416.67 296.83C445.39 205.38 394.54 107.97 303.09 79.2498C297.21 77.3998 291.3 75.8897 285.39 74.6997C274.1 76.9497 262.81 79.1897 251.52 81.4397L201.32 100.21L200.29 99.4998L215.98 74.8497C165.59 85.3097 121.12 117.96 96.7698 165.39L94.6198 160.6C94.4798 160.29 94.3098 159.99 94.1098 159.71L90.8498 155.07C96.6098 144.76 103.37 135.03 111.09 125.95C118.74 116.95 127.32 108.64 136.59 101.26C145.77 93.9498 155.7 87.4898 166.12 82.0498C176.54 76.6098 187.52 72.1598 198.76 68.7998C204.64 67.0498 210.62 65.5897 216.65 64.4397L201.52 38.2498L202.57 37.7498L251.97 58.5398C256.33 59.5898 260.68 60.6397 265.04 61.6897C278.89 62.7497 292.62 65.4098 306.11 69.6398C329.76 77.0698 351.25 88.9098 369.98 104.83C378.98 112.48 387.29 121.06 394.67 130.33C401.98 139.51 408.44 149.44 413.88 159.86C419.32 170.27 423.77 181.26 427.13 192.5C430.52 203.85 432.81 215.58 433.94 227.34C436.29 251.82 433.72 276.22 426.29 299.86C418.85 323.5 407.01 344.99 391.09 363.72ZM191.57 187.7C179.16 187.7 168.3 193.91 160.77 199.67L151.24 175.51C162.1 167.31 178.94 160.66 198.44 160.66C231.02 160.66 248.97 179.72 248.97 205.87C248.97 230.02 231.3 249.3 210.47 267.92L197 279H252V307H149V286.76L167.85 269.92C199.32 241.78 214.73 225.6 215.17 208.76C215.17 197.01 208.19 187.7 191.57 187.7ZM381 248V273H364V307H332V273H268V250.86L322.76 163H364V248H381Z" fill="white"/>
<path d="M319.14 215.72L300 247.09V248H332V215.62C332 206.98 332.51 198 333.18 189H332.29C327.64 198 324.01 206.63 319.14 215.72Z" fill="white"/>
</svg>
