<svg width="491" height="491" viewBox="0 0 491 491" fill="none" xmlns="http://www.w3.org/2000/svg">
<path d="M245.36 0.439941C109.91 0.439941 0.109863 110.24 0.109863 245.69C0.109863 381.14 109.91 490.94 245.36 490.94C380.81 490.94 490.61 381.14 490.61 245.69C490.61 110.24 380.81 0.439941 245.36 0.439941ZM389.24 252.15C354.09 252.15 325.59 228 325.59 199H350.16L381.26 102.53L272.15 137.67C272.15 137.84 272.26 138 272.26 138.17C272.26 148.97 265 158.17 256 161.73V400.36C292 401.73 320.4 411.59 320.4 425.4C320.4 425.58 320.3 425.99 320.29 425.99H173.78C173.77 425.99 173.64 425.59 173.64 425.41C173.64 411.59 202.01 401.73 238.01 400.35V161.72C233.01 159.91 229.12 156.63 226.21 152.42L112.95 188.92L145.6 289.99H173.24C173.24 319.99 144.74 343.14 109.59 343.14C74.44 343.14 45.9398 319.99 45.9398 289.99H70.7098L103.23 189.13C102.81 188.66 102.48 188.11 102.27 187.47L100.7 182.59C99.9098 180.15 101.27 177.51 103.71 176.72L221.91 138.66C221.91 138.49 221.9 138.33 221.9 138.16C221.9 124.28 233.16 113.02 247.04 113.02C255.63 113.02 263.21 117.33 267.74 123.9L385.93 85.8401C388.37 85.0501 391.01 86.4101 391.8 88.8501L393.37 93.73C393.82 95.12 393.55 96.57 392.8 97.71L425.45 198.99H452.89C452.89 228 424.39 252.15 389.24 252.15Z" fill="white"/>
</svg>
