<svg width="492" height="492" viewBox="0 0 492 492" fill="none" xmlns="http://www.w3.org/2000/svg">
<path d="M245.92 0.919922C110.47 0.919922 0.669922 110.72 0.669922 246.17C0.669922 381.62 110.47 491.42 245.92 491.42C381.37 491.42 491.17 381.62 491.17 246.17C491.17 110.72 381.37 0.919922 245.92 0.919922ZM419 401H89V327.46L114 258.4V175H172V118.89V112H128.04C119.89 112 113 105.32 113 97.1699V76.9398C113 68.7898 119.89 61.9999 128.04 61.9999H233.88C242.03 61.9999 249 68.7798 249 76.9398V97.1699C249 105.32 242.03 112 233.88 112H190V175H292V134H292.76C292.83 135 293.76 135.76 294.91 135.76C296.06 135.76 296.98 135 297.06 134H298.57C298.64 135 299.57 135.76 300.72 135.76C301.87 135.76 302.79 135 302.87 134H304.38C304.45 135 305.38 135.76 306.53 135.76C307.68 135.76 308.6 135 308.68 134H310.19C310.26 135 311.19 135.76 312.34 135.76C313.49 135.76 314.41 135 314.49 134H316C316.07 135 317 135.76 318.15 135.76C319.3 135.76 320.22 135 320.3 134H321.81C321.88 135 322.81 135.76 323.96 135.76C325.11 135.76 326.03 135 326.11 134H327.62C327.69 135 328.62 135.76 329.77 135.76C330.92 135.76 331.84 135 331.92 134H333.43C333.5 135 334.43 135.76 335.58 135.76C336.73 135.76 337.65 135 337.73 134H339.24C339.31 135 340.24 135.76 341.39 135.76C342.54 135.76 343.46 135 343.54 134H345.05C345.12 135 346.05 135.76 347.2 135.76C348.35 135.76 349.27 135 349.35 134H350.86C350.93 135 351.86 135.76 353.01 135.76C354.16 135.76 355.08 135 355.16 134H356.09V175H394.09V258.41L419.09 327.47V401H419Z" fill="white"/>
<path d="M107.81 375.51C107.81 381.13 112.41 385.73 118.03 385.73H390.2C395.82 385.73 400.42 381.13 400.42 375.51V355.49C400.42 349.87 395.82 345.27 390.2 345.27H118.03C112.41 345.27 107.81 349.87 107.81 355.49V375.51ZM253.79 350.09C262.33 350.09 269.25 357.01 269.25 365.55C269.25 374.09 262.33 381.01 253.79 381.01C245.25 381.01 238.33 374.09 238.33 365.55C238.33 357.01 245.25 350.09 253.79 350.09Z" fill="white"/>
<path d="M234.12 184H190H172H138.22C131.7 184 126 189.71 126 196.23V229.7C126 236.22 131.7 242 138.22 242H234.12C240.64 242 246 236.22 246 229.7V196.23C246 189.71 240.64 184 234.12 184ZM240 228.17C240 232.49 236.5 236 232.17 236H140.82C136.5 236 132.99 232.5 132.99 228.17V198.82C132.99 194.5 136.49 190.99 140.82 190.99H232.17C236.49 190.99 240 194.49 240 198.82V228.17Z" fill="white"/>
<path d="M360.09 212.97C360.09 216.21 359 216.11 356 216.09V216H292V216.08C289 216.04 287.72 215.65 287.72 212.96C287.72 211.22 288.34 210.44 289.5 210.1C289.18 209.27 288.79 208.36 288.43 207.4C286.04 208.19 284.45 209.71 284.45 212.86C284.45 218.01 288.62 218.99 293.77 218.99H355.51C360.66 218.99 363.26 218.01 363.26 212.86C363.26 207.91 361.02 206.82 356.02 206.74V209.84C359 209.83 360.09 209.73 360.09 212.97Z" fill="white"/>
<path d="M134.23 285.33C134 282 137.98 279.01 143.11 278.65C146.93 278.38 150.32 279.65 151.9 281.69C151.39 278.55 147.18 276.32 142.23 276.67C137.09 277.03 133.12 280.02 133.35 283.35C133.41 284.2 133.74 284.99 134.28 285.69C134.26 285.57 134.24 285.46 134.23 285.33Z" fill="white"/>
<path d="M159.56 285.89C159.33 282.56 163.31 279.57 168.44 279.21C172.26 278.94 175.65 280.21 177.23 282.25C176.72 279.11 172.51 276.88 167.56 277.23C162.42 277.59 158.45 280.58 158.68 283.91C158.74 284.76 159.07 285.55 159.61 286.25C159.59 286.13 159.56 286.01 159.56 285.89Z" fill="white"/>
<path d="M187.06 285.89C186.83 282.56 190.81 279.57 195.94 279.21C199.76 278.94 203.15 280.21 204.73 282.25C204.22 279.11 200.01 276.88 195.06 277.23C189.92 277.59 185.95 280.58 186.18 283.91C186.24 284.76 186.57 285.55 187.11 286.25C187.09 286.13 187.07 286.01 187.06 285.89Z" fill="white"/>
<path d="M213.94 285.89C213.71 282.56 217.69 279.57 222.82 279.21C226.64 278.94 230.03 280.21 231.61 282.25C231.1 279.11 226.89 276.88 221.94 277.23C216.8 277.59 212.83 280.58 213.06 283.91C213.12 284.76 213.45 285.55 213.99 286.25C213.97 286.13 213.94 286.01 213.94 285.89Z" fill="white"/>
<path d="M240.81 285.89C240.58 282.56 244.56 279.57 249.69 279.21C253.51 278.94 256.9 280.21 258.48 282.25C257.97 279.11 253.76 276.88 248.81 277.23C243.67 277.59 239.7 280.58 239.93 283.91C239.99 284.76 240.32 285.55 240.86 286.25C240.85 286.13 240.82 286.01 240.81 285.89Z" fill="white"/>
<path d="M267.69 285.89C267.46 282.56 271.44 279.57 276.57 279.21C280.39 278.94 283.78 280.21 285.36 282.25C284.85 279.11 280.64 276.88 275.69 277.23C270.55 277.59 266.58 280.58 266.81 283.91C266.87 284.76 267.2 285.55 267.74 286.25C267.72 286.13 267.7 286.01 267.69 285.89Z" fill="white"/>
<path d="M294.57 285.89C294.34 282.56 298.32 279.57 303.45 279.21C307.27 278.94 310.66 280.21 312.24 282.25C311.73 279.11 307.52 276.88 302.57 277.23C297.43 277.59 293.46 280.58 293.69 283.91C293.75 284.76 294.08 285.55 294.62 286.25C294.6 286.13 294.58 286.01 294.57 285.89Z" fill="white"/>
<path d="M321.45 285.89C321.22 282.56 325.2 279.57 330.33 279.21C334.15 278.94 337.54 280.21 339.12 282.25C338.61 279.11 334.4 276.88 329.45 277.23C324.31 277.59 320.34 280.58 320.57 283.91C320.63 284.76 320.96 285.55 321.5 286.25C321.48 286.13 321.45 286.01 321.45 285.89Z" fill="white"/>
<path d="M348.32 285.89C348.09 282.56 352.07 279.57 357.2 279.21C361.02 278.94 364.41 280.21 365.99 282.25C365.48 279.11 361.27 276.88 356.32 277.23C351.18 277.59 347.21 280.58 347.44 283.91C347.5 284.76 347.83 285.55 348.37 286.25C348.36 286.13 348.33 286.01 348.32 285.89Z" fill="white"/>
<path d="M143.64 298.99C147.04 298.75 150.08 299.73 151.83 301.39C150.88 298.6 146.92 296.69 142.32 297.01C137.18 297.37 133.21 300.36 133.44 303.69C133.52 304.82 134.08 305.84 134.97 306.68C134.86 306.35 134.78 306.02 134.76 305.67C134.52 302.33 138.5 299.34 143.64 298.99Z" fill="white"/>
<path d="M168.97 299.54C172.37 299.3 175.41 300.28 177.16 301.94C176.21 299.15 172.25 297.24 167.65 297.56C162.51 297.92 158.54 300.91 158.77 304.24C158.85 305.37 159.41 306.39 160.3 307.23C160.19 306.9 160.11 306.57 160.09 306.22C159.85 302.89 163.83 299.9 168.97 299.54Z" fill="white"/>
<path d="M196.47 299.54C199.87 299.3 202.91 300.28 204.66 301.94C203.71 299.15 199.75 297.24 195.15 297.56C190.01 297.92 186.04 300.91 186.27 304.24C186.35 305.37 186.91 306.39 187.8 307.23C187.69 306.9 187.61 306.57 187.59 306.22C187.36 302.89 191.33 299.9 196.47 299.54Z" fill="white"/>
<path d="M223.35 299.54C226.75 299.3 229.79 300.28 231.54 301.94C230.59 299.15 226.63 297.24 222.03 297.56C216.89 297.92 212.92 300.91 213.15 304.24C213.23 305.37 213.79 306.39 214.68 307.23C214.57 306.9 214.49 306.57 214.47 306.22C214.23 302.89 218.21 299.9 223.35 299.54Z" fill="white"/>
<path d="M250.22 299.54C253.62 299.3 256.66 300.28 258.41 301.94C257.46 299.15 253.5 297.24 248.9 297.56C243.76 297.92 239.79 300.91 240.02 304.24C240.1 305.37 240.66 306.39 241.55 307.23C241.44 306.9 241.36 306.57 241.34 306.22C241.11 302.89 245.09 299.9 250.22 299.54Z" fill="white"/>
<path d="M277.1 299.54C280.5 299.3 283.54 300.28 285.29 301.94C284.34 299.15 280.38 297.24 275.78 297.56C270.64 297.92 266.67 300.91 266.9 304.24C266.98 305.37 267.54 306.39 268.43 307.23C268.32 306.9 268.24 306.57 268.22 306.22C267.99 302.89 271.96 299.9 277.1 299.54Z" fill="white"/>
<path d="M303.98 299.54C307.38 299.3 310.42 300.28 312.17 301.94C311.22 299.15 307.26 297.24 302.66 297.56C297.52 297.92 293.55 300.91 293.78 304.24C293.86 305.37 294.42 306.39 295.31 307.23C295.2 306.9 295.12 306.57 295.1 306.22C294.87 302.89 298.84 299.9 303.98 299.54Z" fill="white"/>
<path d="M330.86 299.54C334.26 299.3 337.3 300.28 339.05 301.94C338.1 299.15 334.14 297.24 329.54 297.56C324.4 297.92 320.43 300.91 320.66 304.24C320.74 305.37 321.3 306.39 322.19 307.23C322.08 306.9 322 306.57 321.98 306.22C321.74 302.89 325.72 299.9 330.86 299.54Z" fill="white"/>
<path d="M357.73 299.54C361.13 299.3 364.17 300.28 365.92 301.94C364.97 299.15 361.01 297.24 356.41 297.56C351.27 297.92 347.3 300.91 347.53 304.24C347.61 305.37 348.17 306.39 349.06 307.23C348.95 306.9 348.87 306.57 348.85 306.22C348.62 302.89 352.6 299.9 357.73 299.54Z" fill="white"/>
<path d="M346 150H299V154H346V150Z" fill="white"/>
<path d="M346 160H299V164H346V160Z" fill="white"/>
<path d="M346 169H299V173H346V169Z" fill="white"/>
<path d="M299 178V182H307.08H346V178H308.95H299Z" fill="white"/>
<path d="M299 188V192H302.81H346V188H304.68H299Z" fill="white"/>
</svg>
