<svg width="491" height="492" viewBox="0 0 491 492" fill="none" xmlns="http://www.w3.org/2000/svg">
<path d="M245.52 0.679688C110.07 0.679688 0.27002 110.48 0.27002 245.93C0.27002 381.38 110.07 491.18 245.52 491.18C380.97 491.18 490.77 381.38 490.77 245.93C490.77 110.48 380.97 0.679688 245.52 0.679688ZM413.07 283.04C410.8 294.12 407.42 305.03 403.01 315.45C398.68 325.68 393.33 335.54 387.1 344.76C380.93 353.89 373.84 362.48 366.04 370.29C358.24 378.09 349.65 385.18 340.51 391.35C331.28 397.58 321.42 402.93 311.19 407.26C300.77 411.67 289.87 415.05 278.78 417.32C267.41 419.65 255.72 420.83 244.02 420.83C232.32 420.83 220.63 419.65 209.27 417.32C198.19 415.05 187.28 411.67 176.87 407.26C166.64 402.93 156.78 397.58 147.56 391.35C138.43 385.18 129.84 378.09 122.04 370.29C114.24 362.49 107.15 353.9 100.98 344.76C94.75 335.54 89.39 325.67 85.07 315.45C80.66 305.03 77.28 294.13 75.01 283.04C72.68 271.67 71.5 259.98 71.5 248.28C71.5 236.58 72.68 224.89 75.01 213.52C77.28 202.44 80.66 191.53 85.07 181.11C89.4 170.88 94.75 161.02 100.98 151.8C107.15 142.67 114.24 134.08 122.04 126.27C129.84 118.47 138.43 111.38 147.56 105.21C156.78 98.9797 166.65 93.6298 176.87 89.2998C187.29 84.8898 198.19 81.5097 209.27 79.2397C220.64 76.9097 232.33 75.7297 244.02 75.7297C255.72 75.7297 267.41 76.9097 278.78 79.2397C289.87 81.5097 300.77 84.8898 311.19 89.2998C321.42 93.6298 331.28 98.9797 340.51 105.21C349.64 111.38 358.23 118.47 366.04 126.27C373.84 134.07 380.93 142.66 387.1 151.8C393.33 161.02 398.69 170.89 403.01 181.11C407.42 191.53 410.8 202.43 413.07 213.52C415.4 224.89 416.58 236.58 416.58 248.28C416.58 259.98 415.4 271.67 413.07 283.04Z" fill="white"/>
<path d="M371.13 153.39C368.09 149.32 364.85 145.4 361.44 141.64C360.59 140.7 359.72 139.77 358.85 138.85C341.34 120.49 319.48 106.32 294.91 98.01C292.45 97.18 289.97 96.4099 287.46 95.6899C284.95 94.9799 282.42 94.33 279.86 93.73C277.3 93.14 274.72 92.6099 272.12 92.1499C263.01 90.5199 253.62 89.6699 244.04 89.6699C211.2 89.6699 180.69 99.66 155.37 116.76C152.21 118.9 149.12 121.15 146.13 123.5C144.13 125.07 142.17 126.69 140.26 128.35C138.34 130.01 136.46 131.72 134.63 133.47C130.04 137.85 125.71 142.5 121.67 147.39C120.05 149.35 118.48 151.35 116.96 153.38C116.2 154.4 115.45 155.42 114.71 156.46C113.24 158.53 111.81 160.64 110.44 162.79C109.06 164.94 107.74 167.12 106.47 169.33C104.56 172.65 102.77 176.05 101.1 179.51C91.08 200.31 85.46 223.63 85.46 248.27C85.46 272.91 91.08 296.23 101.1 317.03C103.88 322.81 107.01 328.39 110.45 333.75C114.58 340.19 119.15 346.3 124.14 352.06C126.63 354.94 129.23 357.72 131.92 360.42C133.71 362.21 135.55 363.96 137.43 365.67C165.59 391.27 203.01 406.87 244.06 406.87C253.64 406.87 263.02 406.02 272.14 404.39C274.74 403.92 277.33 403.4 279.88 402.81C282.44 402.22 284.97 401.57 287.48 400.85C289.99 400.14 292.47 399.36 294.93 398.53C316.96 391.08 336.81 378.92 353.3 363.25C353.39 363.17 353.47 363.09 353.56 363.01C355.37 361.28 357.15 359.51 358.88 357.69C359.76 356.77 360.62 355.84 361.47 354.9C363.34 352.84 365.16 350.73 366.92 348.57C368.96 346.08 370.92 343.52 372.8 340.91C373.23 340.31 373.65 339.72 374.08 339.11C374.88 337.97 375.66 336.83 376.42 335.67C379.28 331.34 381.94 326.87 384.38 322.26C385.29 320.53 386.19 318.79 387.04 317.03C387.84 315.37 388.6 313.69 389.35 311.99C389.95 310.63 390.53 309.26 391.08 307.88C391.46 306.94 391.84 305.99 392.2 305.04C392.79 303.51 393.35 301.97 393.89 300.42C399.58 284.08 402.68 266.54 402.68 248.26C402.68 223.62 397.06 200.3 387.04 179.5C382.54 170.28 377.22 161.53 371.13 153.39ZM128.34 255.01L104.33 255.08C102.1 255.09 100.27 253.27 100.26 251.04C100.25 248.81 102.07 246.98 104.3 246.97L128.31 246.9C130.54 246.89 132.37 248.71 132.38 250.94C132.39 253.17 130.57 255 128.34 255.01ZM243 107.77C243 105.54 244.77 103.71 247 103.71C249.23 103.71 251 105.54 251 107.77V131.78C251 134.01 249.23 135.84 247 135.84C244.77 135.84 243 134.01 243 131.78V107.77ZM142.43 147.11C144 145.53 146.58 145.52 148.17 147.09L165.2 164C166.78 165.57 166.79 168.15 165.22 169.74C163.65 171.32 161.07 171.33 159.48 169.76L142.44 152.85C140.86 151.28 140.85 148.69 142.43 147.11ZM167.16 336.25L150.23 353.27C148.66 354.85 146.07 354.86 144.49 353.29C142.91 351.72 142.9 349.13 144.48 347.55L161.41 330.53C162.98 328.95 165.57 328.94 167.15 330.52C168.73 332.08 168.74 334.67 167.16 336.25ZM246.96 393.19C244.73 393.19 242.9 391.37 242.89 389.14L242.84 365.13C242.84 362.9 244.66 361.07 246.89 361.06C249.12 361.05 250.95 362.88 250.96 365.11L251.01 389.12C251.01 391.36 249.19 393.19 246.96 393.19ZM291.97 328.7L285.82 332.25L250.64 271.32C248.77 271.86 246.8 272.17 244.76 272.17C233.08 272.17 223.58 262.67 223.58 250.99C223.58 248.04 224.19 245.23 225.28 242.68L179.86 195.65C178.28 194.19 177.27 192.09 177.27 189.76C177.27 185.34 180.86 181.75 185.29 181.75C187.79 181.75 190.03 182.9 191.49 184.7L236.63 231.44C239.13 230.4 241.88 229.81 244.76 229.81C252.24 229.81 258.81 233.71 262.58 239.58L323.01 232.04C323.03 232.04 323.05 232.04 323.07 232.03H323.09C324.9 231.79 326.81 232.24 328.4 233.42C331.61 235.82 332.27 240.35 329.88 243.55C328.75 245.06 327.14 246.01 325.4 246.32C325.25 246.38 325.1 246.43 324.93 246.45L265.73 253.84C264.93 259.75 261.69 264.89 257.05 268.21L291.97 328.7ZM346.89 350.02C345.31 351.6 342.73 351.6 341.15 350.03L324.15 333.08C322.57 331.5 322.57 328.92 324.14 327.34C325.72 325.76 328.3 325.76 329.88 327.33L346.88 344.28C348.46 345.85 348.46 348.44 346.89 350.02ZM348.74 153.75L331.77 170.73C330.19 172.31 327.61 172.31 326.03 170.73C324.45 169.15 324.45 166.57 326.03 164.99L343 148.01C344.58 146.43 347.16 146.43 348.74 148.01C350.31 149.59 350.32 152.17 348.74 153.75ZM389.27 250.43C389.27 252.66 387.45 254.49 385.22 254.49L361.21 254.52C358.98 254.52 357.15 252.7 357.15 250.47C357.15 248.24 358.97 246.41 361.2 246.41L385.21 246.38C387.44 246.37 389.26 248.2 389.27 250.43Z" fill="white"/>
</svg>
