<svg width="491" height="491" viewBox="0 0 491 491" fill="none" xmlns="http://www.w3.org/2000/svg">
<path d="M245.64 0.0400391C110.19 0.0400391 0.389648 109.84 0.389648 245.29C0.389648 380.74 110.19 490.54 245.64 490.54C381.09 490.54 490.89 380.74 490.89 245.29C490.89 109.84 381.09 0.0400391 245.64 0.0400391ZM386.66 311.03C380.35 314.82 372.97 317 365.07 317H280.81H270.64V333.95H281.73C291.24 333.95 295.13 340.69 290.38 348.93L254.18 411.61C249.42 419.84 241.64 419.84 236.89 411.61L200.71 348.92C195.96 340.68 199.85 333.94 209.36 333.94H220.45V317H210.29H132.17C130.24 317 128.34 316.87 126.47 316.61C87.2197 312.67 56.5898 279.54 56.5898 239.26C56.5898 200.04 85.6299 167.62 123.37 162.29C129.01 131.61 155.89 108.36 188.2 108.36C198.97 108.36 209.13 110.96 218.11 115.54C235.26 94.36 261.46 80.8 290.82 80.8C334.94 80.8 371.89 111.38 381.71 152.49C395.11 154.1 405.51 165.3 405.89 179.02C423.34 193.27 434.5 214.95 434.5 239.25C434.49 271.59 414.74 299.31 386.66 311.03Z" fill="white"/>
<path d="M245.56 232.24C226.08 232.24 210.29 248.03 210.29 267.5L210.28 317H220.44L220.45 268.05C220.45 254.19 231.69 242.95 245.55 242.95C259.41 242.95 270.65 254.19 270.64 268.05L270.63 317H280.8L280.81 267.51C280.82 248.03 265.03 232.24 245.56 232.24Z" fill="white"/>
</svg>
