<svg width="492" height="492" viewBox="0 0 492 492" fill="none" xmlns="http://www.w3.org/2000/svg">
<path d="M245.8 0.919922C110.35 0.919922 0.549805 110.72 0.549805 246.17C0.549805 381.62 110.35 491.42 245.8 491.42C381.25 491.42 491.05 381.62 491.05 246.17C491.05 110.72 381.25 0.919922 245.8 0.919922ZM434 319.92V326.61C434 351.36 413.88 371.99 389.13 371.99H114.37C89.6198 371.99 68.9998 351.36 68.9998 326.61V319.92V182.75V177.38C68.9998 152.63 89.6198 133 114.37 133H119.74H383.76H389.13C413.88 133 434 152.64 434 177.38V182.75V319.92V319.92Z" fill="white"/>
<path d="M421.48 173H82.03C81.81 174 82 175.8 82 177.38V213H422V177.38C422 175.8 421.7 174 421.48 173Z" fill="white"/>
<path d="M182 326H111V338H182V326Z" fill="white"/>
<path d="M289 326H217V338H289V326Z" fill="white"/>
<path d="M395 326H324V338H395V326Z" fill="white"/>
<path d="M185 231H99V280H185V231Z" fill="white"/>
<path d="M298 231H213V249H298V231Z" fill="white"/>
<path d="M298 263H213V280H298V263Z" fill="white"/>
<path d="M400.2 266.46C400.2 265.85 400.16 265.25 399.6 265.05C399.62 265.53 400 266.02 400 266.5V266.51C400 266.03 399.74 265.55 399.72 265.07C399.6 265.03 399.35 265 399.22 265C399.35 265 399.42 265.02 399.54 265.06C399.2 255.52 395.49 246.56 389.02 239.54C388.81 239.74 388.59 239.94 388.39 240.13L388.38 240.14C394.45 246.74 398.27 255 398.64 265C398.65 265 398.83 265.73 398.84 266.1C398.84 266.24 399 266.37 399 266.51C399 266.51 399 266.51 399 266.52C399 266.38 398.84 266.25 398.84 266.11C398.84 265.74 398.66 265 398.64 265H380.76C380.64 259 379.78 252.56 378.26 247.11C377.56 247.45 376.85 247.77 376.13 248.07C377.56 253.22 378.36 259 378.48 265H361V251.13C363 251.11 364.72 250.98 366.55 250.71C366.88 250.66 367.08 250.62 367.32 250.58C370.34 250.07 373 249.22 376 248.06C377 247.76 377.49 247.45 378.19 247.11C378.68 246.88 379.19 246.63 379.67 246.38C379.94 246.23 380.21 246.1 380.45 245.96C383.3 244.36 385.97 242.4 388.37 240.15H388.38C388.58 239.96 388.79 239.77 388.99 239.56C389 239.55 389.01 239.55 389.01 239.54L389.66 238.9L389.03 238.24C388.86 238.06 388.68 237.88 388.5 237.7C388.47 237.67 388.44 237.64 388.4 237.61L387.75 236.99L387.11 237.62C387.1 237.63 387.09 237.64 387.08 237.64C380.94 231.81 372.99 228.14 364.99 227.04V227C363.28 226 361.31 225.72 359.49 225.72C357.67 225.72 356 226.16 354 227.01C346 228.06 338.93 231.44 332.94 236.8C332.93 236.79 333.01 236.79 333.01 236.78L332.42 236.12L331.77 236.74C331.57 236.92 331.38 237.12 331.15 237.35L330.5 237.99L331.14 238.65C331.15 238.66 331.15 238.66 331.16 238.67C331.33 238.85 331.5 239.02 331.68 239.2C331.71 239.23 331.74 239.25 331.76 239.28C334.01 241.51 336.5 243.48 339.16 245.12C339.42 245.28 339.67 245.43 339.91 245.57C340.37 245.84 340.83 246.1 341.3 246.35C341.99 246.72 342.7 247.07 343.41 247.4C346.14 248.66 349 249.62 351.95 250.25C352.26 250.32 352.54 250.37 352.79 250.42C354.5 250.75 355.99 250.95 357.99 251.06V265H340.86C340.98 259 341.86 252.73 343.4 247.41C342.69 247.08 341.98 246.74 341.29 246.37C339.64 252.01 338.7 258 338.57 265H320.69C321.08 255 324.99 245.99 331.99 239.3V239.29C331.99 239.26 331.82 239.23 331.79 239.21C331.61 239.03 331.38 238.86 331.21 238.68C324.24 245.82 320.32 255.13 319.96 265.06C319.94 265.54 319.98 266.03 319.98 266.51V266.5C319.98 266.01 319.91 265.53 319.93 265.05C319.38 265.25 319 265.85 319 266.46C319 267.07 318.99 267.66 319.99 267.86C319.99 267.87 319.99 267.88 319.99 267.89C319.99 277.86 324.23 287.18 331.22 294.34C331.22 294.34 331.18 294.35 331.17 294.35L330.52 295.01L331.17 295.65C331.4 295.87 331.6 296.07 331.8 296.25L332.47 296.87L333.1 296.21C333.1 296.21 333.11 296.2 333.11 296.19C339.1 301.55 346.44 304.93 354.34 305.97C355.83 306.71 357.37 307.12 358.94 307.22C359.11 307.29 359.29 307.32 359.47 307.32C359.63 307.32 359.78 307.29 359.93 307.24C361.66 307.2 363.35 306.77 364.98 305.97H364.99C373.27 304.87 380.94 301.21 387.07 295.38C387.08 295.39 387.09 295.4 387.1 295.4L387.74 296.03L388.39 295.41C388.42 295.38 388.45 295.35 388.48 295.32C388.66 295.14 388.84 294.96 389.01 294.78L389.64 294.12L388.99 293.48L388.98 293.47C395.46 286.43 399.14 277.47 399.46 267.89C399.34 267.93 398.97 267.99 398.83 267.99C398.96 267.99 398.97 267.93 398.97 267.88C398.97 267.87 398.97 267.86 398.97 267.85C400 267.66 400.2 267.06 400.2 266.46ZM366.95 228C366.6 228 366.25 227.96 365.9 227.9C364.51 227.67 363.11 227.58 361.68 227.5C363.11 227.57 364.52 227.65 365.91 227.87C366.26 227.94 366.6 228 366.95 228ZM361 227.15C361 226.99 360.94 226.84 360.88 226.69C360.94 226.83 361 226.99 361 227.15ZM366.99 247.91C366.74 247.95 366.49 248 366.2 248.04C364.49 248.3 363 248.42 361 248.45V228.53C365 229.15 369.63 232.95 372.89 239.42C373.83 241.28 374.64 243.3 375.35 245.45H375.34C372.66 246.58 369.87 247.41 366.99 247.91ZM379.23 243.53C378.97 243.68 378.73 243.81 378.51 243.93C378.16 244.12 377.81 244.29 377.46 244.47C376.69 242.14 375.79 239.95 374.77 237.94C372.54 233.54 369.87 230.24 366.95 228.19C374.43 229.61 381.16 233.17 386.47 238.2C384.28 240.25 381.84 242.05 379.23 243.53ZM359.67 226.66C359.15 226.66 358.62 226.68 358.1 226.7C358.04 226.84 357.99 226.99 357.99 227.15C357.99 226.99 358.03 226.84 358.09 226.7C358.62 226.68 359.15 226.66 359.67 226.66ZM341.18 243.18C340.94 243.04 340.7 242.89 340.47 242.75C338.04 241.24 335.77 239.45 333.73 237.43C338.9 232.82 345.29 229.56 352.35 228.22C349.44 230.27 346.79 233.56 344.57 237.94C343.66 239.74 342.85 241.68 342.14 243.73C341.82 243.54 341.5 243.37 341.18 243.18ZM353.23 247.76C352.95 247.71 352.69 247.65 352.43 247.59C349.59 246.98 346.85 246.03 344.23 244.79C344.89 242.89 345.63 241.08 346.47 239.4C349.63 233.12 354 229.35 358 228.57V248.36C356 248.26 354.8 248.06 353.23 247.76ZM378.48 268C378.37 273.99 377.57 279.79 376.14 284.96C376.14 284.96 376.14 284.96 376.13 284.96C373.33 283.8 370.4 282.95 367.38 282.44C367.13 282.4 366.88 282.35 366.55 282.3C364.72 282.03 363 281.9 361 281.88V268H378.48ZM352.39 304.82C352.74 304.89 353.09 304.96 353.45 305.01C354.89 305.24 356.35 305.4 357.84 305.46C356.35 305.39 354.89 305.24 353.45 305.01C353.09 304.96 352.74 304.89 352.39 304.82ZM344.23 288.22C346.85 286.98 349.59 286.03 352.43 285.42C352.69 285.36 352.95 285.31 353.23 285.25C354.8 284.95 356 284.75 358 284.64V304.43C354 303.65 349.63 299.88 346.47 293.6C345.63 291.93 344.89 290.12 344.23 288.22ZM358 306C358 306.11 358.02 306.21 358.05 306.31C358.02 306.21 358 306.11 358 306ZM359.71 306.35C359.7 306.35 359.68 306.35 359.67 306.35C359.68 306.35 359.7 306.35 359.71 306.35ZM361 306C361 306.11 360.96 306.22 360.93 306.32C360.96 306.22 361 306.11 361 306ZM361 304.49V284.57C363 284.59 364.49 284.72 366.2 284.98C366.48 285.02 366.56 285.06 366.82 285.11C369.7 285.6 373 286.43 375 287.57C375 289.72 373.65 291.74 372.72 293.6C369.46 300.07 365 303.87 361 304.49ZM358 268V281.95C356 282.06 354.51 282.26 352.8 282.59C352.54 282.64 352.27 282.69 351.95 282.76C348.99 283.39 346.13 284.35 343.41 285.61C343.41 285.61 343.4 285.61 343.4 285.62C341.85 280.28 340.98 273.99 340.87 268.01H358V268ZM320.66 266.52C320.66 266.63 320.66 266.75 320.66 266.86C320.66 266.75 320.66 266.63 320.66 266.52ZM338.58 268C338.7 274.99 339.63 281 341.29 286.66C340.83 286.91 340.37 287.17 339.91 287.43C339.67 287.57 339.42 287.72 339.16 287.88C336.5 289.52 334.01 291.49 331.76 293.72L331.75 293.73C325.21 287.02 321.06 277.98 320.7 267.99H338.58V268ZM340.47 290.26C340.71 290.11 340.94 289.97 341.18 289.83C341.5 289.64 341.82 289.47 342.14 289.29C342.85 291.34 343.66 293.28 344.57 295.08C346.8 299.48 349.46 302.78 352.38 304.83C345.3 303.49 338.88 300.23 333.71 295.61C335.76 293.57 338.03 291.78 340.47 290.26ZM366.96 304.82C369.88 302.77 372.53 299.48 374.76 295.08C375.78 293.07 376.68 290.87 377.45 288.55C377.8 288.73 378.16 288.9 378.5 289.09C378.72 289.21 378.96 289.34 379.22 289.49C381.83 290.97 384.27 292.76 386.46 294.81C381.16 299.85 374.44 303.4 366.96 304.82ZM388.39 292.89C388.38 292.88 388.38 292.88 388.38 292.88C385.97 290.62 383.31 288.67 380.47 287.07C380.23 286.93 379.98 286.8 379.71 286.65C379.24 286.4 378.76 286.15 378.28 285.92C379.8 280.45 380.66 273.99 380.77 268H398.65C398.66 268 399 267.29 399 266.95C399 266.92 399 266.89 399 266.86C399 266.89 399 266.93 399 266.96C399 267.3 398.82 268 398.81 268C398.46 277.99 394.47 286.28 388.39 292.89Z" fill="white"/>
</svg>
