<svg width="491" height="491" viewBox="0 0 491 491" fill="none" xmlns="http://www.w3.org/2000/svg">
<path d="M245.53 0.159912C110.08 0.159912 0.280273 109.96 0.280273 245.41C0.280273 380.86 110.08 490.66 245.53 490.66C380.98 490.66 490.78 380.86 490.78 245.41C490.78 109.96 380.98 0.159912 245.53 0.159912ZM401.51 306.5C382.66 306.77 371.45 327.66 381.64 343.52C395.16 364.56 371.55 389.68 349.71 377.5C333.25 368.31 313.1 380.79 313.99 399.63C315.18 424.61 282.17 434.57 269.35 413.09C259.69 396.9 236 397.64 227.36 414.39C215.9 436.62 182.34 428.73 181.97 403.73C181.7 384.88 160.81 373.67 144.95 383.86C123.91 397.38 98.7902 373.77 110.97 351.93C120.16 335.47 107.68 315.32 88.8403 316.21C63.8603 317.4 53.9001 284.39 75.3801 271.57C91.5701 261.91 90.8303 238.22 74.0803 229.58C62.2403 223.48 58.9402 211.1 62.2302 200.81C65.1102 191.78 73.0602 184.36 84.7402 184.19C103.59 183.92 114.8 163.03 104.61 147.17C91.0904 126.13 114.7 101.01 136.54 113.19C153 122.38 173.15 109.9 172.26 91.0599C171.07 66.0799 204.08 56.1299 216.9 77.5999C226.56 93.7899 250.25 93.0499 258.89 76.2999C270.35 54.0699 303.91 61.9599 304.28 86.9599C304.55 105.81 325.44 117.02 341.3 106.83C362.34 93.3099 387.46 116.92 375.28 138.76C366.09 155.22 378.57 175.37 397.41 174.48C413.9 173.69 423.84 187.81 422.52 201.18C421.84 208.07 418.17 214.76 410.87 219.12C394.68 228.78 395.42 252.47 412.17 261.11C434.41 272.57 426.52 306.14 401.51 306.5Z" fill="white"/>
<path d="M211.41 244.68C219.31 235.45 223.26 223.34 223.26 208.37C223.26 194.51 219.85 183.86 213.03 176.45C206.21 169.04 196.42 165.33 183.67 165.33C170.99 165.33 160.87 169.72 153.31 178.51C145.75 187.3 141.97 199.18 141.97 214.16C141.97 227.58 145.53 238.33 152.65 246.41C159.77 254.49 169.11 258.53 180.68 258.53C193.26 258.53 203.51 253.91 211.41 244.68ZM200.23 235.23C195.78 241.5 189.59 244.63 181.66 244.63C174.32 244.63 168.61 241.74 164.53 235.95C160.45 230.17 158.41 222.05 158.41 211.59C158.41 200.84 160.54 192.61 164.81 186.9C169.07 181.19 175.28 178.34 183.44 178.34C190.85 178.34 196.62 181.01 200.74 186.35C204.86 191.69 206.91 199.22 206.91 208.93C206.91 220.2 204.68 228.96 200.23 235.23Z" fill="white"/>
<path d="M294.11 171.11C294.11 168.22 293.16 166.01 291.27 164.49C289.38 162.97 286.62 162.21 282.98 162.21C282.09 162.21 280.98 162.27 279.64 162.38C278.31 162.49 276.75 162.66 274.97 162.88C274.75 167.85 272.32 175.82 267.68 186.79C263.04 197.76 256.46 211.19 247.94 227.05C240.15 241.36 230.14 258.93 217.91 279.77C204.64 302.39 198 315.66 198 319.59C198 322.56 199.02 324.74 201.06 326.15C203.1 327.56 206.34 328.26 210.79 328.26C211.38 328.26 212.55 328.22 213.44 328.15C214.33 328.08 215.99 327.93 217.99 327.7V327.59C217.99 323.36 219.73 316.12 224.07 305.85C228.41 295.58 234.92 281.85 244.04 264.64C252.34 248.92 262.69 230.31 275.3 208.81C287.91 187.31 294.11 174.74 294.11 171.11Z" fill="white"/>
<path d="M310.12 231.83C297.37 231.83 287.19 236.26 279.59 245.12C271.99 253.98 268.189 265.9 268.189 280.88C268.189 294.15 271.73 304.83 278.81 312.91C285.89 320.99 295.249 325.03 306.889 325.03C319.489 325.03 329.78 320.38 337.75 311.07C345.72 301.77 349.709 289.7 349.709 274.87C349.709 261 346.299 250.36 339.479 242.95C332.659 235.54 322.88 231.83 310.12 231.83ZM326.58 301.74C322.06 308.01 315.79 311.14 307.78 311.14C300.44 311.14 294.729 308.25 290.649 302.46C286.569 296.68 284.53 288.56 284.53 278.1C284.53 267.42 286.7 259.25 291.04 253.58C295.38 247.91 301.659 245.07 309.889 245.07C317.299 245.07 323.069 247.72 327.189 253.02C331.309 258.32 333.36 265.79 333.36 275.43C333.37 286.71 331.11 295.47 326.58 301.74Z" fill="white"/>
</svg>
