<svg width="491" height="491" viewBox="0 0 491 491" fill="none" xmlns="http://www.w3.org/2000/svg">
<path d="M245.3 97.6602C163.74 97.6602 97.3901 164.01 97.3901 245.57C97.3901 327.13 163.74 393.48 245.3 393.48C326.86 393.48 393.21 327.13 393.21 245.57C393.21 164.01 326.85 97.6602 245.3 97.6602ZM337.3 173.79C336.33 176.14 335.41 178.51 334.47 180.88C333.01 184.55 331.56 188.23 330.1 191.9C330.07 191.96 330 192.01 329.95 192.06C311.34 170.89 288.02 160.02 259.77 160.63C241.23 161.03 224.43 166.91 209.63 178.12C194.97 189.22 184.82 204 178.97 221C225.1 221 271.12 221 317.22 221C316.3 224 315.41 225.76 314.54 227.99C313.43 230.83 312.33 233.79 311.23 236.63C310.94 237.38 310.65 238.17 310.32 238.9C310.25 239.05 310.02 239.05 309.83 239.1C309.62 239.16 309.39 238.99 309.16 238.99C264.95 238.99 220.75 238.99 176.54 238.99C175.16 238.99 175.13 239.14 175.04 240.52C174.96 241.72 174.92 243 174.89 244.21C174.83 246.21 174.73 248.25 174.76 250.25C174.78 252.14 174.94 254.2 175.05 256.09C175.06 256.32 175.18 255.99 175.26 256.99C217.59 256.99 259.9 256.99 302.34 256.99C301.91 257.99 301.52 259.07 301.11 260.14C299.72 263.79 298.32 267.35 296.92 271C296.57 271.91 296.23 272.77 295.9 273.69C295.71 274.22 295.47 274.46 294.81 274.46C285.61 274.43 276.4 274.41 267.2 274.43C253.47 274.46 239.73 274.52 226 274.57C212.51 274.62 199.03 274.67 185.54 274.72C183.34 274.73 181.15 274.72 178.9 274.85C186.94 298.85 202.13 316.63 224.85 327.6C242.74 336.24 261.61 338.31 281.05 334.12C300.49 329.93 316.57 320 329.64 304.88C329.66 305.24 329.68 305.47 329.68 305.7C329.68 307.86 329.7 310.02 329.68 312.17C329.64 316.48 329.59 320.78 329.53 325.09C329.51 326.62 329.45 328.15 329.37 329.68C329.36 329.9 329.23 330.18 329.06 330.32C325.59 333.2 321.94 335.84 318.04 338.1C314.55 340.12 311.02 342.12 307.38 343.87C304.15 345.42 300.78 346.7 297.4 347.9C294.35 348.98 291.22 349.91 288.08 350.7C285.26 351.41 282.38 351.92 279.51 352.39C277.11 352.79 274.67 353.03 272.25 353.29C270.79 353.45 269.31 353.55 267.84 353.59C264.72 353.67 261.61 353.79 258.49 353.72C256.04 353.67 253.6 353.4 251.16 353.15C248.83 352.91 246.5 352.66 244.2 352.24C241.17 351.68 238.13 351.1 235.18 350.23C230.84 348.95 226.51 347.58 222.29 345.94C217.6 344.12 213.11 341.83 208.77 339.25C205.42 337.26 202.16 335.14 199.06 332.79C197.35 331.49 195.64 330.19 194.03 328.77C191.43 326.47 188.83 324.16 186.39 321.7C184.38 319.69 182.51 317.53 180.73 315.31C178.52 312.56 176.34 309.77 174.37 306.85C172.43 303.97 170.7 300.95 168.99 297.93C165.66 292 163.16 285.71 161.12 279.23C160.75 278.05 160.44 276.85 160.13 275.66C159.99 275.11 159.76 274.87 159.13 274.88C154.19 274.91 149.26 274.88 144.32 274.9C138.03 274.93 131.74 274.99 125.45 275.04C125.23 275.04 125.01 275.19 124.66 275.19C127.26 269.02 129.81 263.02 132.38 257.02C140.51 257.02 148.65 257.02 156.73 257.02C156.67 255.02 156.62 252.95 156.55 251.01C156.54 250.6 156.41 250.11 156.41 249.7C156.44 247.25 156.49 244.77 156.56 242.32C156.59 241.47 156.72 240.6 156.78 239.75C156.79 239.62 156.63 239.25 156.51 239.2C156.31 239.13 156.07 239.02 155.85 239.02C145.78 239.02 135.71 239.02 125.64 239.02C125.35 239.02 125.06 239.02 124.69 239.02C125.36 238.02 126 236.01 126.63 234.47C128.29 230.41 129.94 226.41 131.59 222.34C131.86 221.68 132.18 221.38 133.02 221.38C141.7 221.42 150.38 221.42 159.07 221.44C159.65 221.44 159.86 221.32 160.03 220.69C161.29 216.11 162.7 211.57 164.66 207.23C166.25 203.69 167.94 200.18 169.77 196.76C171.2 194.09 172.81 191.5 174.54 189.01C176.58 186.07 178.81 183.26 180.99 180.43C183.78 176.82 187.02 173.63 190.33 170.53C193.93 167.16 197.72 163.99 201.87 161.3C205.2 159.15 208.49 156.93 211.95 155.02C216.13 152.71 220.5 150.76 224.99 149.08C229.4 147.43 233.9 146.06 238.48 145C241.27 144.36 244.11 143.89 246.94 143.46C249.18 143.12 251.45 142.91 253.71 142.71C255.52 142.55 257.34 142.48 259.16 142.41C260.84 142.34 262.52 142.22 264.19 142.28C266.92 142.36 269.65 142.45 272.36 142.74C275.87 143.12 279.38 143.57 282.84 144.24C286.24 144.9 289.61 145.75 292.92 146.76C296.53 147.87 300.12 149.11 303.6 150.57C307.12 152.04 310.54 153.76 313.92 155.55C317.72 157.56 321.33 159.92 324.79 162.49C326.73 163.93 328.65 165.38 330.52 166.9C331.95 168.06 333.29 169.33 334.66 170.56C335.47 171.29 336.24 172.05 337.04 172.78C337.39 173.06 337.49 173.33 337.3 173.79Z" fill="white"/>
<path d="M245.3 0.319824C109.85 0.319824 0.0498047 110.12 0.0498047 245.57C0.0498047 381.02 109.85 490.82 245.3 490.82C380.75 490.82 490.55 381.02 490.55 245.57C490.55 110.12 380.75 0.319824 245.3 0.319824ZM368.11 365.94C335.96 398.09 293.21 415.8 247.74 415.8C202.27 415.8 159.52 398.09 127.37 365.94C95.2197 333.79 77.5098 291.04 77.5098 245.57C77.5098 200.1 95.2197 157.35 127.37 125.2C159.52 93.0502 202.27 75.3398 247.74 75.3398C293.21 75.3398 335.96 93.0502 368.11 125.2C400.26 157.35 417.97 200.1 417.97 245.57C417.97 291.04 400.26 333.79 368.11 365.94Z" fill="white"/>
</svg>
