<svg width="492" height="492" viewBox="0 0 492 492" fill="none" xmlns="http://www.w3.org/2000/svg">
<path d="M244.56 140.83C236.37 144.44 228.19 148.07 220.01 151.71C236.45 159.99 254.75 160.13 271.25 152.18C263.27 148.39 255.28 144.61 247.29 140.85C246.53 140.49 245.33 140.49 244.56 140.83Z" fill="white"/>
<path d="M245.8 0.560059C110.35 0.560059 0.549805 110.36 0.549805 245.81C0.549805 381.26 110.35 491.06 245.8 491.06C381.25 491.06 491.05 381.26 491.05 245.81C491.05 110.36 381.25 0.560059 245.8 0.560059ZM403 215.71C401 216.99 398.74 218.04 396.79 219.59C379.33 233.42 362.22 247.34 344.75 261.28C339.19 256.37 334 251.77 327 245.76C327 305.82 327 364.01 327 422.01C272 422.01 219 422.01 164 422.01C164 363.01 164 305.44 164 246.09C158 251.89 152.51 256.44 147.06 261.34C134.08 250.97 121.28 240.58 108.29 230.41C101.78 225.31 94.9898 220.61 87.9898 215.73C87.9898 215.2 87.9898 214.68 87.9898 214.15C104.99 197.65 122.04 181.1 139.06 164.73C141.63 162.26 145.07 160.08 148.35 158.72C163.85 152.3 179.56 146.37 195.04 139.92C199.28 138.15 201.94 138.67 205.43 141.77C206.26 142.51 207.1 143.22 207.95 143.91C219.27 138.92 230.59 133.95 241.88 128.91C242.52 128.62 243.21 127.59 243.23 126.88C243.35 122.5 243.26 118.11 243.31 113.72C243.33 112.39 242.81 111.94 241.53 111.66C238.36 110.97 235.17 110.29 232.12 109.2C225.69 106.89 220.37 102.93 216.78 97.0701C210.02 86.0401 209.61 74.33 214.04 62.45C217.4 53.46 223.74 47 232.84 43.79C245.9 39.2 257.85 41.9 268.4 50.53C276.58 57.23 280.86 66.11 281.42 76.7C281.64 80.81 279.27 83.57 275.5 83.78C272.06 83.97 269.53 81.43 269.16 77.49C269.03 76.09 268.92 74.66 268.57 73.3C265.91 62.99 259.13 56.7499 248.94 54.3999C242.1 52.8199 235.78 54.3899 230.4 59.1799C225.81 63.2699 223.7 68.54 223.1 74.48C222.15 83.99 226.8 92.9699 235.81 97.3999C239.4 99.1699 243.16 99.7499 247.04 100.15C252.25 100.68 253.99 102.64 254.01 107.84C254.03 113.64 254.26 119.46 253.93 125.24C253.7 129.13 254.46 131.79 258.64 132.71C259.71 132.95 260.65 133.71 261.68 134.19C268.95 137.62 276.22 141.05 283.49 144.48C284.6 143.6 285.68 142.7 286.75 141.74C290.26 138.61 292.89 138.18 297.11 139.94C312.6 146.39 328.21 152.33 343.71 158.74C346.99 160.1 349.96 162.29 352.53 164.76C369.56 181.13 386.97 197.67 402.97 214.16C403 214.66 403 215.18 403 215.71Z" fill="white"/>
</svg>
