<svg width="492" height="492" viewBox="0 0 492 492" fill="none" xmlns="http://www.w3.org/2000/svg">
<path d="M397.839 297.83C369.339 284.34 340.82 270.91 312.32 257.43C289.85 246.8 267.41 236.09 244.91 225.51C243.89 225.03 242.27 225.02 241.23 225.48C219.62 235.01 198.05 244.65 176.47 254.25C153.76 264.35 131.05 274.44 108.34 284.53C103.99 286.46 99.6097 288.32 95.2897 290.32C87.5897 293.89 83.3797 305.69 86.6097 314.39C89.6597 322.6 95.8397 326.68 104.28 327.69C106.17 327.92 108.09 327.93 109.99 327.93C157.21 327.94 204.42 327.94 251.64 327.94C299.43 327.94 347.22 327.94 395 327.92C396.81 327.92 398.64 327.87 400.41 327.59C408.36 326.33 412.8 319.2 410.41 311.48C408.42 304.96 403.839 300.67 397.839 297.83Z" fill="white"/>
<path d="M246.2 0.560059C110.75 0.560059 0.950195 110.36 0.950195 245.81C0.950195 381.26 110.75 491.06 246.2 491.06C381.65 491.06 491.45 381.26 491.45 245.81C491.45 110.36 381.65 0.560059 246.2 0.560059ZM426.07 322.16C424.26 328.66 420.7 333.77 414.98 337.44C408.97 341.3 402.35 342.41 395.37 342.41C300.07 342.4 204.79 342.43 109.49 342.34C105.05 342.34 100.52 341.85 96.1902 340.85C84.3802 338.1 75.8803 331.19 71.5203 319.66C70.5103 317 69.9902 314.22 68.9902 311.5C68.9902 308.64 68.9902 305.78 68.9902 302.91C69.9902 297.36 71.7303 291.83 75.0803 287.02C78.1103 282.67 81.4303 278.52 86.3003 276.3C98.9503 270.53 111.74 265.05 124.46 259.43C144.33 250.65 164.18 241.83 184.05 233.06C201.91 225.17 219.8 217.35 237.63 209.39C238.5 209 239.42 207.6 239.45 206.65C239.62 200.74 239.48 194.82 239.56 188.91C239.58 187.12 238.89 186.5 237.15 186.13C232.88 185.21 228.57 184.28 224.47 182.81C215.79 179.7 208.63 174.36 203.78 166.45C194.66 151.58 194.11 135.79 200.09 119.77C204.62 107.64 213.17 98.9401 225.44 94.6201C243.04 88.4201 259.16 92.07 273.39 103.71C284.42 112.74 290.19 124.71 290.94 139C291.23 144.54 288.04 148.27 282.96 148.54C278.32 148.79 274.91 145.37 274.42 140.06C274.25 138.17 274.1 136.24 273.62 134.41C270.03 120.5 260.89 112.09 247.15 108.93C237.93 106.81 229.41 108.91 222.16 115.37C215.97 120.89 213.12 127.99 212.32 135.99C211.04 148.82 217.31 160.91 229.46 166.89C234.31 169.27 239.38 170.06 244.61 170.6C251.64 171.31 253.99 173.96 254.01 180.97C254.03 188.79 254.35 196.64 253.9 204.43C253.6 209.67 254.62 213.26 260.25 214.51C261.69 214.83 262.97 215.86 264.35 216.51C292.09 229.6 319.84 242.69 347.59 255.76C367.15 264.98 386.74 274.12 406.26 283.43C411.64 285.99 415.99 289.71 419.78 294.4C423.73 299.29 425.97 305.04 426.97 310.95C426.97 313.62 426.97 316.29 426.97 318.96C427 320.02 426.37 321.07 426.07 322.16Z" fill="white"/>
</svg>
