<svg width="491" height="491" viewBox="0 0 491 491" fill="none" xmlns="http://www.w3.org/2000/svg">
<path d="M245.48 0.159912C110.03 0.159912 0.22998 109.96 0.22998 245.41C0.22998 380.86 110.03 490.66 245.48 490.66C380.93 490.66 490.73 380.86 490.73 245.41C490.73 109.96 380.93 0.159912 245.48 0.159912ZM354.39 284.92C352.07 287.9 349.67 290.88 347.22 293.85C313.2 334.92 267.52 373.35 245.5 386.97C218.42 370.21 155.48 315.91 122.54 265.33C120.72 262.54 118.99 259.75 117.36 256.99C106.92 239.24 100.71 222.24 101.68 207.84C105.2 155.39 149.46 143.74 149.46 143.74C206.23 129.09 245.5 172.25 245.5 172.25C245.5 172.25 284.69 129.09 341.46 143.74C341.46 143.74 385.76 155.39 389.27 207.84C390.75 229.69 375.69 257.54 354.39 284.92Z" fill="white"/>
</svg>
