<svg width="491" height="491" viewBox="0 0 491 491" fill="none" xmlns="http://www.w3.org/2000/svg">
<path d="M245.52 0.439941C110.07 0.439941 0.27002 110.24 0.27002 245.69C0.27002 381.14 110.07 490.94 245.52 490.94C380.97 490.94 490.77 381.14 490.77 245.69C490.77 110.24 380.97 0.439941 245.52 0.439941ZM269.29 361.23C268.74 364.97 266.24 366.88 261.53 366.89C248.57 366.94 235.61 366.92 222.65 366.92C173.45 366.92 124.22 366.89 75.02 366.97C71.13 366.98 68.01 366.14 66.01 362.56C66.01 359.38 66.01 356.21 66.01 353.03C68.01 344.83 72.69 338.38 81.5 336.08C83.02 335.68 84.67 335.68 86.18 335.23C87.02 334.98 88.14 334.35 88.4 333.62C89.83 329.71 92.78 328.74 96.56 328.75C113.49 328.8 130.42 328.76 147.35 328.76C177.37 328.76 207.39 328.8 237.41 328.74C241.77 328.73 245.66 329.02 247.19 334.12C247.37 334.72 248.83 335.16 249.75 335.29C263.21 337.29 271.25 347.91 269.29 361.23ZM448.15 293.13C440.72 298.04 431.02 297.11 424.36 290.99C423.04 289.78 421.51 288.58 419.85 288.01C413.7 285.9 407.55 283.8 401.4 281.69C398.7 283.08 395.47 283.43 392.39 282.38L260.64 237.65C257.37 236.54 254.93 234.09 253.69 231.11C249.98 229.84 246.27 228.57 242.56 227.3C242.19 227.17 241.81 227.07 241.23 226.9C236.12 233.11 231.89 232.47 228.52 225.28C228.2 224.61 227.29 223.92 226.56 223.79C225.34 223.58 224.12 223.44 222.85 223.31L215.84 245C214.55 248.99 210.23 251.2 206.24 249.91L203.4 248.99C199.61 249.95 197.2 253.58 198.55 257.92C198.88 258.97 200.1 259.95 201.15 260.54C207.7 264.2 210.06 269.74 207.92 276.85C207.54 278.11 207.07 279.35 206.66 280.6C203.77 289.38 197.54 292.68 188.82 289.87C169.34 283.59 149.88 277.24 130.41 270.91C126.14 269.52 121.84 268.21 117.62 266.68C110.74 264.19 107.54 257.8 109.55 250.8C110.13 248.77 110.74 246.74 111.46 244.76C113.68 238.62 118.91 235.43 125.42 236.16C130.44 236.72 134.76 230.99 132.67 226.25C132.65 226.2 132.61 226.15 132.59 226.1L128.8 224.88C124.81 223.59 122.6 219.27 123.89 215.28L147.38 142.56C148.67 138.57 152.99 136.36 156.98 137.65L161.28 139.04C162.24 138.5 162.91 137.45 163.61 135.58C164.99 131.88 165.13 128.74 161.14 126.97C155.21 124.33 152.89 118.25 154.65 112.02C155.19 110.11 155.83 108.24 156.48 106.37C159.13 98.8201 165.58 95.3901 173.13 97.8201C196.89 105.47 220.62 113.19 244.34 120.98C252.18 123.55 255.41 130.02 253.05 137.87C252.4 140.02 251.78 142.19 250.91 144.25C248.57 149.78 242.99 152.76 237.06 151.81C233 151.16 231.52 152.37 230.11 157.3C229.66 158.85 229.54 160.14 229.89 161.22L234.42 162.68C238.41 163.97 240.62 168.29 239.33 172.28L232.14 194.55C233.5 195.35 234.73 196.07 235.67 196.62C239.12 195.71 241.83 194.16 244.1 194.66C245.97 195.07 248.22 197.7 248.66 199.7C249.18 202.07 250.05 202.97 252.13 203.61C254.72 204.41 257.31 205.2 259.9 206C262.86 202.3 267.94 200.63 272.66 202.24L404.41 246.97C407.24 247.93 409.44 249.9 410.79 252.34C416.99 254.24 423.18 256.15 429.38 258.04C431.19 258.59 433.28 258.59 435.19 258.39C444.31 257.43 452.51 262.36 455.55 270.8C458.53 279.08 455.49 288.29 448.15 293.13Z" fill="white"/>
</svg>
