<svg width="492" height="491" viewBox="0 0 492 491" fill="none" xmlns="http://www.w3.org/2000/svg">
<path d="M245.8 0.0400391C110.35 0.0400391 0.549805 109.84 0.549805 245.29C0.549805 380.74 110.35 490.54 245.8 490.54C381.25 490.54 491.05 380.74 491.05 245.29C491.05 109.84 381.25 0.0400391 245.8 0.0400391ZM383.93 380.29C383.4 381.57 382.88 382.86 382.35 384.14C380.64 388.29 380.1 388.66 375.92 387.29C374.72 386.9 373.69 385.7 372.82 384.66C330.23 333.42 287.67 282.16 245.1 230.9C244.24 229.87 243.37 228.85 242.51 227.82C242.31 227.95 242.11 228.08 241.91 228.21C244.07 233.75 246.09 239.36 248.47 244.82C249.72 247.69 251.27 250.57 253.26 252.96C289.35 296.42 325.54 339.81 361.69 383.21C362.19 383.81 362.61 384.48 363.04 385.08C359.07 384.69 355.26 384.38 351.46 383.92C346.55 383.32 341 383.8 336.94 381.59C332.75 379.31 330.01 374.36 326.64 370.58C326.45 370.37 326.19 370.19 326.09 369.94C325.79 369.2 325.33 368.43 325.33 367.67C325.35 362.98 325.34 358.29 325.64 353.62C325.79 351.36 325.29 350.51 322.91 350.3C315.43 349.63 307.98 348.71 300.52 347.87C298.05 347.59 289.93 338.55 289.91 336.09C289.91 335.81 289.96 335.53 289.98 335.25C290.5 328.33 291.02 321.4 291.55 314.48C291.63 313.4 291.76 312.32 291.89 310.97C281.96 309.99 272.48 309.05 262.21 308.03C262.86 301.43 263.52 295.11 264.09 288.77C264.18 287.79 264.25 286.52 263.74 285.83C259.27 279.83 254.65 273.94 249.67 267.48C248.6 268.61 247.83 269.59 246.9 270.37C241.95 274.54 237.12 278.88 231.93 282.74C227.22 286.24 223.39 284.5 222.43 278.84C221.36 272.47 220.39 266.09 219.36 259.72C219.14 258.38 218.81 257.05 218.5 255.58C217.18 255.93 216.2 256.2 215.2 256.44C200.26 260.12 185.34 260.19 170.44 256.18C126.55 244.37 106.12 198.36 117.69 159.04C124.61 135.52 139.21 117.85 160.42 105.8C181.85 93.62 204.65 90.5301 228.2 98.3201C271.47 112.62 291.05 155.53 277.51 197.59C276.18 201.73 274.48 205.74 272.86 210.06C275.81 210.68 278.55 211.25 281.28 211.84C285.76 212.82 290.34 213.5 294.7 214.88C300.16 216.62 301.37 223.14 297.22 227.01C295.16 228.93 293.04 230.79 290.96 232.68C288.98 234.48 287.01 236.29 284.72 238.37C285.85 239.56 286.75 240.39 287.52 241.33C318.03 278.45 348.53 315.57 378.98 352.74C380.17 354.2 381.17 356.06 381.55 357.89C382.71 363.46 383.52 369.1 384.47 374.71C384.3 376.55 384.11 378.42 383.93 380.29Z" fill="white"/>
<path d="M179.26 128.43C169.23 127.38 159.78 134.99 158.71 144.97C157.62 155.19 165.09 164.45 175.23 165.44C185.44 166.44 194.77 158.99 195.86 148.98C197 138.48 189.77 129.53 179.26 128.43Z" fill="white"/>
</svg>
