<svg width="492" height="492" viewBox="0 0 492 492" fill="none" xmlns="http://www.w3.org/2000/svg">
<path d="M245.8 0.679688C110.35 0.679688 0.549805 110.48 0.549805 245.93C0.549805 381.38 110.35 491.18 245.8 491.18C381.25 491.18 491.05 381.38 491.05 245.93C491.05 110.48 381.25 0.679688 245.8 0.679688ZM420 339.78C420 343.16 419.31 346.36 417.78 349.19L417.67 349.17C413.96 356.1 406.72 361 398.35 361H105.91C102.61 361 99.4798 360.11 96.6598 358.81C96.5698 358.77 96.4798 358.66 96.3998 358.62L96.4098 358.57C92.3898 356.65 89.0298 353.54 86.7698 349.73L86.6698 349.96C84.8698 346.95 84.0098 343.47 84.0098 339.78V339.47C84.0098 339.13 84.0098 338.79 84.0098 338.44V149.27C84.0098 149.19 83.7398 149 83.8198 149H83.9398L83.6398 148.78L250.67 149H420.2C420.28 149 420.01 149.18 420.01 149.27V149H420.38L420.01 149.37V338.69C420.01 339.04 420.01 339.39 420.01 339.74V339.78H420Z" fill="white"/>
<path d="M420 149.37L260.55 267.02C255.61 270.66 248.08 270.6 243.15 266.95L83.9297 149H83.8097C83.7297 149 83.9997 149.18 83.9997 149.27V338.44C83.9997 338.79 83.9997 339.13 83.9997 339.47V162.13L197.53 246.32L86.8398 349.71C89.0998 353.52 92.4197 356.61 96.4397 358.53L208.1 254.21L252.01 286.76L296.61 253.75L408.43 357.92C405.31 359.47 401.75 360 397.97 360H106.03C102.68 360 99.5097 359.8 96.6597 358.58C99.4797 359.88 102.61 361 105.91 361H398.34C406.71 361 414.03 356.1 417.74 349.17L307.15 245.89L420 162.12V339.73C420 339.38 420 339.03 420 338.68V149.37Z" fill="white"/>
</svg>
