<svg width="492" height="492" viewBox="0 0 492 492" fill="none" xmlns="http://www.w3.org/2000/svg">
<path d="M245.92 0.560059C110.47 0.560059 0.669922 110.36 0.669922 245.81C0.669922 381.26 110.47 491.06 245.92 491.06C381.37 491.06 491.17 381.26 491.17 245.81C491.17 110.36 381.37 0.560059 245.92 0.560059ZM250.71 77.1201C292.71 77.1201 326.76 126 326.76 189H295.49C295.37 146 276.51 111.19 250.71 111.19C224.91 111.19 207.19 146 207.08 189H174.66C174.66 126 208.71 77.1201 250.71 77.1201ZM355 344.43C355 364.07 339.08 380 319.43 380H185.57C165.93 380 150 364.08 150 344.43V230.57C150 210.93 165.92 195 185.57 195H319.43C339.07 195 355 210.92 355 230.57V344.43Z" fill="white"/>
<path d="M251.02 240.24C233.43 240.24 219.31 254.5 219.31 272.09C219.31 284.56 228 295.34 237 300.57V338.86C237 346.7 244.66 353.11 252.5 353.11C260.34 353.11 268 346.7 268 338.86V300.57C275 295.34 284.23 284.55 284.23 272.09C284.23 254.5 268.61 240.24 251.02 240.24Z" fill="white"/>
</svg>
