<svg width="491" height="492" viewBox="0 0 491 492" fill="none" xmlns="http://www.w3.org/2000/svg">
<path d="M245.36 0.799805C109.91 0.799805 0.109863 110.6 0.109863 246.05C0.109863 381.5 109.91 491.3 245.36 491.3C380.81 491.3 490.61 381.5 490.61 246.05C490.61 110.6 380.81 0.799805 245.36 0.799805ZM245.36 430.18C167.91 430.18 105.13 376.53 105.13 310.36C105.13 260.69 144.71 203.71 193.63 173.44C193.45 172.85 193.34 172.23 193.34 171.57C193.34 168.64 195.25 166.2 197.77 165.69C197.1 164.68 196.7 163.42 196.7 162.04C196.7 159.1 198.52 156.66 200.91 156.16L181.75 106.36C181.66 105.98 181.58 105.57 181.52 105.13C180.02 94.5996 188.87 85.4498 199.49 86.1398L204.33 86.4597C208.99 86.7697 213.26 83.8498 214.67 79.3898L216.66 73.0897C217.42 66.8397 225.9 61.2197 232.15 61.9797L292.51 63.5098C298.77 64.2698 303.22 69.9597 302.46 76.2197L301.2 79.1298C299.81 82.3398 301.04 86.0897 304.06 87.8497L318.73 96.3796C324.18 99.5496 326.02 106.67 322.85 112.12L317.75 118.41C315.59 121.07 315.55 124.88 317.65 127.59C320.21 130.89 319.61 135.63 316.31 138.19L312.46 141.18L292.39 156.75C294.03 157.75 295.15 159.74 295.15 162.04C295.15 163.55 294.67 164.92 293.88 165.97C295.93 166.82 297.39 169 297.39 171.56C297.39 172.84 297.02 174.01 296.4 174.98C344.48 205.62 385.6 261.43 385.6 310.35C385.59 376.53 322.81 430.18 245.36 430.18Z" fill="white"/>
<path d="M251.76 289.31C234.34 282.1 226.94 276.9 226.94 266.49C226.94 258.48 232.75 249.27 248.16 249.27C260.97 249.27 269.18 253.67 273.39 256.08L278.71 242.87C272.9 239.47 265 236.26 253 235.86V217H239V236.66C222 239.66 209.25 252.28 209.25 268.89C209.25 286.31 222.1 295.52 242.52 303.52C257.33 309.53 265.26 316.33 265.26 327.34C265.26 338.75 255.71 346.96 241.5 346.96C230.29 346.96 219.91 343.16 212.7 338.35L207.64 351.76C214.65 356.77 227.01 360.37 238.01 360.57V381H252.01V359.98C271.01 356.58 283.22 341.76 283.22 325.95C283.21 308.13 272.38 297.72 251.76 289.31Z" fill="white"/>
</svg>
