<svg width="492" height="492" viewBox="0 0 492 492" fill="none" xmlns="http://www.w3.org/2000/svg">
<path d="M261.02 88.9003C261.2 88.7203 261.38 88.5503 261.56 88.3703C255.3 85.8103 248.42 84.6303 240.97 84.8703C217.28 85.6503 200.37 100.49 190.71 129.14C189 134.2 187.69 138.99 186.66 143.99H236.22C237.4 136.99 239.13 129.86 241.68 122.28C246.38 108.33 252.88 97.1503 261.02 88.9003Z" fill="white"/>
<path d="M269.27 92.4502C260.95 99.8602 254.37 110.61 249.57 124.84C247.34 131.46 245.77 138 244.66 144H299.18C295.84 130 289.12 110.11 275.89 97.6104C273.8 95.6304 271.59 93.9702 269.27 92.4502Z" fill="white"/>
<path d="M334.76 93.3103C325.29 84.3503 313.53 80.0802 299.83 80.5302C291.05 80.8202 283.2 83.0702 276.31 87.2302C278.13 88.5802 279.9 90.0602 281.6 91.6602C296.55 105.8 303.9 127.32 307.44 142.95C307.53 143.33 307.61 144 307.69 144H358.92C355.54 128 348.67 106.47 334.76 93.3103Z" fill="white"/>
<path d="M245.92 0.799805C110.47 0.799805 0.669922 110.6 0.669922 246.05C0.669922 381.5 110.47 491.3 245.92 491.3C381.37 491.3 491.17 381.5 491.17 246.05C491.17 110.6 381.37 0.799805 245.92 0.799805ZM397 381H132V144H178.18C179.3 139 180.81 132.59 182.82 126.59C187.51 112.63 194.02 101.41 202.16 93.1597C212.54 82.6297 225.51 77.0598 240.71 76.5598C250.95 76.2298 260.27 78.2098 268.59 82.4298C277.49 76.0698 287.87 72.6498 299.58 72.2698C315.55 71.7498 329.34 76.8297 340.48 87.3597C355.43 101.5 362.78 123.02 366.32 138.65C366.74 140.5 367.11 142 367.45 144H397V381Z" fill="white"/>
<path d="M366.39 174H366.29C364.05 174 362.2 171.98 362.15 169.74C362.15 169.59 362 164.86 361.11 157.66C356.59 159.67 353.41 164.2 353.41 169.44C353.41 176.53 359.21 182.32 366.29 182.32C373.38 182.32 379.17 176.52 379.17 169.44C379.17 163.43 375 158.37 369.42 156.96C370.3 164.35 370.43 169.22 370.44 169.55C370.5 171.84 368.68 174 366.39 174Z" fill="white"/>
<path d="M237.87 173.59C236.76 173.59 235.72 173.16 234.94 172.37C234.16 171.59 233.73 170.54 233.73 169.44C233.73 169.01 233.75 164.25 234.47 157.03C229.03 158.54 224.99 163.53 224.99 169.44C224.99 176.53 230.79 182.32 237.87 182.32C244.96 182.32 250.75 176.52 250.75 169.44C250.75 164.08 247.44 159.47 242.76 157.53C242.06 164.44 242.02 169.04 242.02 169.45C242.01 171.73 240.15 173.59 237.87 173.59Z" fill="white"/>
</svg>
