<svg width="491" height="491" viewBox="0 0 491 491" fill="none" xmlns="http://www.w3.org/2000/svg">
<path d="M245.52 0.209961C110.07 0.209961 0.27002 110.01 0.27002 245.46C0.27002 380.91 110.07 490.71 245.52 490.71C380.97 490.71 490.77 380.91 490.77 245.46C490.77 110.01 380.97 0.209961 245.52 0.209961ZM401.5 306.55C382.65 306.82 371.44 327.71 381.63 343.57C395.15 364.61 371.54 389.73 349.7 377.55C333.24 368.36 313.09 380.84 313.98 399.68C315.17 424.66 282.16 434.62 269.34 413.14C259.68 396.95 235.99 397.69 227.35 414.44C215.89 436.67 182.33 428.78 181.96 403.78C181.69 384.93 160.8 373.72 144.94 383.91C123.9 397.43 98.78 373.82 110.96 351.98C120.15 335.52 107.67 315.37 88.83 316.26C63.85 317.45 53.89 284.44 75.37 271.62C91.56 261.96 90.82 238.27 74.07 229.63C62.23 223.53 58.93 211.15 62.22 200.86C65.1 191.83 73.05 184.41 84.73 184.24C103.58 183.97 114.79 163.08 104.6 147.22C91.08 126.18 114.69 101.06 136.53 113.24C152.99 122.43 173.14 109.95 172.25 91.11C171.06 66.13 204.07 56.18 216.89 77.65C226.55 93.84 250.24 93.1 258.88 76.35C270.34 54.12 303.9 62.01 304.27 87.01C304.54 105.86 325.43 117.07 341.29 106.88C362.33 93.36 387.45 116.97 375.26 138.81C366.07 155.27 378.55 175.42 397.39 174.53C413.88 173.74 423.82 187.86 422.5 201.23C421.82 208.12 418.15 214.81 410.85 219.17C394.66 228.83 395.4 252.52 412.15 261.16C434.39 272.62 426.51 306.19 401.5 306.55Z" fill="white"/>
<path d="M103.57 209.26C108.45 208.46 115.72 207.87 123.78 207.87C133.74 207.87 140.71 209.36 145.49 213.15C149.47 216.34 151.66 221.02 151.66 227.19C151.66 235.75 145.59 241.63 139.81 243.72V244.02C144.49 245.91 147.08 250.39 148.77 256.57C150.86 264.14 152.95 272.9 154.25 275.49H138.72C137.62 273.6 136.03 268.12 134.04 259.86C132.25 251.5 129.36 249.2 123.19 249.11H118.61V275.5H103.57V209.26V209.26ZM118.6 238.14H124.58C132.15 238.14 136.63 234.36 136.63 228.48C136.63 222.31 132.45 219.22 125.48 219.12C121.8 219.12 119.7 219.42 118.61 219.62V238.14H118.6Z" fill="white"/>
<path d="M202.55 247.1H177.85V263.03H205.43V275.48H162.61V208.36H204.03V220.81H177.84V234.75H202.54V247.1H202.55Z" fill="white"/>
<path d="M229.24 221.11H211.22V208.36H262.8V221.11H244.48V275.48H229.24V221.11Z" fill="white"/>
<path d="M279.33 258.26L274.55 275.49H258.82L279.33 208.37H299.25L320.06 275.49H303.73L298.55 258.26H279.33V258.26ZM296.36 246.9L292.18 232.66C290.99 228.68 289.79 223.7 288.79 219.71H288.59C287.59 223.69 286.6 228.77 285.5 232.66L281.52 246.9H296.36Z" fill="white"/>
<path d="M344.26 208.37V275.49H329.02V208.37H344.26Z" fill="white"/>
<path d="M357.4 208.37H372.64V262.74H399.33V275.49H357.4V208.37Z" fill="white"/>
</svg>
