<svg width="491" height="492" viewBox="0 0 491 492" fill="none" xmlns="http://www.w3.org/2000/svg">
<path d="M245.52 0.560059C110.07 0.560059 0.27002 110.36 0.27002 245.81C0.27002 381.26 110.07 491.06 245.52 491.06C380.97 491.06 490.77 381.26 490.77 245.81C490.77 110.36 380.97 0.560059 245.52 0.560059ZM247.23 31.98C247.23 31.98 247.33 31.9399 247.48 31.9399C247.55 31.9399 247.68 31.8501 247.68 31.8501C248.02 31.9201 248.36 32.1601 249.05 32.3501C255.19 34.2801 276.28 43 286.6 81H249.05H247.8H247.27H208.47C219.82 39 243.34 32.77 247.23 31.98ZM322.03 363.03C322.03 363.03 313.25 337.94 289.71 333.06C289.7 333.1 289.69 333.14 289.67 333.19C288.09 338.23 283.6 348.84 272.24 357C285.8 365.29 290.89 382.65 290.89 382.65C298.7 426.02 280.62 426.55 280.62 426.55C282.77 423.05 280.59 416.05 280.59 416.05C276.82 403.66 269.21 413.09 269.21 413.09C266.23 460.79 254.48 461.71 249.02 458.91C246.97 457.92 245.64 456.46 245.64 456.46C246.98 454.28 248.33 452.22 249.01 450.27C255.15 437.83 252.99 430.02 248.99 425.29V424.91C244.99 420.42 240.62 421.41 240.62 421.41C232.81 423.03 230.02 431.42 230.02 431.42C222.72 435.33 219.26 423.53 217.63 410.31C217.04 405.51 207.23 427.89 207.03 423.4C206.64 414.71 216.25 380.51 216.25 380.51C211.11 376.74 204.69 391.28 204.69 391.28C202.22 363.86 214.94 356.64 222.62 354.75C213.09 346.8 209.15 337.37 207.73 332.9C207.71 332.85 207.7 332.81 207.69 332.77C182.79 336.73 173.44 363.18 173.44 363.18C129.54 265.41 188.41 222.17 188.41 222.17C188.58 226.98 188.32 220.7 188.16 212.33C188.16 212.33 185.29 142.02 204.32 89.02H247.77H291.25C310.28 142.02 307.41 212.33 307.41 212.33C307.35 215.62 307.25 218.92 307.14 222.04C310 224.18 364.81 267.76 322.03 363.03Z" fill="white"/>
<path d="M249.14 171.3C266 171.3 279.72 157.58 279.72 140.72C279.72 123.86 266 110.14 249.14 110.14C232.28 110.14 218.56 123.86 218.56 140.72C218.56 157.58 232.28 171.3 249.14 171.3ZM229.87 127.73C230.08 127.42 230.29 127.12 230.52 126.82C230.97 126.22 231.44 125.65 231.94 125.1C232.44 124.55 232.97 124.02 233.52 123.52C234.35 122.77 235.23 122.08 236.15 121.45C237.08 120.82 238.05 120.26 239.07 119.77C239.75 119.44 240.44 119.15 241.15 118.89C241.86 118.63 242.59 118.4 243.33 118.21C245.19 117.73 247.13 117.48 249.14 117.48C251.15 117.48 253.09 117.73 254.95 118.21C255.69 118.4 256.42 118.63 257.13 118.89C257.84 119.15 258.54 119.45 259.22 119.77C260.24 120.26 261.21 120.82 262.14 121.45C263.69 122.49 265.1 123.72 266.35 125.1C266.85 125.65 267.32 126.22 267.77 126.82C267.99 127.12 268.21 127.42 268.42 127.73C270.93 131.44 272.39 135.91 272.39 140.72C272.39 144.73 271.37 148.51 269.58 151.8C269.22 152.46 268.83 153.1 268.42 153.72C268.21 154.03 268 154.33 267.77 154.63C267.32 155.23 266.85 155.8 266.35 156.35C265.1 157.73 263.69 158.95 262.14 160C261.21 160.63 260.24 161.19 259.22 161.68C256.17 163.15 252.75 163.97 249.14 163.97C245.53 163.97 242.11 163.15 239.06 161.68C238.04 161.19 237.07 160.63 236.14 160C235.21 159.37 234.33 158.68 233.51 157.93C232.96 157.43 232.43 156.9 231.93 156.35C231.43 155.8 230.96 155.23 230.51 154.63C230.29 154.33 230.07 154.03 229.86 153.72C229.44 153.1 229.05 152.46 228.7 151.8C226.91 148.51 225.89 144.73 225.89 140.72C225.9 135.91 227.36 131.44 229.87 127.73Z" fill="white"/>
<path d="M249.28 184.82C240.92 184.82 234.11 191.62 234.11 199.99C234.11 208.35 240.91 215.16 249.28 215.16C257.64 215.16 264.45 208.36 264.45 199.99C264.45 191.62 257.65 184.82 249.28 184.82ZM259.42 205.48C259.24 205.81 259.05 206.12 258.84 206.43C258.74 206.58 258.63 206.73 258.52 206.88C258.3 207.18 258.06 207.46 257.82 207.73C257.2 208.41 256.5 209.02 255.73 209.54C255.27 209.85 254.79 210.13 254.28 210.37C252.77 211.1 251.07 211.51 249.28 211.51C247.49 211.51 245.79 211.1 244.28 210.37C243.78 210.13 243.29 209.85 242.83 209.54C242.37 209.23 241.93 208.89 241.52 208.51C241.25 208.26 240.99 208 240.74 207.73C240.49 207.46 240.26 207.17 240.04 206.88C239.93 206.73 239.82 206.58 239.72 206.43C239.51 206.12 239.32 205.81 239.14 205.48C238.25 203.85 237.75 201.97 237.75 199.99C237.75 197.6 238.48 195.38 239.72 193.54C239.82 193.39 239.93 193.24 240.04 193.09C240.26 192.79 240.5 192.51 240.74 192.24C240.99 191.97 241.25 191.71 241.52 191.46C241.93 191.09 242.37 190.74 242.83 190.43C243.29 190.12 243.77 189.84 244.28 189.6C244.62 189.44 244.96 189.29 245.31 189.16C245.66 189.03 246.02 188.92 246.39 188.82C247.31 188.58 248.28 188.46 249.27 188.46C250.26 188.46 251.23 188.59 252.15 188.82C252.52 188.91 252.88 189.03 253.23 189.16C253.58 189.29 253.93 189.44 254.26 189.6C254.76 189.84 255.25 190.12 255.71 190.43C256.48 190.95 257.18 191.56 257.8 192.24C258.05 192.51 258.28 192.8 258.5 193.09C258.61 193.24 258.72 193.39 258.82 193.54C260.06 195.38 260.79 197.6 260.79 199.99C260.81 201.97 260.31 203.85 259.42 205.48Z" fill="white"/>
<path d="M249.14 152.5C255.64 152.5 260.92 147.21 260.92 140.72C260.92 134.22 255.63 128.94 249.14 128.94C242.64 128.94 237.36 134.23 237.36 140.72C237.36 147.22 242.64 152.5 249.14 152.5ZM241.71 135.71C241.79 135.59 241.87 135.47 241.96 135.36C242.13 135.13 242.31 134.91 242.51 134.7C242.7 134.49 242.91 134.29 243.12 134.09C243.44 133.8 243.78 133.53 244.13 133.29C244.49 133.05 244.86 132.83 245.25 132.64C245.51 132.51 245.78 132.4 246.05 132.3C246.32 132.2 246.6 132.11 246.89 132.04C247.61 131.86 248.36 131.76 249.13 131.76C249.9 131.76 250.65 131.86 251.37 132.04C251.66 132.11 251.94 132.2 252.21 132.3C252.48 132.4 252.75 132.51 253.01 132.64C253.4 132.83 253.78 133.05 254.13 133.29C254.73 133.69 255.27 134.16 255.75 134.69C255.94 134.9 256.13 135.12 256.3 135.35C256.39 135.46 256.47 135.58 256.55 135.7C257.52 137.13 258.08 138.85 258.08 140.71C258.08 142.26 257.69 143.71 257 144.98C256.86 145.23 256.71 145.48 256.55 145.72C256.47 145.84 256.39 145.96 256.3 146.07C256.13 146.3 255.95 146.52 255.75 146.73C255.27 147.26 254.72 147.73 254.13 148.13C253.77 148.37 253.4 148.59 253.01 148.78C251.84 149.35 250.52 149.66 249.13 149.66C247.74 149.66 246.42 149.34 245.25 148.78C244.86 148.59 244.48 148.38 244.13 148.13C243.77 147.89 243.43 147.62 243.12 147.33C242.91 147.14 242.71 146.93 242.51 146.72C242.32 146.51 242.13 146.29 241.96 146.06C241.87 145.95 241.79 145.83 241.71 145.71C241.55 145.47 241.4 145.23 241.26 144.97C240.57 143.7 240.18 142.25 240.18 140.7C240.18 138.87 240.75 137.14 241.71 135.71Z" fill="white"/>
</svg>
