<svg width="491" height="491" viewBox="0 0 491 491" fill="none" xmlns="http://www.w3.org/2000/svg">
<path d="M225.39 354.39C214.71 349.63 201.9 353.35 195.55 363.57C188.61 374.72 192.02 389.4 203.18 396.34C214.33 403.28 229.01 399.85 235.95 388.7C242.89 377.55 239.46 362.88 228.3 355.94C227.36 355.35 226.39 354.84 225.39 354.39Z" fill="white"/>
<path d="M136.19 278.08C127.64 268.11 112.62 266.95 102.65 275.5C92.6799 284.05 91.5301 299.08 100.08 309.05C108.63 319.02 123.65 320.16 133.62 311.61C142.75 303.78 144.48 290.55 138.16 280.72C137.56 279.8 136.91 278.92 136.19 278.08Z" fill="white"/>
<path d="M245.48 0.0400391C110.03 0.0400391 0.22998 109.84 0.22998 245.29C0.22998 380.74 110.03 490.54 245.48 490.54C380.93 490.54 490.73 380.74 490.73 245.29C490.73 109.84 380.93 0.0400391 245.48 0.0400391ZM386.19 137.68C386.05 137.81 385.91 137.96 385.76 138.1L273.32 249.57L255.11 284.7L232.75 337.8C234.5 338.57 236.21 339.48 237.89 340.52C257.56 352.75 263.58 378.61 251.35 398.28C239.12 417.95 213.26 423.97 193.59 411.74C173.92 399.51 167.89 373.65 180.12 353.99L220.78 288.62L220.92 288.6L236.28 262.22L234.59 256.73L228.6 255.82L203.94 275.38L145.42 325.4C127.84 340.48 101.36 338.45 86.29 320.87C71.21 303.29 73.2398 276.82 90.8198 261.74C108.4 246.66 134.88 248.69 149.95 266.27C151.24 267.77 152.39 269.32 153.42 270.94L202.41 241.34L235.77 217.29L329.78 89.5801C329.9 89.4201 330.02 89.25 330.13 89.1C333.78 84.38 340.49 83.0901 345.68 86.3101C350.87 89.5401 352.68 96.1301 350.05 101.49C349.96 101.68 349.86 101.87 349.77 102.05L322.41 154.84L370.51 120.17C370.67 120.05 370.85 119.92 371.02 119.81C375.94 116.43 382.72 117.26 386.67 121.92C390.63 126.55 390.33 133.38 386.19 137.68Z" fill="white"/>
<path d="M259.08 225.15C253.68 221.79 246.581 223.45 243.221 228.85C239.861 234.25 241.52 241.36 246.92 244.72C252.32 248.08 259.43 246.42 262.79 241.02C266.14 235.61 264.48 228.51 259.08 225.15Z" fill="white"/>
</svg>
