<svg width="492" height="492" viewBox="0 0 492 492" fill="none" xmlns="http://www.w3.org/2000/svg">
<path d="M249 249.9C276.14 218.07 272.34 170.26 240.51 143.12C224.32 129.32 204 123.51 184.36 125.33C165.4 127.09 147.07 135.96 133.73 151.6C106.59 183.44 110.39 231.24 142.22 258.39C149.21 264.35 156.96 268.81 165.1 271.82C194.04 282.52 227.81 274.75 249 249.9Z" fill="white"/>
<path d="M246.2 0.919922C110.75 0.919922 0.950195 110.72 0.950195 246.17C0.950195 381.62 110.75 491.42 246.2 491.42C381.65 491.42 491.45 381.62 491.45 246.17C491.45 110.72 381.65 0.919922 246.2 0.919922ZM403.23 382.06C392.78 394.32 370.85 392.79 354.26 378.64L279.98 315.3L280 315.28L279.86 315.16C278.36 313.88 278.06 311.77 279.19 310.44L283.37 305.53L255.05 281.38C217.36 311.21 162.65 311.3 124.69 278.92C81.5102 242.1 76.3502 177.25 113.17 134.06C149.99 90.8799 214.85 85.7199 258.03 122.54C296.69 155.51 304.86 210.93 279.74 253.16L307.7 277L312.94 270.85C314.07 269.52 316.2 269.48 317.71 270.76L326.81 278.52C326.82 278.53 326.83 278.54 326.84 278.55L392.13 334.22C408.71 348.39 413.69 369.8 403.23 382.06Z" fill="white"/>
</svg>
