<svg width="492" height="491" viewBox="0 0 492 491" fill="none" xmlns="http://www.w3.org/2000/svg">
<path d="M245.92 0.319824C110.47 0.319824 0.669922 110.12 0.669922 245.57C0.669922 381.02 110.47 490.82 245.92 490.82C381.37 490.82 491.17 381.02 491.17 245.57C491.17 110.12 381.37 0.319824 245.92 0.319824ZM402.86 337.9C400.55 342.29 397.22 343.98 392.91 345.22C371.67 351.29 349.92 354.65 328.12 357.91C309.65 360.67 291.14 362.24 272.47 361.47C261.48 361.02 250.63 359.77 240.27 355.65C234.27 353.26 230.04 349.02 226.72 343.69C219.74 332.46 215.7 320.03 212.19 307.41C204.55 279.93 195.41 253.03 181.26 228.1C179.31 224.66 176.94 221.32 174.17 218.53C172.92 217.26 170.17 216.95 168.15 217.08C164.66 217.31 161.17 218.02 157.77 218.88C153.93 219.86 152.6 221.68 152.48 225.55C151.66 253.11 150.67 280.67 150.17 308.23C149.97 319.38 150.94 348.18 151.35 359.34C151.49 363.23 150.87 363.99 146.99 363.96C144.19 363.93 141.34 363.85 138.61 363.31C137.69 363.13 136.36 361.43 136.4 360.48C137.43 338.48 135.26 299.02 133.17 277.17C131.15 256.07 127.62 235.25 120.87 215.15C116.72 202.79 111.14 190.91 106.79 178.61C104.32 171.62 103.17 164.17 103.84 156.66C105.17 141.85 111.74 129.15 120.19 117.29C127.33 107.28 135.93 98.74 146.26 91.98C147.42 91.22 148.38 90.1701 149.87 88.8701C153.44 93.5601 157.08 97.9999 160.36 102.69C183.35 135.61 206.53 168.4 229.07 201.62C237.72 214.37 242.63 229.13 247.86 243.59C248.92 246.52 249.92 249.47 250.87 252.44C255.42 266.68 265.51 274.52 279.91 276.73C285.41 277.57 291.18 277.46 296.73 276.91C305.55 276.04 313.64 278.08 321.08 282.32C340.02 293.1 360.57 300.37 380.13 309.77C386.55 312.86 392.89 316.21 398.95 319.96C406 324.33 406.73 330.54 402.86 337.9Z" fill="white"/>
</svg>
