<svg width="491" height="492" viewBox="0 0 491 492" fill="none" xmlns="http://www.w3.org/2000/svg">
<path d="M245.36 0.679688C109.91 0.679688 0.109863 110.48 0.109863 245.93C0.109863 381.38 109.91 491.18 245.36 491.18C380.81 491.18 490.61 381.38 490.61 245.93C490.61 110.48 380.81 0.679688 245.36 0.679688ZM433.38 206.9C426.4 206.9 420.39 201.61 419.4 194.87C419.41 194.48 419.42 193.93 419.39 193.53C419.38 193.4 419.54 192.99 419.53 192.99H419.27H419.24H419.23L394.99 193.3V193H392.59C392.59 193 392.82 193.41 392.83 193.54C392.95 195.81 392.99 198.09 394.99 199.96V376H399.73C403.03 376 405.99 378.65 405.99 381.95V403.48C405.99 406.78 403.03 409 399.73 409H88.2198C84.9198 409 81.9799 406.78 81.9799 403.48V381.95C81.9799 378.65 84.9198 376 88.2198 376H92.9799V204.72C90.9799 206.15 88.3199 207 85.6099 207C78.2099 207 71.9698 200.69 71.9498 193.39C71.9798 200.69 66.1399 207.01 58.7499 207.01C51.3499 207.01 45.1699 200.83 45.1699 193.52L45.1898 193.49C45.2198 193.46 45.2599 193.43 45.2899 193.39L71.8999 193.38L77.1399 183.3C77.1999 183.25 77.2598 183.2 77.3198 183.16L92.9899 153.21L112.12 115.99H92.9999H92.0599H91.9999V107.99H88.0399C87.0299 107.99 85.9999 106.91 85.9999 105.9V88.7297C85.9999 87.7197 87.0299 86.9897 88.0399 86.9897H92.9999V84.4697C92.9999 79.4297 96.7498 74.9897 101.66 74.9897H385.65C390.55 74.9897 395.01 79.4297 395.01 84.4697V86.9897H399.27C400.28 86.9897 401.01 87.7197 401.01 88.7297V105.9C401.01 106.91 400.28 107.99 399.27 107.99H395V115.75L394.51 115.99H375H374.56H374.48L394.99 150.56L413.63 183.18C416.74 185.41 418.8 188.72 419.28 192.62C419.29 185.79 424.76 180.35 431.85 180.35C435.98 182.19 437.52 187.76 446.08 193.15L446.17 193.29C446.61 200.59 440.77 206.9 433.38 206.9Z" fill="white"/>
<path d="M392.59 193C392.58 193 392.57 193 392.56 193H392.41L388.1 184.27C385.58 181.96 382.23 180.45 378.61 180.45C371.44 180.45 365.88 186 365.93 193C365.93 193 365.93 193.32 365.93 193.44C365.92 193.31 365.9 193 365.89 193H365.93C365.8 186 371.39 180.37 378.62 180.37C382.24 180.37 385.59 181.9 388.11 184.21L354.34 116H354.33H354.23L354.01 115.95V116H334.26H334.16L362.71 185.47C362.76 185.53 362.81 185.6 362.86 185.67L365.87 193.01H339.23C339.23 193.05 339.23 193.01 339.23 193.01H339.22C339.21 193.01 339.2 193.01 339.19 193.01H339.16H339.05L337.14 187.14C334.66 183.2 330.25 180.47 325.32 180.47C318.15 180.47 312.54 186.01 312.53 193.01H312.52H312.51C312.5 193.01 312.49 193.01 312.48 193.01H312.52C312.44 186.01 318.09 180.39 325.31 180.39C330.24 180.39 334.65 183.14 337.13 187.08L313.97 116.01H313.9H294H293.94H293.81L311.36 188.65C311.4 188.74 311.43 188.83 311.47 188.92L312.46 193.01H285.84C285.84 193.06 285.84 193.01 285.84 193.01H285.83C285.82 193.01 285.81 193.01 285.81 193.01H285.76H285.71L285.32 190.55C283.67 184.81 278.29 180.47 272.04 180.48C264.87 180.48 259.22 186.01 259.15 193.01H259.14H259.13C259.12 193.01 259.11 193.01 259.11 193.01H259.07C259.05 192.79 259.02 192.57 258.99 192.36L258.94 191.81C259.02 192.28 259.07 193.01 259.1 193.01H259.14C259.12 186.01 264.81 180.39 272.04 180.39C278.29 180.39 283.67 184.75 285.32 190.48L273.65 116.01H253.46V115.97V116.01L253.6 118L258.79 191.08C258.79 191.1 258.8 191.11 258.8 191.13L258.76 193.52L232.03 193.55C232.03 193.56 232.03 194.01 232.03 194.01H232.43C232.43 194.01 232.03 193.68 232.03 193.74V193.73C233.03 201.03 238.6 206.96 245.99 206.95C253.33 206.95 259.2 200.93 259.05 193.69C259.05 193.7 259.1 193.71 259.1 193.72C259.1 193.7 259.13 193.67 259.13 193.65C259.37 200.94 265.56 206.9 272.94 206.9C280.27 206.9 286.02 200.91 285.85 193.69C285.85 193.7 285.86 193.71 285.86 193.72C285.86 193.7 285.86 193.67 285.86 193.65C286.13 200.94 292.33 206.9 299.71 206.9C307.04 206.9 312.99 200.92 312.8 193.7C312.8 193.71 313.04 193.71 313.04 193.72C313.04 193.7 313.04 193.67 313.04 193.65C313.04 200.94 319.32 206.9 326.7 206.9C334.03 206.9 339.6 200.92 339.38 193.7L339.32 193.71C339.32 193.68 339.29 193.66 339.29 193.64C339.61 200.93 345.89 206.89 353.27 206.89C360.65 206.89 366.04 200.83 366.04 193.55C366.04 193.58 366.04 193.61 366.04 193.63C366.04 200.92 372.81 206.89 380.2 206.89C387.58 206.89 393.04 200.82 393.04 193.53C393.04 193.46 392.64 193.01 392.64 193.01H392.59V193ZM254.62 132.37L258.92 191.74C258.91 191.71 258.91 191.68 258.9 191.65L254.62 132.37Z" fill="white"/>
<path d="M205.71 193.4L232.33 193H232.39C232.38 193 232.36 192.74 232.34 192.53V192.38C232.36 192.6 232.38 193 232.39 193H232.41L233.17 118.07L233.19 116V115.78V116H213.19H213.11L205.96 190.88V190.89L205.71 193.67L205.7 194H205.69C205.69 194 205.7 193.81 205.7 193.86C205.7 193.81 205.71 193.46 205.71 193.4Z" fill="white"/>
<path d="M125.39 194H125.21L125.28 193.58L98.7498 193.48L98.7898 193.38L125.28 193.37L125.38 193.1L125.41 193.01L128.13 185.29C128.14 185.28 128.14 185.28 128.14 185.27L152.52 116H132.49H132.34H132.32L102.65 184.19C102.69 184.16 102.72 184.13 102.76 184.1L102.75 184.13C102.72 184.15 102.68 184.17 102.65 184.2L98.6396 193.4C98.6996 200.7 104.89 207.21 112.29 207.21C119.63 207.2 125.36 201 125.39 194Z" fill="white"/>
<path d="M138.94 206.59C146.26 206.59 152.1 200.78 152.11 193.58L125.41 193.59C125.62 200.78 131.63 206.59 138.94 206.59Z" fill="white"/>
<path d="M205.69 193.82L178.99 194L179.83 189.33C179.51 190.17 179.28 190.93 179.14 191.8C179.28 190.84 179.5 189.99 179.83 189.13L192.9 115.99H172.84H172.77L153.84 187.34C153.84 187.35 153.83 187.35 153.83 187.36L152.28 193.41L152.18 193.99H152.26C152.26 193.99 152.25 193.89 152.25 193.95C152.37 201.25 158.45 207.07 165.85 207.07C173.16 207.07 178.97 201.17 178.96 193.99H178.97C179.14 201.27 185.24 207.07 192.62 207.07C200.01 207.07 205.86 201.09 205.69 193.79C205.7 193.74 205.69 193.87 205.69 193.82ZM179.04 192.67C179.05 192.59 179.06 192.51 179.06 192.43C179.05 192.51 179.04 192.59 179.04 192.67Z" fill="white"/>
<path d="M205.71 193.69C205.71 193.74 205.7 193.74 205.71 193.8C205.88 201.1 212.02 207 219.41 206.99C226.8 206.99 232.63 201.27 232.42 193.97C232.42 193.91 232.41 194 232.41 194H232.33V193.57L205.71 193.69Z" fill="white"/>
<path d="M413.4 183.189L419.24 193.29C418.88 189.16 416.64 185.519 413.4 183.189Z" fill="white"/>
<path d="M431.86 180.52C424.85 180.52 419.44 185.879 419.29 192.679C419.29 192.669 419.29 192.649 419.28 192.639C419.28 192.759 419.27 192.88 419.27 193H419.24L419.28 193.05C419.28 193.14 419.27 193.22 419.27 193.31L445.93 193.3C437.3 187.9 436 182.37 431.86 180.52Z" fill="white"/>
<path d="M112.24 115.75L112.13 115.96H112.24V115.75Z" fill="white"/>
<path d="M273.69 115.96V115.75H273.6L273.63 115.96H273.69Z" fill="white"/>
<path d="M314.01 115.96V115.75H313.91L313.98 115.96H314.01Z" fill="white"/>
<path d="M293.94 115.96V115.75H293.76V115.96H293.81H293.94Z" fill="white"/>
<path d="M354.32 115.75H354.22L354.32 115.95V115.75Z" fill="white"/>
<path d="M334.25 115.96V115.75H334.07V115.96H334.15H334.25Z" fill="white"/>
<path d="M374.56 115.96V115.75H374.37L374.49 115.96H374.56Z" fill="white"/>
<path d="M178 231.89C178 231.21 177.19 231 175.94 231H113.41C112.16 231 111 231.21 111 231.89V300H107V306H182V300H178V231.89ZM173 295.07C173 295.64 171.92 296 170.88 296H118.47C117.43 296 117 295.64 117 295.07V237.45C117 236.88 117.43 236 118.47 236H170.88C171.92 236 173 236.88 173 237.45V295.07Z" fill="white"/>
<path d="M278.15 262H205.68C204.24 262 203 262.92 203 264V374.02C203 375.1 204.23 376 205.68 376H278.15C279.59 376 281 375.1 281 374.02V264C281 262.92 279.59 262 278.15 262ZM272 316.25C272 316.7 271.41 317 270.28 317H213.54C212.41 317 211 316.69 211 316.25V270.64C211 270.19 212.41 270 213.54 270H270.28C271.41 270 272 270.19 272 270.64V316.25Z" fill="white"/>
<path d="M378 231.5C378 230.82 376.7 230 375.46 230H312.93C311.68 230 311 230.82 311 231.5V300H310.69H307V306H382V300H378V231.5ZM372 294.68C372 295.25 371.44 296 370.39 296H317.98C316.94 296 315.99 295.25 315.99 294.68V237.06C315.99 236.49 316.93 236 317.98 236H370.39C371.43 236 372 236.5 372 237.06V294.68Z" fill="white"/>
</svg>
