<svg width="491" height="492" viewBox="0 0 491 492" fill="none" xmlns="http://www.w3.org/2000/svg">
<path d="M245.64 0.919922C110.19 0.919922 0.389648 110.72 0.389648 246.17C0.389648 381.62 110.19 491.42 245.64 491.42C381.09 491.42 490.89 381.62 490.89 246.17C490.89 110.72 381.09 0.919922 245.64 0.919922ZM405 399H395V401.46C395 405.07 391.92 408 388.32 408H112.04C108.27 408 105 404.94 105 401.16V399H94.9998V371.84C94.9998 344.68 117.06 323 144.22 323H202.52C203.3 322 206.79 316.38 210.84 307.66C211.23 306.82 211.63 305.83 212.03 304.93C222.23 281.85 234.6 238.19 217.21 184C217.21 183.99 217.18 183.96 217.18 183.95C215.94 180.09 214 176.15 213 172.18C195.54 160.84 183.6 141.7 182.12 119.7C182.02 118.17 181.96 116.62 181.96 115.07C181.96 77.4798 212.43 47.0099 250.01 47.0099C287.6 47.0099 318.06 77.4799 318.06 115.06C318.06 116.62 318.01 118.16 317.9 119.69C316.42 141.68 304.5 160.8 287.05 172.15C285.51 176.1 284.13 180.03 282.91 183.86C265.51 238.06 277.85 281.88 288.02 304.96C292.58 315.32 296.7 321 297.52 323H355.81C382.97 323 404.98 344.67 404.98 371.84V399H405Z" fill="white"/>
</svg>
