<svg width="492" height="491" viewBox="0 0 492 491" fill="none" xmlns="http://www.w3.org/2000/svg">
<path d="M246.08 0.439941C110.63 0.439941 0.830078 110.24 0.830078 245.69C0.830078 381.14 110.63 490.94 246.08 490.94C381.53 490.94 491.33 381.14 491.33 245.69C491.33 110.24 381.53 0.439941 246.08 0.439941ZM383.55 211.09L326.22 266.56C323.72 268.97 322.58 272.46 323.15 275.89L336.34 354.56C337.79 363.19 328.71 369.73 320.99 365.63L250.52 328.25C247.45 326.62 243.78 326.61 240.7 328.21L169.96 365.07C162.2 369.11 153.18 362.5 154.69 353.89L168.47 275.32C169.07 271.9 167.95 268.4 165.47 265.97L108.56 210.08C102.32 203.95 105.82 193.33 114.48 192.1L193.46 180.92C196.9 180.43 199.88 178.29 201.43 175.18L237 103.78C240.9 95.95 252.08 95.9901 255.93 103.85L290.97 175.51C292.5 178.63 295.46 180.8 298.89 181.31L377.79 193.07C386.42 194.36 389.84 205.01 383.55 211.09Z" fill="white"/>
</svg>
